  0
SECTION
  2
HEADER
  9
$ACADVER
  1
AC1009
  9
$INSBASE
 10
0.0
 20
0.0
 30
0.0
  9
$EXTMIN
 10
0.0
 20
0.0
 30
0.0
  9
$EXTMAX
 10
0.0
 20
0.0
 30
0.0
  0
ENDSEC
  0
SECTION
  2
TABLES
  0
TABLE
  2
VPORT
 70
0
  0
ENDTAB
  0
TABLE
  2
LTYPE
 70
1
  0
LTYPE
  2
CONTINUOUS
 70
0
  3
Solid line
 72
65
 73
0
 40
0.0
  0
ENDTAB
  0
TABLE
  2
LAYER
 70
1
  0
LAYER
  2
0
 70
64
 62
7
  6
continuous
  0
ENDTAB
  0
TABLE
  2
STYLE
 70
1
  0
STYLE
  2
STANDARD
 70
0
 40
0
 41
1.0
 50
0.0
 71
0
 42
1
 3
ARIAL.TTF
 4

  0
ENDTAB
  0
TABLE
  2
VIEW
 70
0
  0
ENDTAB
  0
ENDSEC
  0
SECTION
  2
BLOCKS
  0
BLOCK
  8
0
  2
FACEFEAT
 70
0
 10
0.0
 20
0.0
 30
0.0
  3
FACEFEAT
  0
CIRCLE
  8
0
 62
0
 10
-32.8578334492507
 20
32.8452149252385
 30
0.0
 40
2.5
  0
CIRCLE
  8
0
 62
0
 10
32.8459730292443
 20
32.8432389140125
 30
0.0
 40
2.5
  0
CIRCLE
  8
0
 62
0
 10
32.8619662833851
 20
-39.1983330858681
 30
0.0
 40
2.5
  0
CIRCLE
  8
0
 62
0
 10
-32.8516822673031
 20
-39.2034221681021
 30
0.0
 40
2.5
  0
LINE
  8
0
 62
0
 10
25.3818891995363
 20
-42.9981434018513
 30
0.0
 11
19.0420465157253
 21
-42.9981434018513
 31
0.0
  0
POLYLINE
  8
0
 62
0
 70
0
 66
1
 10
0.0
 20
0.0
 30
0.0
  0
VERTEX
  8
0
 10
28.607094894002678
 20
-42.9981434018513
 30
0.0
  0
VERTEX
  8
0
 10
25.3818891995363
 20
-42.9981434018513
 30
0.0
  0
SEQEND
  8
0
  0
POLYLINE
  8
0
 62
0
 70
0
 66
1
 10
0.0
 20
0.0
 30
0.0
  0
VERTEX
  8
0
 10
19.0420465157253
 20
-42.9981434018513
 30
0.0
  0
VERTEX
  8
0
 10
15.84184082125892
 20
-42.9981434018513
 30
0.0
  0
SEQEND
  8
0
  0
LINE
  8
0
 62
0
 10
-32.5074980899986
 20
-42.9981434018513
 30
0.0
 11
15.841840821258998
 21
-42.99814340185131
 31
0.0
  0
LINE
  8
0
 62
0
 10
28.6070948940027
 20
-42.99814340185131
 30
0.0
 11
32.50220539827199
 21
-42.99814340185131
 31
0.0
  0
LINE
  8
0
 62
0
 10
17.6999996043742
 20
-38.1
 30
0.0
 11
26.7499994020909
 21
-38.1
 31
0.0
  0
LINE
  8
0
 62
0
 10
26.025
 20
12.475
 30
0.0
 11
26.025
 21
25.475
 31
0.0
  0
ARC
  8
0
 62
0
 10
25.525
 20
12.475
 30
0.0
 40
0.5
 50
-90.0
 51
-0.0
  0
LINE
  8
0
 62
0
 10
12.025
 20
25.475
 30
0.0
 11
12.025
 21
12.475
 31
0.0
  0
ARC
  8
0
 62
0
 10
12.525
 20
25.475
 30
0.0
 40
0.5
 50
90.0
 51
-180.0
  0
ARC
  8
0
 62
0
 10
32.502205398272
 20
32.4957806460875
 30
0.0
 40
3.99999999999999
 50
-0.0
 51
90.0
  0
LINE
  8
0
 62
0
 10
32.502205398272
 20
36.4957806460875
 30
0.0
 11
-32.507498089998705
 21
36.495780646087454
 31
0.0
  0
ARC
  8
0
 62
0
 10
-32.5074980899987
 20
32.4957806460874
 30
0.0
 40
4.0
 50
90.0
 51
-180.0
  0
LINE
  8
0
 62
0
 10
-36.5074980899987
 20
32.4957806460874
 30
0.0
 11
-36.50749808999858
 21
-38.998143401851294
 31
0.0
  0
ARC
  8
0
 62
0
 10
-32.5074980899986
 20
-38.9981434018513
 30
0.0
 40
4.00000000000001
 50
-180.0
 51
-90.0
  0
LINE
  8
0
 62
0
 10
6.47500000000001
 20
25.975
 30
0.0
 11
-6.525
 21
25.975
 31
0.0
  0
ARC
  8
0
 62
0
 10
6.47500000000001
 20
25.475
 30
0.0
 40
0.499999999999998
 50
-0.0
 51
90.0
  0
LINE
  8
0
 62
0
 10
6.974999999999977
 20
12.475
 30
0.0
 11
6.974999999999973
 21
25.475
 31
0.0
  0
ARC
  8
0
 62
0
 10
6.47500000000001
 20
12.475
 30
0.0
 40
0.5
 50
-90.0
 51
-0.0
  0
LINE
  8
0
 62
0
 10
-12.075
 20
12.475
 30
0.0
 11
-12.075
 21
25.475
 31
0.0
  0
ARC
  8
0
 62
0
 10
-12.575
 20
12.475
 30
0.0
 40
0.5
 50
-90.0
 51
-0.0
  0
LINE
  8
0
 62
0
 10
-25.575
 20
11.975
 30
0.0
 11
-12.575
 21
11.975
 31
0.0
  0
ARC
  8
0
 62
0
 10
-25.575
 20
12.475
 30
0.0
 40
0.5
 50
-180.0
 51
-90.0
  0
LINE
  8
0
 62
0
 10
6.97499999999998
 20
-6.575
 30
0.0
 11
6.97499999999998
 21
6.425
 31
0.0
  0
ARC
  8
0
 62
0
 10
6.47500000000001
 20
-6.575
 30
0.0
 40
0.499999999999998
 50
-90.0
 51
-0.0
  0
LINE
  8
0
 62
0
 10
-6.525
 20
-7.075000000000001
 30
0.0
 11
6.475000000000009
 21
-7.074999999999997
 31
0.0
  0
ARC
  8
0
 62
0
 10
-6.525
 20
-6.575
 30
0.0
 40
0.499999999999998
 50
-180.0
 51
-90.0
  0
LINE
  8
0
 62
0
 10
-12.575
 20
6.925
 30
0.0
 11
-25.575
 21
6.925
 31
0.0
  0
ARC
  8
0
 62
0
 10
-12.575
 20
6.425
 30
0.0
 40
0.5
 50
-0.0
 51
90.0
  0
LINE
  8
0
 62
0
 10
-12.075
 20
-6.575
 30
0.0
 11
-12.075
 21
6.425
 31
0.0
  0
ARC
  8
0
 62
0
 10
-12.575
 20
-6.575
 30
0.0
 40
0.499999999999998
 50
-90.0
 51
-0.0
  0
LINE
  8
0
 62
0
 10
25.525
 20
6.925
 30
0.0
 11
12.525
 21
6.925
 31
0.0
  0
ARC
  8
0
 62
0
 10
25.525
 20
6.425
 30
0.0
 40
0.499999999999998
 50
-0.0
 51
90.0
  0
LINE
  8
0
 62
0
 10
26.025
 20
-6.575
 30
0.0
 11
26.025
 21
6.425
 31
0.0
  0
ARC
  8
0
 62
0
 10
25.525
 20
-6.575
 30
0.0
 40
0.499999999999998
 50
-90.0
 51
-0.0
  0
LINE
  8
0
 62
0
 10
-14.3000003196299
 20
-13.6999990433455
 30
0.0
 11
-25.4000000715256
 21
-13.6999990433455
 31
0.0
  0
ARC
  8
0
 62
0
 10
-14.3000003196299
 20
-14.1999990433455
 30
0.0
 40
0.499999999999994
 50
-0.0
 51
90.0
  0
LINE
  8
0
 62
0
 10
-13.800000319629898
 20
-25.5999987907708
 30
0.0
 11
-13.8000003196299
 21
-14.1999990433455
 31
0.0
  0
ARC
  8
0
 62
0
 10
-14.3000003196299
 20
-25.5999987907708
 30
0.0
 40
0.499999999999989
 50
-90.0
 51
-0.0
  0
LINE
  8
0
 62
0
 10
25.525
 20
25.975
 30
0.0
 11
25.525
 21
11.975
 31
0.0
  0
LINE
  8
0
 62
0
 10
12.525
 20
25.975
 30
0.0
 11
12.525
 21
11.975
 31
0.0
  0
CIRCLE
  8
0
 62
0
 10
-8.001
 20
-31.5595
 30
0.0
 40
1.52199584697405
  0
LINE
  8
0
 62
0
 10
17.6999996043742
 20
-36.4999991841614
 30
0.0
 11
17.6999996043742
 21
-36.8420831876411
 31
0.0
  0
LINE
  8
0
 62
0
 10
26.7499994020909
 20
-36.4999991841614
 30
0.0
 11
17.6999996043742
 21
-36.4999991841614
 31
0.0
  0
LINE
  8
0
 62
0
 10
26.7499994020909
 20
-36.8420831876411
 30
0.0
 11
26.7499994020909
 21
-36.4999991841614
 31
0.0
  0
ARC
  8
0
 62
0
 10
12.525
 20
12.475
 30
0.0
 40
0.499999999999998
 50
-180.0
 51
-90.0
  0
LINE
  8
0
 62
0
 10
-6.525
 20
11.975
 30
0.0
 11
6.475000000000009
 21
11.975
 31
0.0
  0
ARC
  8
0
 62
0
 10
-6.525
 20
12.475
 30
0.0
 40
0.499999999999998
 50
-180.0
 51
-90.0
  0
LINE
  8
0
 62
0
 10
-7.02500000000001
 20
25.475
 30
0.0
 11
-7.02500000000001
 21
12.475
 31
0.0
  0
ARC
  8
0
 62
0
 10
-6.525
 20
25.475
 30
0.0
 40
0.5
 50
90.0
 51
-180.0
  0
LINE
  8
0
 62
0
 10
-26.075
 20
25.475
 30
0.0
 11
-26.075
 21
12.475
 31
0.0
  0
ARC
  8
0
 62
0
 10
-25.575
 20
25.475
 30
0.0
 40
0.5
 50
90.0
 51
-180.0
  0
LINE
  8
0
 62
0
 10
-12.575
 20
25.975
 30
0.0
 11
-25.575
 21
25.975
 31
0.0
  0
ARC
  8
0
 62
0
 10
-12.575
 20
25.475
 30
0.0
 40
0.5
 50
-0.0
 51
90.0
  0
ARC
  8
0
 62
0
 10
25.525
 20
25.475
 30
0.0
 40
0.499999999999998
 50
-0.0
 51
90.0
  0
LINE
  8
0
 62
0
 10
-7.02500000000001
 20
6.424999999999999
 30
0.0
 11
-7.02500000000001
 21
-6.575000000000001
 31
0.0
  0
ARC
  8
0
 62
0
 10
-6.525
 20
6.425
 30
0.0
 40
0.499999999999998
 50
90.0
 51
-180.0
  0
LINE
  8
0
 62
0
 10
6.47500000000001
 20
6.925
 30
0.0
 11
-6.525
 21
6.925
 31
0.0
  0
ARC
  8
0
 62
0
 10
6.47500000000001
 20
6.425
 30
0.0
 40
0.499999999999998
 50
-0.0
 51
90.0
  0
LINE
  8
0
 62
0
 10
-25.575
 20
-7.075
 30
0.0
 11
-12.575
 21
-7.075
 31
0.0
  0
ARC
  8
0
 62
0
 10
-25.575
 20
-6.575
 30
0.0
 40
0.5
 50
-180.0
 51
-90.0
  0
LINE
  8
0
 62
0
 10
-26.075
 20
6.424999999999999
 30
0.0
 11
-26.075
 21
-6.575000000000001
 31
0.0
  0
ARC
  8
0
 62
0
 10
-25.575
 20
6.425
 30
0.0
 40
0.499999999999998
 50
90.0
 51
-180.0
  0
LINE
  8
0
 62
0
 10
12.525
 20
-7.075
 30
0.0
 11
25.525
 21
-7.075
 31
0.0
  0
ARC
  8
0
 62
0
 10
12.525
 20
-6.575
 30
0.0
 40
0.499999999999998
 50
-180.0
 51
-90.0
  0
LINE
  8
0
 62
0
 10
12.025
 20
6.424999999999999
 30
0.0
 11
12.025
 21
-6.575000000000001
 31
0.0
  0
ARC
  8
0
 62
0
 10
12.525
 20
6.425
 30
0.0
 40
0.499999999999998
 50
90.0
 51
-180.0
  0
LINE
  8
0
 62
0
 10
-25.400000071525604
 20
-25.999998793005933
 30
0.0
 11
-14.3000003196299
 21
-26.09999879077075
 31
0.0
  0
ARC
  8
0
 62
0
 10
-25.4000000715256
 20
-25.4999987930059
 30
0.0
 40
0.499999999999999
 50
-180.0
 51
-90.0
  0
LINE
  8
0
 62
0
 10
-25.9000000715256
 20
-14.1999990433455
 30
0.0
 11
-25.900000071525604
 21
-25.4999987930059
 31
0.0
  0
ARC
  8
0
 62
0
 10
-25.4000000715256
 20
-14.1999990433455
 30
0.0
 40
0.499999999999989
 50
90.0
 51
-180.0
  0
LINE
  8
0
 62
0
 10
17.6999996043742
 20
-38.1
 30
0.0
 11
17.6999996043742
 21
-36.8420831876411
 31
0.0
  0
LINE
  8
0
 62
0
 10
36.502205398272
 20
32.4957806460875
 30
0.0
 11
36.502205398272004
 21
-38.9981434018513
 31
0.0
  0
ARC
  8
0
 62
0
 10
32.502205398272
 20
-38.9981434018513
 30
0.0
 40
4.0
 50
-89.9999999999999
 51
-0.0
  0
LINE
  8
0
 62
0
 10
30.4381225814778
 20
30.3842519945092
 30
0.0
 11
30.438122581477796
 21
-36.842083187641094
 31
0.0
  0
LINE
  8
0
 62
0
 10
-30.3487634776223
 20
30.3842519945092
 30
0.0
 11
30.4381225814778
 21
30.3842519945092
 31
0.0
  0
LINE
  8
0
 62
0
 10
-30.3487634776223
 20
-36.8420831876411
 30
0.0
 11
-30.3487634776223
 21
30.3842519945092
 31
0.0
  0
LINE
  8
0
 62
0
 10
30.4381225814778
 20
-36.8420831876411
 30
0.0
 11
26.7499994020909
 21
-36.8420831876411
 31
0.0
  0
LINE
  8
0
 62
0
 10
17.6999996043742
 20
-36.8420831876411
 30
0.0
 11
-30.3487634776223
 21
-36.84208318764111
 31
0.0
  0
LINE
  8
0
 62
0
 10
26.7499994020909
 20
-36.8420831876411
 30
0.0
 11
26.7499994020909
 21
-38.1
 31
0.0
  0
LINE
  8
0
 62
0
 10
28.6070948940027
 20
-38.1
 30
0.0
 11
28.6070948940027
 21
-42.9981434018513
 31
0.0
  0
LINE
  8
0
 62
0
 10
15.841840821259
 20
-42.9981434018513
 30
0.0
 11
15.841840821259
 21
-38.1
 31
0.0
  0
LINE
  8
0
 62
0
 10
15.841840821259
 20
-38.1
 30
0.0
 11
17.6999996043742
 21
-38.1
 31
0.0
  0
LINE
  8
0
 62
0
 10
26.7499994020909
 20
-38.1
 30
0.0
 11
28.6070948940027
 21
-38.1
 31
0.0
  0
LINE
  8
0
 62
0
 10
25.3818891995363
 20
-38.1
 30
0.0
 11
25.3818891995363
 21
-42.9981434018513
 31
0.0
  0
LINE
  8
0
 62
0
 10
19.0420465157253
 20
-38.1
 30
0.0
 11
19.0420465157253
 21
-42.9981434018513
 31
0.0
  0
ENDBLK
  0
ENDSEC
  0
SECTION
  2
ENTITIES
  0
INSERT
  2
FACEFEAT
  8
0
 62
0
 10
0.0
 20
0.0
 30
0.0
  0
ENDSEC
  0
EOF
