%TF.GenerationSoftware,KiCad,Pcbnew,(5.1.8)-1*%
%TF.CreationDate,2020-11-20T23:41:01-06:00*%
%TF.ProjectId,testpcb,74657374-7063-4622-9e6b-696361645f70,0*%
%TF.SameCoordinates,Original*%
%TF.FileFunction,Copper,L1,Top*%
%TF.FilePolarity,Positive*%
%FSLAX46Y46*%
G04 Gerber Fmt 4.6, Leading zero omitted, Abs format (unit mm)*
G04 Created by KiCad (PCBNEW (5.1.8)-1) date 2020-11-20 23:41:01*
%MOMM*%
%LPD*%
G01*
G04 APERTURE LIST*
%TA.AperFunction,ComponentPad*%
%ADD10O,1.000000X2.100000*%
%TD*%
%TA.AperFunction,ComponentPad*%
%ADD11O,1.000000X1.600000*%
%TD*%
%TA.AperFunction,ComponentPad*%
%ADD12C,1.600000*%
%TD*%
%TA.AperFunction,ComponentPad*%
%ADD13R,1.600000X1.600000*%
%TD*%
%TA.AperFunction,ComponentPad*%
%ADD14R,2.000000X2.000000*%
%TD*%
%TA.AperFunction,ComponentPad*%
%ADD15C,2.000000*%
%TD*%
%TA.AperFunction,ComponentPad*%
%ADD16R,2.000000X3.200000*%
%TD*%
%TA.AperFunction,ViaPad*%
%ADD17C,0.800000*%
%TD*%
%TA.AperFunction,Conductor*%
%ADD18C,0.254000*%
%TD*%
%TA.AperFunction,Conductor*%
%ADD19C,0.100000*%
%TD*%
G04 APERTURE END LIST*
D10*
%TO.P,J1,13*%
%TO.N,GND*%
X102745000Y-83707500D03*
X94105000Y-83707500D03*
D11*
X102745000Y-87887500D03*
X94105000Y-87887500D03*
%TD*%
D12*
%TO.P,D1,2*%
%TO.N,Net-(D1-Pad2)*%
X65024000Y-31025000D03*
D13*
%TO.P,D1,1*%
%TO.N,/row0*%
X65024000Y-38825000D03*
%TD*%
%TO.P,D2,1*%
%TO.N,/row1*%
X65024000Y-57875000D03*
D12*
%TO.P,D2,2*%
%TO.N,Net-(D2-Pad2)*%
X65024000Y-50075000D03*
%TD*%
%TO.P,D3,2*%
%TO.N,Net-(D3-Pad2)*%
X84137500Y-31025000D03*
D13*
%TO.P,D3,1*%
%TO.N,/row0*%
X84137500Y-38825000D03*
%TD*%
%TO.P,D4,1*%
%TO.N,/row1*%
X84137500Y-57875000D03*
D12*
%TO.P,D4,2*%
%TO.N,Net-(D4-Pad2)*%
X84137500Y-50075000D03*
%TD*%
D13*
%TO.P,D5,1*%
%TO.N,/row0*%
X103187500Y-38825000D03*
D12*
%TO.P,D5,2*%
%TO.N,Net-(D5-Pad2)*%
X103187500Y-31025000D03*
%TD*%
D13*
%TO.P,D6,1*%
%TO.N,/row1*%
X103187500Y-57875000D03*
D12*
%TO.P,D6,2*%
%TO.N,Net-(D6-Pad2)*%
X103187500Y-50075000D03*
%TD*%
%TO.P,D7,2*%
%TO.N,Net-(D7-Pad2)*%
X54520000Y-67945000D03*
D13*
%TO.P,D7,1*%
%TO.N,/row2*%
X62320000Y-67945000D03*
%TD*%
D14*
%TO.P,SW2,A*%
%TO.N,/pinA*%
X53856250Y-79731250D03*
D15*
%TO.P,SW2,C*%
%TO.N,GND*%
X56356250Y-79731250D03*
%TO.P,SW2,B*%
%TO.N,/pinB*%
X58856250Y-79731250D03*
D16*
%TO.P,SW2,MP*%
%TO.N,N/C*%
X50756250Y-72231250D03*
X61956250Y-72231250D03*
D15*
%TO.P,SW2,S2*%
%TO.N,/col0*%
X53856250Y-65231250D03*
%TO.P,SW2,S1*%
%TO.N,Net-(D7-Pad2)*%
X58856250Y-65231250D03*
%TD*%
D17*
%TO.N,/col1*%
X69088000Y-36195000D03*
X69088000Y-44958000D03*
X70739000Y-55245000D03*
X73660000Y-58166000D03*
%TO.N,/col2*%
X88138000Y-36195000D03*
X88138000Y-45085000D03*
X88265000Y-55118000D03*
X80391000Y-61341000D03*
%TO.N,Net-(R1-Pad1)*%
X79629000Y-84709000D03*
X80137000Y-78232000D03*
%TD*%
D18*
%TO.N,/col1*%
X69088000Y-36195000D02*
X69088000Y-44958000D01*
X70739000Y-55245000D02*
X73660000Y-58166000D01*
%TO.N,/col2*%
X88138000Y-36195000D02*
X88138000Y-45085000D01*
X88265000Y-55118000D02*
X86741000Y-56642000D01*
X86741000Y-56642000D02*
X86741000Y-58420000D01*
X83820000Y-61341000D02*
X80391000Y-61341000D01*
X86741000Y-58420000D02*
X83820000Y-61341000D01*
%TO.N,Net-(R1-Pad1)*%
X80137000Y-84201000D02*
X80137000Y-78232000D01*
X79629000Y-84709000D02*
X80137000Y-84201000D01*
%TD*%
%TO.N,GND*%
X104954538Y-22905769D02*
X105127237Y-22957910D01*
X105286518Y-23042602D01*
X105426319Y-23156619D01*
X105541308Y-23295617D01*
X105627110Y-23454305D01*
X105680455Y-23626635D01*
X105702500Y-23836380D01*
X105702501Y-87280210D01*
X105681731Y-87492038D01*
X105629591Y-87664736D01*
X105544899Y-87824018D01*
X105430878Y-87963821D01*
X105291885Y-88078806D01*
X105133195Y-88164610D01*
X104960865Y-88217955D01*
X104751119Y-88240000D01*
X103880000Y-88240000D01*
X103880000Y-88014500D01*
X102872000Y-88014500D01*
X102872000Y-88034500D01*
X102618000Y-88034500D01*
X102618000Y-88014500D01*
X101610000Y-88014500D01*
X101610000Y-88240000D01*
X95240000Y-88240000D01*
X95240000Y-88014500D01*
X94232000Y-88014500D01*
X94232000Y-88034500D01*
X93978000Y-88034500D01*
X93978000Y-88014500D01*
X92970000Y-88014500D01*
X92970000Y-88240000D01*
X47657280Y-88240000D01*
X47445462Y-88219231D01*
X47272764Y-88167091D01*
X47113482Y-88082399D01*
X46973679Y-87968378D01*
X46858694Y-87829385D01*
X46772890Y-87670695D01*
X46719545Y-87498365D01*
X46715566Y-87460500D01*
X92970000Y-87460500D01*
X92970000Y-87760500D01*
X93978000Y-87760500D01*
X93978000Y-86619546D01*
X94232000Y-86619546D01*
X94232000Y-87760500D01*
X95240000Y-87760500D01*
X95240000Y-87460500D01*
X101610000Y-87460500D01*
X101610000Y-87760500D01*
X102618000Y-87760500D01*
X102618000Y-86619546D01*
X102872000Y-86619546D01*
X102872000Y-87760500D01*
X103880000Y-87760500D01*
X103880000Y-87460500D01*
X103833415Y-87241513D01*
X103745003Y-87035822D01*
X103618161Y-86851331D01*
X103457764Y-86695131D01*
X103269976Y-86573224D01*
X103046874Y-86493381D01*
X102872000Y-86619546D01*
X102618000Y-86619546D01*
X102443126Y-86493381D01*
X102220024Y-86573224D01*
X102032236Y-86695131D01*
X101871839Y-86851331D01*
X101744997Y-87035822D01*
X101656585Y-87241513D01*
X101610000Y-87460500D01*
X95240000Y-87460500D01*
X95193415Y-87241513D01*
X95105003Y-87035822D01*
X94978161Y-86851331D01*
X94817764Y-86695131D01*
X94629976Y-86573224D01*
X94406874Y-86493381D01*
X94232000Y-86619546D01*
X93978000Y-86619546D01*
X93803126Y-86493381D01*
X93580024Y-86573224D01*
X93392236Y-86695131D01*
X93231839Y-86851331D01*
X93104997Y-87035822D01*
X93016585Y-87241513D01*
X92970000Y-87460500D01*
X46715566Y-87460500D01*
X46697500Y-87288619D01*
X46697500Y-84607061D01*
X78594000Y-84607061D01*
X78594000Y-84810939D01*
X78633774Y-85010898D01*
X78711795Y-85199256D01*
X78825063Y-85368774D01*
X78969226Y-85512937D01*
X79138744Y-85626205D01*
X79327102Y-85704226D01*
X79527061Y-85744000D01*
X79730939Y-85744000D01*
X79930898Y-85704226D01*
X80119256Y-85626205D01*
X80288774Y-85512937D01*
X80432937Y-85368774D01*
X80546205Y-85199256D01*
X80624226Y-85010898D01*
X80664000Y-84810939D01*
X80664000Y-84754258D01*
X80678422Y-84742422D01*
X80773645Y-84626392D01*
X80844402Y-84494015D01*
X80887974Y-84350378D01*
X80899000Y-84238426D01*
X80899000Y-84238417D01*
X80902685Y-84201001D01*
X80899000Y-84163585D01*
X80899000Y-83834500D01*
X92970000Y-83834500D01*
X92970000Y-84384500D01*
X93016585Y-84603487D01*
X93104997Y-84809178D01*
X93231839Y-84993669D01*
X93392236Y-85149869D01*
X93580024Y-85271776D01*
X93803126Y-85351619D01*
X93978000Y-85225454D01*
X93978000Y-83834500D01*
X92970000Y-83834500D01*
X80899000Y-83834500D01*
X80899000Y-83030500D01*
X92970000Y-83030500D01*
X92970000Y-83580500D01*
X93978000Y-83580500D01*
X93978000Y-82189546D01*
X94232000Y-82189546D01*
X94232000Y-83580500D01*
X94252000Y-83580500D01*
X94252000Y-83834500D01*
X94232000Y-83834500D01*
X94232000Y-85225454D01*
X94406874Y-85351619D01*
X94629976Y-85271776D01*
X94817764Y-85149869D01*
X94962116Y-85009294D01*
X95080269Y-85088241D01*
X95254978Y-85160608D01*
X95440448Y-85197500D01*
X95629552Y-85197500D01*
X95815022Y-85160608D01*
X95989731Y-85088241D01*
X96146964Y-84983181D01*
X96280681Y-84849464D01*
X96385741Y-84692231D01*
X96458108Y-84517522D01*
X96495000Y-84332052D01*
X96495000Y-84142948D01*
X100355000Y-84142948D01*
X100355000Y-84332052D01*
X100391892Y-84517522D01*
X100464259Y-84692231D01*
X100569319Y-84849464D01*
X100703036Y-84983181D01*
X100860269Y-85088241D01*
X101034978Y-85160608D01*
X101220448Y-85197500D01*
X101409552Y-85197500D01*
X101595022Y-85160608D01*
X101769731Y-85088241D01*
X101887884Y-85009294D01*
X102032236Y-85149869D01*
X102220024Y-85271776D01*
X102443126Y-85351619D01*
X102618000Y-85225454D01*
X102618000Y-83834500D01*
X102872000Y-83834500D01*
X102872000Y-85225454D01*
X103046874Y-85351619D01*
X103269976Y-85271776D01*
X103457764Y-85149869D01*
X103618161Y-84993669D01*
X103745003Y-84809178D01*
X103833415Y-84603487D01*
X103880000Y-84384500D01*
X103880000Y-83834500D01*
X102872000Y-83834500D01*
X102618000Y-83834500D01*
X102598000Y-83834500D01*
X102598000Y-83580500D01*
X102618000Y-83580500D01*
X102618000Y-82189546D01*
X102872000Y-82189546D01*
X102872000Y-83580500D01*
X103880000Y-83580500D01*
X103880000Y-83030500D01*
X103833415Y-82811513D01*
X103745003Y-82605822D01*
X103618161Y-82421331D01*
X103457764Y-82265131D01*
X103269976Y-82143224D01*
X103046874Y-82063381D01*
X102872000Y-82189546D01*
X102618000Y-82189546D01*
X102443126Y-82063381D01*
X102220024Y-82143224D01*
X102032236Y-82265131D01*
X101871839Y-82421331D01*
X101744997Y-82605822D01*
X101656585Y-82811513D01*
X101610000Y-83030500D01*
X101610000Y-83320596D01*
X101595022Y-83314392D01*
X101409552Y-83277500D01*
X101220448Y-83277500D01*
X101034978Y-83314392D01*
X100860269Y-83386759D01*
X100703036Y-83491819D01*
X100569319Y-83625536D01*
X100464259Y-83782769D01*
X100391892Y-83957478D01*
X100355000Y-84142948D01*
X96495000Y-84142948D01*
X96458108Y-83957478D01*
X96385741Y-83782769D01*
X96280681Y-83625536D01*
X96146964Y-83491819D01*
X95989731Y-83386759D01*
X95815022Y-83314392D01*
X95629552Y-83277500D01*
X95440448Y-83277500D01*
X95254978Y-83314392D01*
X95240000Y-83320596D01*
X95240000Y-83030500D01*
X95193415Y-82811513D01*
X95105003Y-82605822D01*
X94978161Y-82421331D01*
X94817764Y-82265131D01*
X94629976Y-82143224D01*
X94406874Y-82063381D01*
X94232000Y-82189546D01*
X93978000Y-82189546D01*
X93803126Y-82063381D01*
X93580024Y-82143224D01*
X93392236Y-82265131D01*
X93231839Y-82421331D01*
X93104997Y-82605822D01*
X93016585Y-82811513D01*
X92970000Y-83030500D01*
X80899000Y-83030500D01*
X80899000Y-78933711D01*
X80940937Y-78891774D01*
X81054205Y-78722256D01*
X81132226Y-78533898D01*
X81172000Y-78333939D01*
X81172000Y-78130061D01*
X81132226Y-77930102D01*
X81054205Y-77741744D01*
X80940937Y-77572226D01*
X80796774Y-77428063D01*
X80627256Y-77314795D01*
X80438898Y-77236774D01*
X80238939Y-77197000D01*
X80035061Y-77197000D01*
X79835102Y-77236774D01*
X79646744Y-77314795D01*
X79477226Y-77428063D01*
X79333063Y-77572226D01*
X79219795Y-77741744D01*
X79141774Y-77930102D01*
X79102000Y-78130061D01*
X79102000Y-78333939D01*
X79141774Y-78533898D01*
X79219795Y-78722256D01*
X79333063Y-78891774D01*
X79375001Y-78933712D01*
X79375000Y-83704247D01*
X79327102Y-83713774D01*
X79138744Y-83791795D01*
X78969226Y-83905063D01*
X78825063Y-84049226D01*
X78711795Y-84218744D01*
X78633774Y-84407102D01*
X78594000Y-84607061D01*
X46697500Y-84607061D01*
X46697500Y-78731250D01*
X52218178Y-78731250D01*
X52218178Y-80731250D01*
X52230438Y-80855732D01*
X52266748Y-80975430D01*
X52325713Y-81085744D01*
X52405065Y-81182435D01*
X52501756Y-81261787D01*
X52612070Y-81320752D01*
X52731768Y-81357062D01*
X52856250Y-81369322D01*
X54856250Y-81369322D01*
X54980732Y-81357062D01*
X55100430Y-81320752D01*
X55210744Y-81261787D01*
X55307435Y-81182435D01*
X55386787Y-81085744D01*
X55442226Y-80982027D01*
X55496206Y-81131064D01*
X55785821Y-81271954D01*
X56097358Y-81353634D01*
X56418845Y-81372968D01*
X56737925Y-81329211D01*
X57042338Y-81224045D01*
X57216294Y-81131064D01*
X57312058Y-80866663D01*
X56356250Y-79910855D01*
X56342108Y-79924998D01*
X56162503Y-79745393D01*
X56176645Y-79731250D01*
X56535855Y-79731250D01*
X57491663Y-80687058D01*
X57521325Y-80676315D01*
X57586263Y-80773502D01*
X57813998Y-81001237D01*
X58081787Y-81180168D01*
X58379338Y-81303418D01*
X58695217Y-81366250D01*
X59017283Y-81366250D01*
X59333162Y-81303418D01*
X59630713Y-81180168D01*
X59898502Y-81001237D01*
X60126237Y-80773502D01*
X60305168Y-80505713D01*
X60428418Y-80208162D01*
X60491250Y-79892283D01*
X60491250Y-79570217D01*
X60428418Y-79254338D01*
X60305168Y-78956787D01*
X60126237Y-78688998D01*
X59898502Y-78461263D01*
X59630713Y-78282332D01*
X59333162Y-78159082D01*
X59017283Y-78096250D01*
X58695217Y-78096250D01*
X58379338Y-78159082D01*
X58081787Y-78282332D01*
X57813998Y-78461263D01*
X57586263Y-78688998D01*
X57521325Y-78786185D01*
X57491663Y-78775442D01*
X56535855Y-79731250D01*
X56176645Y-79731250D01*
X56162503Y-79717108D01*
X56342108Y-79537503D01*
X56356250Y-79551645D01*
X57312058Y-78595837D01*
X57216294Y-78331436D01*
X56926679Y-78190546D01*
X56615142Y-78108866D01*
X56293655Y-78089532D01*
X55974575Y-78133289D01*
X55670162Y-78238455D01*
X55496206Y-78331436D01*
X55442226Y-78480473D01*
X55386787Y-78376756D01*
X55307435Y-78280065D01*
X55210744Y-78200713D01*
X55100430Y-78141748D01*
X54980732Y-78105438D01*
X54856250Y-78093178D01*
X52856250Y-78093178D01*
X52731768Y-78105438D01*
X52612070Y-78141748D01*
X52501756Y-78200713D01*
X52405065Y-78280065D01*
X52325713Y-78376756D01*
X52266748Y-78487070D01*
X52230438Y-78606768D01*
X52218178Y-78731250D01*
X46697500Y-78731250D01*
X46697500Y-70631250D01*
X49118178Y-70631250D01*
X49118178Y-73831250D01*
X49130438Y-73955732D01*
X49166748Y-74075430D01*
X49225713Y-74185744D01*
X49305065Y-74282435D01*
X49401756Y-74361787D01*
X49512070Y-74420752D01*
X49631768Y-74457062D01*
X49756250Y-74469322D01*
X51756250Y-74469322D01*
X51880732Y-74457062D01*
X52000430Y-74420752D01*
X52110744Y-74361787D01*
X52207435Y-74282435D01*
X52286787Y-74185744D01*
X52345752Y-74075430D01*
X52382062Y-73955732D01*
X52394322Y-73831250D01*
X52394322Y-70631250D01*
X60318178Y-70631250D01*
X60318178Y-73831250D01*
X60330438Y-73955732D01*
X60366748Y-74075430D01*
X60425713Y-74185744D01*
X60505065Y-74282435D01*
X60601756Y-74361787D01*
X60712070Y-74420752D01*
X60831768Y-74457062D01*
X60956250Y-74469322D01*
X62956250Y-74469322D01*
X63080732Y-74457062D01*
X63200430Y-74420752D01*
X63310744Y-74361787D01*
X63407435Y-74282435D01*
X63486787Y-74185744D01*
X63545752Y-74075430D01*
X63582062Y-73955732D01*
X63594322Y-73831250D01*
X63594322Y-70631250D01*
X63582062Y-70506768D01*
X63545752Y-70387070D01*
X63486787Y-70276756D01*
X63407435Y-70180065D01*
X63310744Y-70100713D01*
X63200430Y-70041748D01*
X63080732Y-70005438D01*
X62956250Y-69993178D01*
X60956250Y-69993178D01*
X60831768Y-70005438D01*
X60712070Y-70041748D01*
X60601756Y-70100713D01*
X60505065Y-70180065D01*
X60425713Y-70276756D01*
X60366748Y-70387070D01*
X60330438Y-70506768D01*
X60318178Y-70631250D01*
X52394322Y-70631250D01*
X52382062Y-70506768D01*
X52345752Y-70387070D01*
X52286787Y-70276756D01*
X52207435Y-70180065D01*
X52110744Y-70100713D01*
X52000430Y-70041748D01*
X51880732Y-70005438D01*
X51756250Y-69993178D01*
X49756250Y-69993178D01*
X49631768Y-70005438D01*
X49512070Y-70041748D01*
X49401756Y-70100713D01*
X49305065Y-70180065D01*
X49225713Y-70276756D01*
X49166748Y-70387070D01*
X49130438Y-70506768D01*
X49118178Y-70631250D01*
X46697500Y-70631250D01*
X46697500Y-65070217D01*
X52221250Y-65070217D01*
X52221250Y-65392283D01*
X52284082Y-65708162D01*
X52407332Y-66005713D01*
X52586263Y-66273502D01*
X52813998Y-66501237D01*
X53081787Y-66680168D01*
X53379338Y-66803418D01*
X53590236Y-66845368D01*
X53405363Y-67030241D01*
X53248320Y-67265273D01*
X53140147Y-67526426D01*
X53085000Y-67803665D01*
X53085000Y-68086335D01*
X53140147Y-68363574D01*
X53248320Y-68624727D01*
X53405363Y-68859759D01*
X53605241Y-69059637D01*
X53840273Y-69216680D01*
X54101426Y-69324853D01*
X54378665Y-69380000D01*
X54661335Y-69380000D01*
X54938574Y-69324853D01*
X55199727Y-69216680D01*
X55434759Y-69059637D01*
X55634637Y-68859759D01*
X55791680Y-68624727D01*
X55899853Y-68363574D01*
X55955000Y-68086335D01*
X55955000Y-67803665D01*
X55899853Y-67526426D01*
X55791680Y-67265273D01*
X55711317Y-67145000D01*
X60881928Y-67145000D01*
X60881928Y-68745000D01*
X60894188Y-68869482D01*
X60930498Y-68989180D01*
X60989463Y-69099494D01*
X61068815Y-69196185D01*
X61165506Y-69275537D01*
X61275820Y-69334502D01*
X61395518Y-69370812D01*
X61520000Y-69383072D01*
X63120000Y-69383072D01*
X63244482Y-69370812D01*
X63364180Y-69334502D01*
X63474494Y-69275537D01*
X63571185Y-69196185D01*
X63650537Y-69099494D01*
X63709502Y-68989180D01*
X63745812Y-68869482D01*
X63758072Y-68745000D01*
X63758072Y-67145000D01*
X63745812Y-67020518D01*
X63709502Y-66900820D01*
X63650537Y-66790506D01*
X63571185Y-66693815D01*
X63474494Y-66614463D01*
X63364180Y-66555498D01*
X63244482Y-66519188D01*
X63120000Y-66506928D01*
X61520000Y-66506928D01*
X61395518Y-66519188D01*
X61275820Y-66555498D01*
X61165506Y-66614463D01*
X61068815Y-66693815D01*
X60989463Y-66790506D01*
X60930498Y-66900820D01*
X60894188Y-67020518D01*
X60881928Y-67145000D01*
X55711317Y-67145000D01*
X55634637Y-67030241D01*
X55434759Y-66830363D01*
X55199727Y-66673320D01*
X54938574Y-66565147D01*
X54833989Y-66544343D01*
X54898502Y-66501237D01*
X55126237Y-66273502D01*
X55305168Y-66005713D01*
X55428418Y-65708162D01*
X55491250Y-65392283D01*
X55491250Y-65070217D01*
X57221250Y-65070217D01*
X57221250Y-65392283D01*
X57284082Y-65708162D01*
X57407332Y-66005713D01*
X57586263Y-66273502D01*
X57813998Y-66501237D01*
X58081787Y-66680168D01*
X58379338Y-66803418D01*
X58695217Y-66866250D01*
X59017283Y-66866250D01*
X59333162Y-66803418D01*
X59630713Y-66680168D01*
X59898502Y-66501237D01*
X60126237Y-66273502D01*
X60305168Y-66005713D01*
X60428418Y-65708162D01*
X60491250Y-65392283D01*
X60491250Y-65070217D01*
X60428418Y-64754338D01*
X60305168Y-64456787D01*
X60126237Y-64188998D01*
X59898502Y-63961263D01*
X59630713Y-63782332D01*
X59333162Y-63659082D01*
X59017283Y-63596250D01*
X58695217Y-63596250D01*
X58379338Y-63659082D01*
X58081787Y-63782332D01*
X57813998Y-63961263D01*
X57586263Y-64188998D01*
X57407332Y-64456787D01*
X57284082Y-64754338D01*
X57221250Y-65070217D01*
X55491250Y-65070217D01*
X55428418Y-64754338D01*
X55305168Y-64456787D01*
X55126237Y-64188998D01*
X54898502Y-63961263D01*
X54630713Y-63782332D01*
X54333162Y-63659082D01*
X54017283Y-63596250D01*
X53695217Y-63596250D01*
X53379338Y-63659082D01*
X53081787Y-63782332D01*
X52813998Y-63961263D01*
X52586263Y-64188998D01*
X52407332Y-64456787D01*
X52284082Y-64754338D01*
X52221250Y-65070217D01*
X46697500Y-65070217D01*
X46697500Y-61239061D01*
X79356000Y-61239061D01*
X79356000Y-61442939D01*
X79395774Y-61642898D01*
X79473795Y-61831256D01*
X79587063Y-62000774D01*
X79731226Y-62144937D01*
X79900744Y-62258205D01*
X80089102Y-62336226D01*
X80289061Y-62376000D01*
X80492939Y-62376000D01*
X80692898Y-62336226D01*
X80881256Y-62258205D01*
X81050774Y-62144937D01*
X81092711Y-62103000D01*
X83782577Y-62103000D01*
X83820000Y-62106686D01*
X83857423Y-62103000D01*
X83857426Y-62103000D01*
X83969378Y-62091974D01*
X84113015Y-62048402D01*
X84245392Y-61977645D01*
X84361422Y-61882422D01*
X84385284Y-61853346D01*
X87253352Y-58985279D01*
X87282422Y-58961422D01*
X87354659Y-58873401D01*
X87377645Y-58845393D01*
X87415465Y-58774636D01*
X87448402Y-58713015D01*
X87491974Y-58569378D01*
X87503000Y-58457426D01*
X87503000Y-58457423D01*
X87506686Y-58420000D01*
X87503000Y-58382577D01*
X87503000Y-57075000D01*
X101749428Y-57075000D01*
X101749428Y-58675000D01*
X101761688Y-58799482D01*
X101797998Y-58919180D01*
X101856963Y-59029494D01*
X101936315Y-59126185D01*
X102033006Y-59205537D01*
X102143320Y-59264502D01*
X102263018Y-59300812D01*
X102387500Y-59313072D01*
X103987500Y-59313072D01*
X104111982Y-59300812D01*
X104231680Y-59264502D01*
X104341994Y-59205537D01*
X104438685Y-59126185D01*
X104518037Y-59029494D01*
X104577002Y-58919180D01*
X104613312Y-58799482D01*
X104625572Y-58675000D01*
X104625572Y-57075000D01*
X104613312Y-56950518D01*
X104577002Y-56830820D01*
X104518037Y-56720506D01*
X104438685Y-56623815D01*
X104341994Y-56544463D01*
X104231680Y-56485498D01*
X104111982Y-56449188D01*
X103987500Y-56436928D01*
X102387500Y-56436928D01*
X102263018Y-56449188D01*
X102143320Y-56485498D01*
X102033006Y-56544463D01*
X101936315Y-56623815D01*
X101856963Y-56720506D01*
X101797998Y-56830820D01*
X101761688Y-56950518D01*
X101749428Y-57075000D01*
X87503000Y-57075000D01*
X87503000Y-56957630D01*
X88307631Y-56153000D01*
X88366939Y-56153000D01*
X88566898Y-56113226D01*
X88755256Y-56035205D01*
X88924774Y-55921937D01*
X89068937Y-55777774D01*
X89182205Y-55608256D01*
X89260226Y-55419898D01*
X89300000Y-55219939D01*
X89300000Y-55016061D01*
X89260226Y-54816102D01*
X89182205Y-54627744D01*
X89068937Y-54458226D01*
X88924774Y-54314063D01*
X88755256Y-54200795D01*
X88566898Y-54122774D01*
X88366939Y-54083000D01*
X88163061Y-54083000D01*
X87963102Y-54122774D01*
X87774744Y-54200795D01*
X87605226Y-54314063D01*
X87461063Y-54458226D01*
X87347795Y-54627744D01*
X87269774Y-54816102D01*
X87230000Y-55016061D01*
X87230000Y-55075369D01*
X86228654Y-56076716D01*
X86199578Y-56100578D01*
X86156557Y-56153000D01*
X86104355Y-56216608D01*
X86091731Y-56240226D01*
X86033598Y-56348986D01*
X85990026Y-56492623D01*
X85979000Y-56604574D01*
X85975314Y-56642000D01*
X85979000Y-56679424D01*
X85979001Y-58104368D01*
X85575572Y-58507797D01*
X85575572Y-57075000D01*
X85563312Y-56950518D01*
X85527002Y-56830820D01*
X85468037Y-56720506D01*
X85388685Y-56623815D01*
X85291994Y-56544463D01*
X85181680Y-56485498D01*
X85061982Y-56449188D01*
X84937500Y-56436928D01*
X83337500Y-56436928D01*
X83213018Y-56449188D01*
X83093320Y-56485498D01*
X82983006Y-56544463D01*
X82886315Y-56623815D01*
X82806963Y-56720506D01*
X82747998Y-56830820D01*
X82711688Y-56950518D01*
X82699428Y-57075000D01*
X82699428Y-58675000D01*
X82711688Y-58799482D01*
X82747998Y-58919180D01*
X82806963Y-59029494D01*
X82886315Y-59126185D01*
X82983006Y-59205537D01*
X83093320Y-59264502D01*
X83213018Y-59300812D01*
X83337500Y-59313072D01*
X84770297Y-59313072D01*
X83504370Y-60579000D01*
X81092711Y-60579000D01*
X81050774Y-60537063D01*
X80881256Y-60423795D01*
X80692898Y-60345774D01*
X80492939Y-60306000D01*
X80289061Y-60306000D01*
X80089102Y-60345774D01*
X79900744Y-60423795D01*
X79731226Y-60537063D01*
X79587063Y-60681226D01*
X79473795Y-60850744D01*
X79395774Y-61039102D01*
X79356000Y-61239061D01*
X46697500Y-61239061D01*
X46697500Y-57075000D01*
X63585928Y-57075000D01*
X63585928Y-58675000D01*
X63598188Y-58799482D01*
X63634498Y-58919180D01*
X63693463Y-59029494D01*
X63772815Y-59126185D01*
X63869506Y-59205537D01*
X63979820Y-59264502D01*
X64099518Y-59300812D01*
X64224000Y-59313072D01*
X65824000Y-59313072D01*
X65948482Y-59300812D01*
X66068180Y-59264502D01*
X66178494Y-59205537D01*
X66275185Y-59126185D01*
X66354537Y-59029494D01*
X66413502Y-58919180D01*
X66449812Y-58799482D01*
X66462072Y-58675000D01*
X66462072Y-57075000D01*
X66449812Y-56950518D01*
X66413502Y-56830820D01*
X66354537Y-56720506D01*
X66275185Y-56623815D01*
X66178494Y-56544463D01*
X66068180Y-56485498D01*
X65948482Y-56449188D01*
X65824000Y-56436928D01*
X64224000Y-56436928D01*
X64099518Y-56449188D01*
X63979820Y-56485498D01*
X63869506Y-56544463D01*
X63772815Y-56623815D01*
X63693463Y-56720506D01*
X63634498Y-56830820D01*
X63598188Y-56950518D01*
X63585928Y-57075000D01*
X46697500Y-57075000D01*
X46697500Y-55143061D01*
X69704000Y-55143061D01*
X69704000Y-55346939D01*
X69743774Y-55546898D01*
X69821795Y-55735256D01*
X69935063Y-55904774D01*
X70079226Y-56048937D01*
X70248744Y-56162205D01*
X70437102Y-56240226D01*
X70637061Y-56280000D01*
X70696370Y-56280000D01*
X72625000Y-58208631D01*
X72625000Y-58267939D01*
X72664774Y-58467898D01*
X72742795Y-58656256D01*
X72856063Y-58825774D01*
X73000226Y-58969937D01*
X73169744Y-59083205D01*
X73358102Y-59161226D01*
X73558061Y-59201000D01*
X73761939Y-59201000D01*
X73961898Y-59161226D01*
X74150256Y-59083205D01*
X74319774Y-58969937D01*
X74463937Y-58825774D01*
X74577205Y-58656256D01*
X74655226Y-58467898D01*
X74695000Y-58267939D01*
X74695000Y-58064061D01*
X74655226Y-57864102D01*
X74577205Y-57675744D01*
X74463937Y-57506226D01*
X74319774Y-57362063D01*
X74150256Y-57248795D01*
X73961898Y-57170774D01*
X73761939Y-57131000D01*
X73702631Y-57131000D01*
X71774000Y-55202370D01*
X71774000Y-55143061D01*
X71734226Y-54943102D01*
X71656205Y-54754744D01*
X71542937Y-54585226D01*
X71398774Y-54441063D01*
X71229256Y-54327795D01*
X71040898Y-54249774D01*
X70840939Y-54210000D01*
X70637061Y-54210000D01*
X70437102Y-54249774D01*
X70248744Y-54327795D01*
X70079226Y-54441063D01*
X69935063Y-54585226D01*
X69821795Y-54754744D01*
X69743774Y-54943102D01*
X69704000Y-55143061D01*
X46697500Y-55143061D01*
X46697500Y-52238778D01*
X50560000Y-52238778D01*
X50560000Y-52536222D01*
X50618029Y-52827951D01*
X50731856Y-53102753D01*
X50897107Y-53350069D01*
X51107431Y-53560393D01*
X51354747Y-53725644D01*
X51629549Y-53839471D01*
X51921278Y-53897500D01*
X52218722Y-53897500D01*
X52510451Y-53839471D01*
X52785253Y-53725644D01*
X53032569Y-53560393D01*
X53242893Y-53350069D01*
X53408144Y-53102753D01*
X53521971Y-52827951D01*
X53580000Y-52536222D01*
X53580000Y-52238778D01*
X53529023Y-51982500D01*
X53550279Y-51982500D01*
X53962756Y-51900453D01*
X54351302Y-51739512D01*
X54657708Y-51534779D01*
X54622127Y-51620678D01*
X54521100Y-52128576D01*
X54521100Y-52646424D01*
X54622127Y-53154322D01*
X54820299Y-53632751D01*
X55108000Y-54063326D01*
X55474174Y-54429500D01*
X55904749Y-54717201D01*
X56383178Y-54915373D01*
X56891076Y-55016400D01*
X57408924Y-55016400D01*
X57916822Y-54915373D01*
X58395251Y-54717201D01*
X58825826Y-54429500D01*
X59192000Y-54063326D01*
X59479701Y-53632751D01*
X59677873Y-53154322D01*
X59778900Y-52646424D01*
X59778900Y-52238778D01*
X60720000Y-52238778D01*
X60720000Y-52536222D01*
X60778029Y-52827951D01*
X60891856Y-53102753D01*
X61057107Y-53350069D01*
X61267431Y-53560393D01*
X61514747Y-53725644D01*
X61789549Y-53839471D01*
X62081278Y-53897500D01*
X62378722Y-53897500D01*
X62670451Y-53839471D01*
X62945253Y-53725644D01*
X63192569Y-53560393D01*
X63402893Y-53350069D01*
X63568144Y-53102753D01*
X63681971Y-52827951D01*
X63740000Y-52536222D01*
X63740000Y-52238778D01*
X69610000Y-52238778D01*
X69610000Y-52536222D01*
X69668029Y-52827951D01*
X69781856Y-53102753D01*
X69947107Y-53350069D01*
X70157431Y-53560393D01*
X70404747Y-53725644D01*
X70679549Y-53839471D01*
X70971278Y-53897500D01*
X71268722Y-53897500D01*
X71560451Y-53839471D01*
X71835253Y-53725644D01*
X72082569Y-53560393D01*
X72292893Y-53350069D01*
X72458144Y-53102753D01*
X72571971Y-52827951D01*
X72630000Y-52536222D01*
X72630000Y-52238778D01*
X72579023Y-51982500D01*
X72600279Y-51982500D01*
X73012756Y-51900453D01*
X73401302Y-51739512D01*
X73707708Y-51534779D01*
X73672127Y-51620678D01*
X73571100Y-52128576D01*
X73571100Y-52646424D01*
X73672127Y-53154322D01*
X73870299Y-53632751D01*
X74158000Y-54063326D01*
X74524174Y-54429500D01*
X74954749Y-54717201D01*
X75433178Y-54915373D01*
X75941076Y-55016400D01*
X76458924Y-55016400D01*
X76966822Y-54915373D01*
X77445251Y-54717201D01*
X77875826Y-54429500D01*
X78242000Y-54063326D01*
X78529701Y-53632751D01*
X78727873Y-53154322D01*
X78828900Y-52646424D01*
X78828900Y-52238778D01*
X79770000Y-52238778D01*
X79770000Y-52536222D01*
X79828029Y-52827951D01*
X79941856Y-53102753D01*
X80107107Y-53350069D01*
X80317431Y-53560393D01*
X80564747Y-53725644D01*
X80839549Y-53839471D01*
X81131278Y-53897500D01*
X81428722Y-53897500D01*
X81720451Y-53839471D01*
X81995253Y-53725644D01*
X82242569Y-53560393D01*
X82452893Y-53350069D01*
X82618144Y-53102753D01*
X82731971Y-52827951D01*
X82790000Y-52536222D01*
X82790000Y-52238778D01*
X88660000Y-52238778D01*
X88660000Y-52536222D01*
X88718029Y-52827951D01*
X88831856Y-53102753D01*
X88997107Y-53350069D01*
X89207431Y-53560393D01*
X89454747Y-53725644D01*
X89729549Y-53839471D01*
X90021278Y-53897500D01*
X90318722Y-53897500D01*
X90610451Y-53839471D01*
X90885253Y-53725644D01*
X91132569Y-53560393D01*
X91342893Y-53350069D01*
X91508144Y-53102753D01*
X91621971Y-52827951D01*
X91680000Y-52536222D01*
X91680000Y-52238778D01*
X91629023Y-51982500D01*
X91650279Y-51982500D01*
X92062756Y-51900453D01*
X92451302Y-51739512D01*
X92757708Y-51534779D01*
X92722127Y-51620678D01*
X92621100Y-52128576D01*
X92621100Y-52646424D01*
X92722127Y-53154322D01*
X92920299Y-53632751D01*
X93208000Y-54063326D01*
X93574174Y-54429500D01*
X94004749Y-54717201D01*
X94483178Y-54915373D01*
X94991076Y-55016400D01*
X95508924Y-55016400D01*
X96016822Y-54915373D01*
X96495251Y-54717201D01*
X96925826Y-54429500D01*
X97292000Y-54063326D01*
X97579701Y-53632751D01*
X97777873Y-53154322D01*
X97878900Y-52646424D01*
X97878900Y-52238778D01*
X98820000Y-52238778D01*
X98820000Y-52536222D01*
X98878029Y-52827951D01*
X98991856Y-53102753D01*
X99157107Y-53350069D01*
X99367431Y-53560393D01*
X99614747Y-53725644D01*
X99889549Y-53839471D01*
X100181278Y-53897500D01*
X100478722Y-53897500D01*
X100770451Y-53839471D01*
X101045253Y-53725644D01*
X101292569Y-53560393D01*
X101502893Y-53350069D01*
X101668144Y-53102753D01*
X101781971Y-52827951D01*
X101840000Y-52536222D01*
X101840000Y-52238778D01*
X101781971Y-51947049D01*
X101668144Y-51672247D01*
X101502893Y-51424931D01*
X101292569Y-51214607D01*
X101045253Y-51049356D01*
X100770451Y-50935529D01*
X100478722Y-50877500D01*
X100181278Y-50877500D01*
X99889549Y-50935529D01*
X99614747Y-51049356D01*
X99367431Y-51214607D01*
X99157107Y-51424931D01*
X98991856Y-51672247D01*
X98878029Y-51947049D01*
X98820000Y-52238778D01*
X97878900Y-52238778D01*
X97878900Y-52128576D01*
X97777873Y-51620678D01*
X97579701Y-51142249D01*
X97292000Y-50711674D01*
X96925826Y-50345500D01*
X96495251Y-50057799D01*
X96195566Y-49933665D01*
X101752500Y-49933665D01*
X101752500Y-50216335D01*
X101807647Y-50493574D01*
X101915820Y-50754727D01*
X102072863Y-50989759D01*
X102272741Y-51189637D01*
X102507773Y-51346680D01*
X102768926Y-51454853D01*
X103046165Y-51510000D01*
X103328835Y-51510000D01*
X103606074Y-51454853D01*
X103867227Y-51346680D01*
X104102259Y-51189637D01*
X104302137Y-50989759D01*
X104459180Y-50754727D01*
X104567353Y-50493574D01*
X104622500Y-50216335D01*
X104622500Y-49933665D01*
X104567353Y-49656426D01*
X104459180Y-49395273D01*
X104302137Y-49160241D01*
X104102259Y-48960363D01*
X103867227Y-48803320D01*
X103606074Y-48695147D01*
X103328835Y-48640000D01*
X103046165Y-48640000D01*
X102768926Y-48695147D01*
X102507773Y-48803320D01*
X102272741Y-48960363D01*
X102072863Y-49160241D01*
X101915820Y-49395273D01*
X101807647Y-49656426D01*
X101752500Y-49933665D01*
X96195566Y-49933665D01*
X96016822Y-49859627D01*
X95508924Y-49758600D01*
X94991076Y-49758600D01*
X94483178Y-49859627D01*
X94004749Y-50057799D01*
X93574174Y-50345500D01*
X93503763Y-50415911D01*
X93575000Y-50057779D01*
X93575000Y-49637221D01*
X93492953Y-49224744D01*
X93332012Y-48836198D01*
X93098363Y-48486517D01*
X92800983Y-48189137D01*
X92451302Y-47955488D01*
X92062756Y-47794547D01*
X91650279Y-47712500D01*
X91229721Y-47712500D01*
X90817244Y-47794547D01*
X90428698Y-47955488D01*
X90079017Y-48189137D01*
X89781637Y-48486517D01*
X89547988Y-48836198D01*
X89387047Y-49224744D01*
X89305000Y-49637221D01*
X89305000Y-50057779D01*
X89387047Y-50470256D01*
X89547988Y-50858802D01*
X89627499Y-50977799D01*
X89454747Y-51049356D01*
X89207431Y-51214607D01*
X88997107Y-51424931D01*
X88831856Y-51672247D01*
X88718029Y-51947049D01*
X88660000Y-52238778D01*
X82790000Y-52238778D01*
X82731971Y-51947049D01*
X82618144Y-51672247D01*
X82452893Y-51424931D01*
X82242569Y-51214607D01*
X81995253Y-51049356D01*
X81720451Y-50935529D01*
X81428722Y-50877500D01*
X81131278Y-50877500D01*
X80839549Y-50935529D01*
X80564747Y-51049356D01*
X80317431Y-51214607D01*
X80107107Y-51424931D01*
X79941856Y-51672247D01*
X79828029Y-51947049D01*
X79770000Y-52238778D01*
X78828900Y-52238778D01*
X78828900Y-52128576D01*
X78727873Y-51620678D01*
X78529701Y-51142249D01*
X78242000Y-50711674D01*
X77875826Y-50345500D01*
X77445251Y-50057799D01*
X77145566Y-49933665D01*
X82702500Y-49933665D01*
X82702500Y-50216335D01*
X82757647Y-50493574D01*
X82865820Y-50754727D01*
X83022863Y-50989759D01*
X83222741Y-51189637D01*
X83457773Y-51346680D01*
X83718926Y-51454853D01*
X83996165Y-51510000D01*
X84278835Y-51510000D01*
X84556074Y-51454853D01*
X84817227Y-51346680D01*
X85052259Y-51189637D01*
X85252137Y-50989759D01*
X85409180Y-50754727D01*
X85517353Y-50493574D01*
X85572500Y-50216335D01*
X85572500Y-49933665D01*
X85517353Y-49656426D01*
X85409180Y-49395273D01*
X85252137Y-49160241D01*
X85052259Y-48960363D01*
X84817227Y-48803320D01*
X84556074Y-48695147D01*
X84278835Y-48640000D01*
X83996165Y-48640000D01*
X83718926Y-48695147D01*
X83457773Y-48803320D01*
X83222741Y-48960363D01*
X83022863Y-49160241D01*
X82865820Y-49395273D01*
X82757647Y-49656426D01*
X82702500Y-49933665D01*
X77145566Y-49933665D01*
X76966822Y-49859627D01*
X76458924Y-49758600D01*
X75941076Y-49758600D01*
X75433178Y-49859627D01*
X74954749Y-50057799D01*
X74524174Y-50345500D01*
X74453763Y-50415911D01*
X74525000Y-50057779D01*
X74525000Y-49637221D01*
X74442953Y-49224744D01*
X74282012Y-48836198D01*
X74048363Y-48486517D01*
X73750983Y-48189137D01*
X73401302Y-47955488D01*
X73012756Y-47794547D01*
X72600279Y-47712500D01*
X72179721Y-47712500D01*
X71767244Y-47794547D01*
X71378698Y-47955488D01*
X71029017Y-48189137D01*
X70731637Y-48486517D01*
X70497988Y-48836198D01*
X70337047Y-49224744D01*
X70255000Y-49637221D01*
X70255000Y-50057779D01*
X70337047Y-50470256D01*
X70497988Y-50858802D01*
X70577499Y-50977799D01*
X70404747Y-51049356D01*
X70157431Y-51214607D01*
X69947107Y-51424931D01*
X69781856Y-51672247D01*
X69668029Y-51947049D01*
X69610000Y-52238778D01*
X63740000Y-52238778D01*
X63681971Y-51947049D01*
X63568144Y-51672247D01*
X63402893Y-51424931D01*
X63192569Y-51214607D01*
X62945253Y-51049356D01*
X62670451Y-50935529D01*
X62378722Y-50877500D01*
X62081278Y-50877500D01*
X61789549Y-50935529D01*
X61514747Y-51049356D01*
X61267431Y-51214607D01*
X61057107Y-51424931D01*
X60891856Y-51672247D01*
X60778029Y-51947049D01*
X60720000Y-52238778D01*
X59778900Y-52238778D01*
X59778900Y-52128576D01*
X59677873Y-51620678D01*
X59479701Y-51142249D01*
X59192000Y-50711674D01*
X58825826Y-50345500D01*
X58395251Y-50057799D01*
X58095566Y-49933665D01*
X63589000Y-49933665D01*
X63589000Y-50216335D01*
X63644147Y-50493574D01*
X63752320Y-50754727D01*
X63909363Y-50989759D01*
X64109241Y-51189637D01*
X64344273Y-51346680D01*
X64605426Y-51454853D01*
X64882665Y-51510000D01*
X65165335Y-51510000D01*
X65442574Y-51454853D01*
X65703727Y-51346680D01*
X65938759Y-51189637D01*
X66138637Y-50989759D01*
X66295680Y-50754727D01*
X66403853Y-50493574D01*
X66459000Y-50216335D01*
X66459000Y-49933665D01*
X66403853Y-49656426D01*
X66295680Y-49395273D01*
X66138637Y-49160241D01*
X65938759Y-48960363D01*
X65703727Y-48803320D01*
X65442574Y-48695147D01*
X65165335Y-48640000D01*
X64882665Y-48640000D01*
X64605426Y-48695147D01*
X64344273Y-48803320D01*
X64109241Y-48960363D01*
X63909363Y-49160241D01*
X63752320Y-49395273D01*
X63644147Y-49656426D01*
X63589000Y-49933665D01*
X58095566Y-49933665D01*
X57916822Y-49859627D01*
X57408924Y-49758600D01*
X56891076Y-49758600D01*
X56383178Y-49859627D01*
X55904749Y-50057799D01*
X55474174Y-50345500D01*
X55403763Y-50415911D01*
X55475000Y-50057779D01*
X55475000Y-49637221D01*
X55392953Y-49224744D01*
X55232012Y-48836198D01*
X54998363Y-48486517D01*
X54700983Y-48189137D01*
X54351302Y-47955488D01*
X53962756Y-47794547D01*
X53550279Y-47712500D01*
X53129721Y-47712500D01*
X52717244Y-47794547D01*
X52328698Y-47955488D01*
X51979017Y-48189137D01*
X51681637Y-48486517D01*
X51447988Y-48836198D01*
X51287047Y-49224744D01*
X51205000Y-49637221D01*
X51205000Y-50057779D01*
X51287047Y-50470256D01*
X51447988Y-50858802D01*
X51527499Y-50977799D01*
X51354747Y-51049356D01*
X51107431Y-51214607D01*
X50897107Y-51424931D01*
X50731856Y-51672247D01*
X50618029Y-51947049D01*
X50560000Y-52238778D01*
X46697500Y-52238778D01*
X46697500Y-47097221D01*
X57555000Y-47097221D01*
X57555000Y-47517779D01*
X57637047Y-47930256D01*
X57797988Y-48318802D01*
X58031637Y-48668483D01*
X58329017Y-48965863D01*
X58678698Y-49199512D01*
X59067244Y-49360453D01*
X59479721Y-49442500D01*
X59900279Y-49442500D01*
X60312756Y-49360453D01*
X60701302Y-49199512D01*
X61050983Y-48965863D01*
X61348363Y-48668483D01*
X61582012Y-48318802D01*
X61742953Y-47930256D01*
X61825000Y-47517779D01*
X61825000Y-47097221D01*
X76605000Y-47097221D01*
X76605000Y-47517779D01*
X76687047Y-47930256D01*
X76847988Y-48318802D01*
X77081637Y-48668483D01*
X77379017Y-48965863D01*
X77728698Y-49199512D01*
X78117244Y-49360453D01*
X78529721Y-49442500D01*
X78950279Y-49442500D01*
X79362756Y-49360453D01*
X79751302Y-49199512D01*
X80100983Y-48965863D01*
X80398363Y-48668483D01*
X80632012Y-48318802D01*
X80792953Y-47930256D01*
X80875000Y-47517779D01*
X80875000Y-47097221D01*
X95655000Y-47097221D01*
X95655000Y-47517779D01*
X95737047Y-47930256D01*
X95897988Y-48318802D01*
X96131637Y-48668483D01*
X96429017Y-48965863D01*
X96778698Y-49199512D01*
X97167244Y-49360453D01*
X97579721Y-49442500D01*
X98000279Y-49442500D01*
X98412756Y-49360453D01*
X98801302Y-49199512D01*
X99150983Y-48965863D01*
X99448363Y-48668483D01*
X99682012Y-48318802D01*
X99842953Y-47930256D01*
X99925000Y-47517779D01*
X99925000Y-47097221D01*
X99842953Y-46684744D01*
X99682012Y-46296198D01*
X99448363Y-45946517D01*
X99150983Y-45649137D01*
X98801302Y-45415488D01*
X98412756Y-45254547D01*
X98000279Y-45172500D01*
X97579721Y-45172500D01*
X97167244Y-45254547D01*
X96778698Y-45415488D01*
X96429017Y-45649137D01*
X96131637Y-45946517D01*
X95897988Y-46296198D01*
X95737047Y-46684744D01*
X95655000Y-47097221D01*
X80875000Y-47097221D01*
X80792953Y-46684744D01*
X80632012Y-46296198D01*
X80398363Y-45946517D01*
X80100983Y-45649137D01*
X79751302Y-45415488D01*
X79362756Y-45254547D01*
X78950279Y-45172500D01*
X78529721Y-45172500D01*
X78117244Y-45254547D01*
X77728698Y-45415488D01*
X77379017Y-45649137D01*
X77081637Y-45946517D01*
X76847988Y-46296198D01*
X76687047Y-46684744D01*
X76605000Y-47097221D01*
X61825000Y-47097221D01*
X61742953Y-46684744D01*
X61582012Y-46296198D01*
X61348363Y-45946517D01*
X61050983Y-45649137D01*
X60701302Y-45415488D01*
X60312756Y-45254547D01*
X59900279Y-45172500D01*
X59479721Y-45172500D01*
X59067244Y-45254547D01*
X58678698Y-45415488D01*
X58329017Y-45649137D01*
X58031637Y-45946517D01*
X57797988Y-46296198D01*
X57637047Y-46684744D01*
X57555000Y-47097221D01*
X46697500Y-47097221D01*
X46697500Y-38025000D01*
X63585928Y-38025000D01*
X63585928Y-39625000D01*
X63598188Y-39749482D01*
X63634498Y-39869180D01*
X63693463Y-39979494D01*
X63772815Y-40076185D01*
X63869506Y-40155537D01*
X63979820Y-40214502D01*
X64099518Y-40250812D01*
X64224000Y-40263072D01*
X65824000Y-40263072D01*
X65948482Y-40250812D01*
X66068180Y-40214502D01*
X66178494Y-40155537D01*
X66275185Y-40076185D01*
X66354537Y-39979494D01*
X66413502Y-39869180D01*
X66449812Y-39749482D01*
X66462072Y-39625000D01*
X66462072Y-38025000D01*
X66449812Y-37900518D01*
X66413502Y-37780820D01*
X66354537Y-37670506D01*
X66275185Y-37573815D01*
X66178494Y-37494463D01*
X66068180Y-37435498D01*
X65948482Y-37399188D01*
X65824000Y-37386928D01*
X64224000Y-37386928D01*
X64099518Y-37399188D01*
X63979820Y-37435498D01*
X63869506Y-37494463D01*
X63772815Y-37573815D01*
X63693463Y-37670506D01*
X63634498Y-37780820D01*
X63598188Y-37900518D01*
X63585928Y-38025000D01*
X46697500Y-38025000D01*
X46697500Y-36093061D01*
X68053000Y-36093061D01*
X68053000Y-36296939D01*
X68092774Y-36496898D01*
X68170795Y-36685256D01*
X68284063Y-36854774D01*
X68326000Y-36896711D01*
X68326001Y-44256288D01*
X68284063Y-44298226D01*
X68170795Y-44467744D01*
X68092774Y-44656102D01*
X68053000Y-44856061D01*
X68053000Y-45059939D01*
X68092774Y-45259898D01*
X68170795Y-45448256D01*
X68284063Y-45617774D01*
X68428226Y-45761937D01*
X68597744Y-45875205D01*
X68786102Y-45953226D01*
X68986061Y-45993000D01*
X69189939Y-45993000D01*
X69389898Y-45953226D01*
X69578256Y-45875205D01*
X69747774Y-45761937D01*
X69891937Y-45617774D01*
X70005205Y-45448256D01*
X70083226Y-45259898D01*
X70123000Y-45059939D01*
X70123000Y-44856061D01*
X70083226Y-44656102D01*
X70005205Y-44467744D01*
X69891937Y-44298226D01*
X69850000Y-44256289D01*
X69850000Y-38025000D01*
X82699428Y-38025000D01*
X82699428Y-39625000D01*
X82711688Y-39749482D01*
X82747998Y-39869180D01*
X82806963Y-39979494D01*
X82886315Y-40076185D01*
X82983006Y-40155537D01*
X83093320Y-40214502D01*
X83213018Y-40250812D01*
X83337500Y-40263072D01*
X84937500Y-40263072D01*
X85061982Y-40250812D01*
X85181680Y-40214502D01*
X85291994Y-40155537D01*
X85388685Y-40076185D01*
X85468037Y-39979494D01*
X85527002Y-39869180D01*
X85563312Y-39749482D01*
X85575572Y-39625000D01*
X85575572Y-38025000D01*
X85563312Y-37900518D01*
X85527002Y-37780820D01*
X85468037Y-37670506D01*
X85388685Y-37573815D01*
X85291994Y-37494463D01*
X85181680Y-37435498D01*
X85061982Y-37399188D01*
X84937500Y-37386928D01*
X83337500Y-37386928D01*
X83213018Y-37399188D01*
X83093320Y-37435498D01*
X82983006Y-37494463D01*
X82886315Y-37573815D01*
X82806963Y-37670506D01*
X82747998Y-37780820D01*
X82711688Y-37900518D01*
X82699428Y-38025000D01*
X69850000Y-38025000D01*
X69850000Y-36896711D01*
X69891937Y-36854774D01*
X70005205Y-36685256D01*
X70083226Y-36496898D01*
X70123000Y-36296939D01*
X70123000Y-36093061D01*
X87103000Y-36093061D01*
X87103000Y-36296939D01*
X87142774Y-36496898D01*
X87220795Y-36685256D01*
X87334063Y-36854774D01*
X87376000Y-36896711D01*
X87376001Y-44383288D01*
X87334063Y-44425226D01*
X87220795Y-44594744D01*
X87142774Y-44783102D01*
X87103000Y-44983061D01*
X87103000Y-45186939D01*
X87142774Y-45386898D01*
X87220795Y-45575256D01*
X87334063Y-45744774D01*
X87478226Y-45888937D01*
X87647744Y-46002205D01*
X87836102Y-46080226D01*
X88036061Y-46120000D01*
X88239939Y-46120000D01*
X88439898Y-46080226D01*
X88628256Y-46002205D01*
X88797774Y-45888937D01*
X88941937Y-45744774D01*
X89055205Y-45575256D01*
X89133226Y-45386898D01*
X89173000Y-45186939D01*
X89173000Y-44983061D01*
X89133226Y-44783102D01*
X89055205Y-44594744D01*
X88941937Y-44425226D01*
X88900000Y-44383289D01*
X88900000Y-38025000D01*
X101749428Y-38025000D01*
X101749428Y-39625000D01*
X101761688Y-39749482D01*
X101797998Y-39869180D01*
X101856963Y-39979494D01*
X101936315Y-40076185D01*
X102033006Y-40155537D01*
X102143320Y-40214502D01*
X102263018Y-40250812D01*
X102387500Y-40263072D01*
X103987500Y-40263072D01*
X104111982Y-40250812D01*
X104231680Y-40214502D01*
X104341994Y-40155537D01*
X104438685Y-40076185D01*
X104518037Y-39979494D01*
X104577002Y-39869180D01*
X104613312Y-39749482D01*
X104625572Y-39625000D01*
X104625572Y-38025000D01*
X104613312Y-37900518D01*
X104577002Y-37780820D01*
X104518037Y-37670506D01*
X104438685Y-37573815D01*
X104341994Y-37494463D01*
X104231680Y-37435498D01*
X104111982Y-37399188D01*
X103987500Y-37386928D01*
X102387500Y-37386928D01*
X102263018Y-37399188D01*
X102143320Y-37435498D01*
X102033006Y-37494463D01*
X101936315Y-37573815D01*
X101856963Y-37670506D01*
X101797998Y-37780820D01*
X101761688Y-37900518D01*
X101749428Y-38025000D01*
X88900000Y-38025000D01*
X88900000Y-36896711D01*
X88941937Y-36854774D01*
X89055205Y-36685256D01*
X89133226Y-36496898D01*
X89173000Y-36296939D01*
X89173000Y-36093061D01*
X89133226Y-35893102D01*
X89055205Y-35704744D01*
X88941937Y-35535226D01*
X88797774Y-35391063D01*
X88628256Y-35277795D01*
X88439898Y-35199774D01*
X88239939Y-35160000D01*
X88036061Y-35160000D01*
X87836102Y-35199774D01*
X87647744Y-35277795D01*
X87478226Y-35391063D01*
X87334063Y-35535226D01*
X87220795Y-35704744D01*
X87142774Y-35893102D01*
X87103000Y-36093061D01*
X70123000Y-36093061D01*
X70083226Y-35893102D01*
X70005205Y-35704744D01*
X69891937Y-35535226D01*
X69747774Y-35391063D01*
X69578256Y-35277795D01*
X69389898Y-35199774D01*
X69189939Y-35160000D01*
X68986061Y-35160000D01*
X68786102Y-35199774D01*
X68597744Y-35277795D01*
X68428226Y-35391063D01*
X68284063Y-35535226D01*
X68170795Y-35704744D01*
X68092774Y-35893102D01*
X68053000Y-36093061D01*
X46697500Y-36093061D01*
X46697500Y-33188778D01*
X50560000Y-33188778D01*
X50560000Y-33486222D01*
X50618029Y-33777951D01*
X50731856Y-34052753D01*
X50897107Y-34300069D01*
X51107431Y-34510393D01*
X51354747Y-34675644D01*
X51629549Y-34789471D01*
X51921278Y-34847500D01*
X52218722Y-34847500D01*
X52510451Y-34789471D01*
X52785253Y-34675644D01*
X53032569Y-34510393D01*
X53242893Y-34300069D01*
X53408144Y-34052753D01*
X53521971Y-33777951D01*
X53580000Y-33486222D01*
X53580000Y-33188778D01*
X53529023Y-32932500D01*
X53550279Y-32932500D01*
X53962756Y-32850453D01*
X54351302Y-32689512D01*
X54657708Y-32484779D01*
X54622127Y-32570678D01*
X54521100Y-33078576D01*
X54521100Y-33596424D01*
X54622127Y-34104322D01*
X54820299Y-34582751D01*
X55108000Y-35013326D01*
X55474174Y-35379500D01*
X55904749Y-35667201D01*
X56383178Y-35865373D01*
X56891076Y-35966400D01*
X57408924Y-35966400D01*
X57916822Y-35865373D01*
X58395251Y-35667201D01*
X58825826Y-35379500D01*
X59192000Y-35013326D01*
X59479701Y-34582751D01*
X59677873Y-34104322D01*
X59778900Y-33596424D01*
X59778900Y-33188778D01*
X60720000Y-33188778D01*
X60720000Y-33486222D01*
X60778029Y-33777951D01*
X60891856Y-34052753D01*
X61057107Y-34300069D01*
X61267431Y-34510393D01*
X61514747Y-34675644D01*
X61789549Y-34789471D01*
X62081278Y-34847500D01*
X62378722Y-34847500D01*
X62670451Y-34789471D01*
X62945253Y-34675644D01*
X63192569Y-34510393D01*
X63402893Y-34300069D01*
X63568144Y-34052753D01*
X63681971Y-33777951D01*
X63740000Y-33486222D01*
X63740000Y-33188778D01*
X69610000Y-33188778D01*
X69610000Y-33486222D01*
X69668029Y-33777951D01*
X69781856Y-34052753D01*
X69947107Y-34300069D01*
X70157431Y-34510393D01*
X70404747Y-34675644D01*
X70679549Y-34789471D01*
X70971278Y-34847500D01*
X71268722Y-34847500D01*
X71560451Y-34789471D01*
X71835253Y-34675644D01*
X72082569Y-34510393D01*
X72292893Y-34300069D01*
X72458144Y-34052753D01*
X72571971Y-33777951D01*
X72630000Y-33486222D01*
X72630000Y-33188778D01*
X72579023Y-32932500D01*
X72600279Y-32932500D01*
X73012756Y-32850453D01*
X73401302Y-32689512D01*
X73707708Y-32484779D01*
X73672127Y-32570678D01*
X73571100Y-33078576D01*
X73571100Y-33596424D01*
X73672127Y-34104322D01*
X73870299Y-34582751D01*
X74158000Y-35013326D01*
X74524174Y-35379500D01*
X74954749Y-35667201D01*
X75433178Y-35865373D01*
X75941076Y-35966400D01*
X76458924Y-35966400D01*
X76966822Y-35865373D01*
X77445251Y-35667201D01*
X77875826Y-35379500D01*
X78242000Y-35013326D01*
X78529701Y-34582751D01*
X78727873Y-34104322D01*
X78828900Y-33596424D01*
X78828900Y-33188778D01*
X79770000Y-33188778D01*
X79770000Y-33486222D01*
X79828029Y-33777951D01*
X79941856Y-34052753D01*
X80107107Y-34300069D01*
X80317431Y-34510393D01*
X80564747Y-34675644D01*
X80839549Y-34789471D01*
X81131278Y-34847500D01*
X81428722Y-34847500D01*
X81720451Y-34789471D01*
X81995253Y-34675644D01*
X82242569Y-34510393D01*
X82452893Y-34300069D01*
X82618144Y-34052753D01*
X82731971Y-33777951D01*
X82790000Y-33486222D01*
X82790000Y-33188778D01*
X88660000Y-33188778D01*
X88660000Y-33486222D01*
X88718029Y-33777951D01*
X88831856Y-34052753D01*
X88997107Y-34300069D01*
X89207431Y-34510393D01*
X89454747Y-34675644D01*
X89729549Y-34789471D01*
X90021278Y-34847500D01*
X90318722Y-34847500D01*
X90610451Y-34789471D01*
X90885253Y-34675644D01*
X91132569Y-34510393D01*
X91342893Y-34300069D01*
X91508144Y-34052753D01*
X91621971Y-33777951D01*
X91680000Y-33486222D01*
X91680000Y-33188778D01*
X91629023Y-32932500D01*
X91650279Y-32932500D01*
X92062756Y-32850453D01*
X92451302Y-32689512D01*
X92757708Y-32484779D01*
X92722127Y-32570678D01*
X92621100Y-33078576D01*
X92621100Y-33596424D01*
X92722127Y-34104322D01*
X92920299Y-34582751D01*
X93208000Y-35013326D01*
X93574174Y-35379500D01*
X94004749Y-35667201D01*
X94483178Y-35865373D01*
X94991076Y-35966400D01*
X95508924Y-35966400D01*
X96016822Y-35865373D01*
X96495251Y-35667201D01*
X96925826Y-35379500D01*
X97292000Y-35013326D01*
X97579701Y-34582751D01*
X97777873Y-34104322D01*
X97878900Y-33596424D01*
X97878900Y-33188778D01*
X98820000Y-33188778D01*
X98820000Y-33486222D01*
X98878029Y-33777951D01*
X98991856Y-34052753D01*
X99157107Y-34300069D01*
X99367431Y-34510393D01*
X99614747Y-34675644D01*
X99889549Y-34789471D01*
X100181278Y-34847500D01*
X100478722Y-34847500D01*
X100770451Y-34789471D01*
X101045253Y-34675644D01*
X101292569Y-34510393D01*
X101502893Y-34300069D01*
X101668144Y-34052753D01*
X101781971Y-33777951D01*
X101840000Y-33486222D01*
X101840000Y-33188778D01*
X101781971Y-32897049D01*
X101668144Y-32622247D01*
X101502893Y-32374931D01*
X101292569Y-32164607D01*
X101045253Y-31999356D01*
X100770451Y-31885529D01*
X100478722Y-31827500D01*
X100181278Y-31827500D01*
X99889549Y-31885529D01*
X99614747Y-31999356D01*
X99367431Y-32164607D01*
X99157107Y-32374931D01*
X98991856Y-32622247D01*
X98878029Y-32897049D01*
X98820000Y-33188778D01*
X97878900Y-33188778D01*
X97878900Y-33078576D01*
X97777873Y-32570678D01*
X97579701Y-32092249D01*
X97292000Y-31661674D01*
X96925826Y-31295500D01*
X96495251Y-31007799D01*
X96195566Y-30883665D01*
X101752500Y-30883665D01*
X101752500Y-31166335D01*
X101807647Y-31443574D01*
X101915820Y-31704727D01*
X102072863Y-31939759D01*
X102272741Y-32139637D01*
X102507773Y-32296680D01*
X102768926Y-32404853D01*
X103046165Y-32460000D01*
X103328835Y-32460000D01*
X103606074Y-32404853D01*
X103867227Y-32296680D01*
X104102259Y-32139637D01*
X104302137Y-31939759D01*
X104459180Y-31704727D01*
X104567353Y-31443574D01*
X104622500Y-31166335D01*
X104622500Y-30883665D01*
X104567353Y-30606426D01*
X104459180Y-30345273D01*
X104302137Y-30110241D01*
X104102259Y-29910363D01*
X103867227Y-29753320D01*
X103606074Y-29645147D01*
X103328835Y-29590000D01*
X103046165Y-29590000D01*
X102768926Y-29645147D01*
X102507773Y-29753320D01*
X102272741Y-29910363D01*
X102072863Y-30110241D01*
X101915820Y-30345273D01*
X101807647Y-30606426D01*
X101752500Y-30883665D01*
X96195566Y-30883665D01*
X96016822Y-30809627D01*
X95508924Y-30708600D01*
X94991076Y-30708600D01*
X94483178Y-30809627D01*
X94004749Y-31007799D01*
X93574174Y-31295500D01*
X93503763Y-31365911D01*
X93575000Y-31007779D01*
X93575000Y-30587221D01*
X93492953Y-30174744D01*
X93332012Y-29786198D01*
X93098363Y-29436517D01*
X92800983Y-29139137D01*
X92451302Y-28905488D01*
X92062756Y-28744547D01*
X91650279Y-28662500D01*
X91229721Y-28662500D01*
X90817244Y-28744547D01*
X90428698Y-28905488D01*
X90079017Y-29139137D01*
X89781637Y-29436517D01*
X89547988Y-29786198D01*
X89387047Y-30174744D01*
X89305000Y-30587221D01*
X89305000Y-31007779D01*
X89387047Y-31420256D01*
X89547988Y-31808802D01*
X89627499Y-31927799D01*
X89454747Y-31999356D01*
X89207431Y-32164607D01*
X88997107Y-32374931D01*
X88831856Y-32622247D01*
X88718029Y-32897049D01*
X88660000Y-33188778D01*
X82790000Y-33188778D01*
X82731971Y-32897049D01*
X82618144Y-32622247D01*
X82452893Y-32374931D01*
X82242569Y-32164607D01*
X81995253Y-31999356D01*
X81720451Y-31885529D01*
X81428722Y-31827500D01*
X81131278Y-31827500D01*
X80839549Y-31885529D01*
X80564747Y-31999356D01*
X80317431Y-32164607D01*
X80107107Y-32374931D01*
X79941856Y-32622247D01*
X79828029Y-32897049D01*
X79770000Y-33188778D01*
X78828900Y-33188778D01*
X78828900Y-33078576D01*
X78727873Y-32570678D01*
X78529701Y-32092249D01*
X78242000Y-31661674D01*
X77875826Y-31295500D01*
X77445251Y-31007799D01*
X77145566Y-30883665D01*
X82702500Y-30883665D01*
X82702500Y-31166335D01*
X82757647Y-31443574D01*
X82865820Y-31704727D01*
X83022863Y-31939759D01*
X83222741Y-32139637D01*
X83457773Y-32296680D01*
X83718926Y-32404853D01*
X83996165Y-32460000D01*
X84278835Y-32460000D01*
X84556074Y-32404853D01*
X84817227Y-32296680D01*
X85052259Y-32139637D01*
X85252137Y-31939759D01*
X85409180Y-31704727D01*
X85517353Y-31443574D01*
X85572500Y-31166335D01*
X85572500Y-30883665D01*
X85517353Y-30606426D01*
X85409180Y-30345273D01*
X85252137Y-30110241D01*
X85052259Y-29910363D01*
X84817227Y-29753320D01*
X84556074Y-29645147D01*
X84278835Y-29590000D01*
X83996165Y-29590000D01*
X83718926Y-29645147D01*
X83457773Y-29753320D01*
X83222741Y-29910363D01*
X83022863Y-30110241D01*
X82865820Y-30345273D01*
X82757647Y-30606426D01*
X82702500Y-30883665D01*
X77145566Y-30883665D01*
X76966822Y-30809627D01*
X76458924Y-30708600D01*
X75941076Y-30708600D01*
X75433178Y-30809627D01*
X74954749Y-31007799D01*
X74524174Y-31295500D01*
X74453763Y-31365911D01*
X74525000Y-31007779D01*
X74525000Y-30587221D01*
X74442953Y-30174744D01*
X74282012Y-29786198D01*
X74048363Y-29436517D01*
X73750983Y-29139137D01*
X73401302Y-28905488D01*
X73012756Y-28744547D01*
X72600279Y-28662500D01*
X72179721Y-28662500D01*
X71767244Y-28744547D01*
X71378698Y-28905488D01*
X71029017Y-29139137D01*
X70731637Y-29436517D01*
X70497988Y-29786198D01*
X70337047Y-30174744D01*
X70255000Y-30587221D01*
X70255000Y-31007779D01*
X70337047Y-31420256D01*
X70497988Y-31808802D01*
X70577499Y-31927799D01*
X70404747Y-31999356D01*
X70157431Y-32164607D01*
X69947107Y-32374931D01*
X69781856Y-32622247D01*
X69668029Y-32897049D01*
X69610000Y-33188778D01*
X63740000Y-33188778D01*
X63681971Y-32897049D01*
X63568144Y-32622247D01*
X63402893Y-32374931D01*
X63192569Y-32164607D01*
X62945253Y-31999356D01*
X62670451Y-31885529D01*
X62378722Y-31827500D01*
X62081278Y-31827500D01*
X61789549Y-31885529D01*
X61514747Y-31999356D01*
X61267431Y-32164607D01*
X61057107Y-32374931D01*
X60891856Y-32622247D01*
X60778029Y-32897049D01*
X60720000Y-33188778D01*
X59778900Y-33188778D01*
X59778900Y-33078576D01*
X59677873Y-32570678D01*
X59479701Y-32092249D01*
X59192000Y-31661674D01*
X58825826Y-31295500D01*
X58395251Y-31007799D01*
X58095566Y-30883665D01*
X63589000Y-30883665D01*
X63589000Y-31166335D01*
X63644147Y-31443574D01*
X63752320Y-31704727D01*
X63909363Y-31939759D01*
X64109241Y-32139637D01*
X64344273Y-32296680D01*
X64605426Y-32404853D01*
X64882665Y-32460000D01*
X65165335Y-32460000D01*
X65442574Y-32404853D01*
X65703727Y-32296680D01*
X65938759Y-32139637D01*
X66138637Y-31939759D01*
X66295680Y-31704727D01*
X66403853Y-31443574D01*
X66459000Y-31166335D01*
X66459000Y-30883665D01*
X66403853Y-30606426D01*
X66295680Y-30345273D01*
X66138637Y-30110241D01*
X65938759Y-29910363D01*
X65703727Y-29753320D01*
X65442574Y-29645147D01*
X65165335Y-29590000D01*
X64882665Y-29590000D01*
X64605426Y-29645147D01*
X64344273Y-29753320D01*
X64109241Y-29910363D01*
X63909363Y-30110241D01*
X63752320Y-30345273D01*
X63644147Y-30606426D01*
X63589000Y-30883665D01*
X58095566Y-30883665D01*
X57916822Y-30809627D01*
X57408924Y-30708600D01*
X56891076Y-30708600D01*
X56383178Y-30809627D01*
X55904749Y-31007799D01*
X55474174Y-31295500D01*
X55403763Y-31365911D01*
X55475000Y-31007779D01*
X55475000Y-30587221D01*
X55392953Y-30174744D01*
X55232012Y-29786198D01*
X54998363Y-29436517D01*
X54700983Y-29139137D01*
X54351302Y-28905488D01*
X53962756Y-28744547D01*
X53550279Y-28662500D01*
X53129721Y-28662500D01*
X52717244Y-28744547D01*
X52328698Y-28905488D01*
X51979017Y-29139137D01*
X51681637Y-29436517D01*
X51447988Y-29786198D01*
X51287047Y-30174744D01*
X51205000Y-30587221D01*
X51205000Y-31007779D01*
X51287047Y-31420256D01*
X51447988Y-31808802D01*
X51527499Y-31927799D01*
X51354747Y-31999356D01*
X51107431Y-32164607D01*
X50897107Y-32374931D01*
X50731856Y-32622247D01*
X50618029Y-32897049D01*
X50560000Y-33188778D01*
X46697500Y-33188778D01*
X46697500Y-28047221D01*
X57555000Y-28047221D01*
X57555000Y-28467779D01*
X57637047Y-28880256D01*
X57797988Y-29268802D01*
X58031637Y-29618483D01*
X58329017Y-29915863D01*
X58678698Y-30149512D01*
X59067244Y-30310453D01*
X59479721Y-30392500D01*
X59900279Y-30392500D01*
X60312756Y-30310453D01*
X60701302Y-30149512D01*
X61050983Y-29915863D01*
X61348363Y-29618483D01*
X61582012Y-29268802D01*
X61742953Y-28880256D01*
X61825000Y-28467779D01*
X61825000Y-28047221D01*
X76605000Y-28047221D01*
X76605000Y-28467779D01*
X76687047Y-28880256D01*
X76847988Y-29268802D01*
X77081637Y-29618483D01*
X77379017Y-29915863D01*
X77728698Y-30149512D01*
X78117244Y-30310453D01*
X78529721Y-30392500D01*
X78950279Y-30392500D01*
X79362756Y-30310453D01*
X79751302Y-30149512D01*
X80100983Y-29915863D01*
X80398363Y-29618483D01*
X80632012Y-29268802D01*
X80792953Y-28880256D01*
X80875000Y-28467779D01*
X80875000Y-28047221D01*
X95655000Y-28047221D01*
X95655000Y-28467779D01*
X95737047Y-28880256D01*
X95897988Y-29268802D01*
X96131637Y-29618483D01*
X96429017Y-29915863D01*
X96778698Y-30149512D01*
X97167244Y-30310453D01*
X97579721Y-30392500D01*
X98000279Y-30392500D01*
X98412756Y-30310453D01*
X98801302Y-30149512D01*
X99150983Y-29915863D01*
X99448363Y-29618483D01*
X99682012Y-29268802D01*
X99842953Y-28880256D01*
X99925000Y-28467779D01*
X99925000Y-28047221D01*
X99842953Y-27634744D01*
X99682012Y-27246198D01*
X99448363Y-26896517D01*
X99150983Y-26599137D01*
X98801302Y-26365488D01*
X98412756Y-26204547D01*
X98000279Y-26122500D01*
X97579721Y-26122500D01*
X97167244Y-26204547D01*
X96778698Y-26365488D01*
X96429017Y-26599137D01*
X96131637Y-26896517D01*
X95897988Y-27246198D01*
X95737047Y-27634744D01*
X95655000Y-28047221D01*
X80875000Y-28047221D01*
X80792953Y-27634744D01*
X80632012Y-27246198D01*
X80398363Y-26896517D01*
X80100983Y-26599137D01*
X79751302Y-26365488D01*
X79362756Y-26204547D01*
X78950279Y-26122500D01*
X78529721Y-26122500D01*
X78117244Y-26204547D01*
X77728698Y-26365488D01*
X77379017Y-26599137D01*
X77081637Y-26896517D01*
X76847988Y-27246198D01*
X76687047Y-27634744D01*
X76605000Y-28047221D01*
X61825000Y-28047221D01*
X61742953Y-27634744D01*
X61582012Y-27246198D01*
X61348363Y-26896517D01*
X61050983Y-26599137D01*
X60701302Y-26365488D01*
X60312756Y-26204547D01*
X59900279Y-26122500D01*
X59479721Y-26122500D01*
X59067244Y-26204547D01*
X58678698Y-26365488D01*
X58329017Y-26599137D01*
X58031637Y-26896517D01*
X57797988Y-27246198D01*
X57637047Y-27634744D01*
X57555000Y-28047221D01*
X46697500Y-28047221D01*
X46697500Y-23844779D01*
X46718269Y-23632962D01*
X46770410Y-23460263D01*
X46855102Y-23300982D01*
X46969119Y-23161181D01*
X47108117Y-23046192D01*
X47266805Y-22960390D01*
X47439135Y-22907045D01*
X47648880Y-22885000D01*
X104742721Y-22885000D01*
X104954538Y-22905769D01*
%TA.AperFunction,Conductor*%
D19*
G36*
X104954538Y-22905769D02*
G01*
X105127237Y-22957910D01*
X105286518Y-23042602D01*
X105426319Y-23156619D01*
X105541308Y-23295617D01*
X105627110Y-23454305D01*
X105680455Y-23626635D01*
X105702500Y-23836380D01*
X105702501Y-87280210D01*
X105681731Y-87492038D01*
X105629591Y-87664736D01*
X105544899Y-87824018D01*
X105430878Y-87963821D01*
X105291885Y-88078806D01*
X105133195Y-88164610D01*
X104960865Y-88217955D01*
X104751119Y-88240000D01*
X103880000Y-88240000D01*
X103880000Y-88014500D01*
X102872000Y-88014500D01*
X102872000Y-88034500D01*
X102618000Y-88034500D01*
X102618000Y-88014500D01*
X101610000Y-88014500D01*
X101610000Y-88240000D01*
X95240000Y-88240000D01*
X95240000Y-88014500D01*
X94232000Y-88014500D01*
X94232000Y-88034500D01*
X93978000Y-88034500D01*
X93978000Y-88014500D01*
X92970000Y-88014500D01*
X92970000Y-88240000D01*
X47657280Y-88240000D01*
X47445462Y-88219231D01*
X47272764Y-88167091D01*
X47113482Y-88082399D01*
X46973679Y-87968378D01*
X46858694Y-87829385D01*
X46772890Y-87670695D01*
X46719545Y-87498365D01*
X46715566Y-87460500D01*
X92970000Y-87460500D01*
X92970000Y-87760500D01*
X93978000Y-87760500D01*
X93978000Y-86619546D01*
X94232000Y-86619546D01*
X94232000Y-87760500D01*
X95240000Y-87760500D01*
X95240000Y-87460500D01*
X101610000Y-87460500D01*
X101610000Y-87760500D01*
X102618000Y-87760500D01*
X102618000Y-86619546D01*
X102872000Y-86619546D01*
X102872000Y-87760500D01*
X103880000Y-87760500D01*
X103880000Y-87460500D01*
X103833415Y-87241513D01*
X103745003Y-87035822D01*
X103618161Y-86851331D01*
X103457764Y-86695131D01*
X103269976Y-86573224D01*
X103046874Y-86493381D01*
X102872000Y-86619546D01*
X102618000Y-86619546D01*
X102443126Y-86493381D01*
X102220024Y-86573224D01*
X102032236Y-86695131D01*
X101871839Y-86851331D01*
X101744997Y-87035822D01*
X101656585Y-87241513D01*
X101610000Y-87460500D01*
X95240000Y-87460500D01*
X95193415Y-87241513D01*
X95105003Y-87035822D01*
X94978161Y-86851331D01*
X94817764Y-86695131D01*
X94629976Y-86573224D01*
X94406874Y-86493381D01*
X94232000Y-86619546D01*
X93978000Y-86619546D01*
X93803126Y-86493381D01*
X93580024Y-86573224D01*
X93392236Y-86695131D01*
X93231839Y-86851331D01*
X93104997Y-87035822D01*
X93016585Y-87241513D01*
X92970000Y-87460500D01*
X46715566Y-87460500D01*
X46697500Y-87288619D01*
X46697500Y-84607061D01*
X78594000Y-84607061D01*
X78594000Y-84810939D01*
X78633774Y-85010898D01*
X78711795Y-85199256D01*
X78825063Y-85368774D01*
X78969226Y-85512937D01*
X79138744Y-85626205D01*
X79327102Y-85704226D01*
X79527061Y-85744000D01*
X79730939Y-85744000D01*
X79930898Y-85704226D01*
X80119256Y-85626205D01*
X80288774Y-85512937D01*
X80432937Y-85368774D01*
X80546205Y-85199256D01*
X80624226Y-85010898D01*
X80664000Y-84810939D01*
X80664000Y-84754258D01*
X80678422Y-84742422D01*
X80773645Y-84626392D01*
X80844402Y-84494015D01*
X80887974Y-84350378D01*
X80899000Y-84238426D01*
X80899000Y-84238417D01*
X80902685Y-84201001D01*
X80899000Y-84163585D01*
X80899000Y-83834500D01*
X92970000Y-83834500D01*
X92970000Y-84384500D01*
X93016585Y-84603487D01*
X93104997Y-84809178D01*
X93231839Y-84993669D01*
X93392236Y-85149869D01*
X93580024Y-85271776D01*
X93803126Y-85351619D01*
X93978000Y-85225454D01*
X93978000Y-83834500D01*
X92970000Y-83834500D01*
X80899000Y-83834500D01*
X80899000Y-83030500D01*
X92970000Y-83030500D01*
X92970000Y-83580500D01*
X93978000Y-83580500D01*
X93978000Y-82189546D01*
X94232000Y-82189546D01*
X94232000Y-83580500D01*
X94252000Y-83580500D01*
X94252000Y-83834500D01*
X94232000Y-83834500D01*
X94232000Y-85225454D01*
X94406874Y-85351619D01*
X94629976Y-85271776D01*
X94817764Y-85149869D01*
X94962116Y-85009294D01*
X95080269Y-85088241D01*
X95254978Y-85160608D01*
X95440448Y-85197500D01*
X95629552Y-85197500D01*
X95815022Y-85160608D01*
X95989731Y-85088241D01*
X96146964Y-84983181D01*
X96280681Y-84849464D01*
X96385741Y-84692231D01*
X96458108Y-84517522D01*
X96495000Y-84332052D01*
X96495000Y-84142948D01*
X100355000Y-84142948D01*
X100355000Y-84332052D01*
X100391892Y-84517522D01*
X100464259Y-84692231D01*
X100569319Y-84849464D01*
X100703036Y-84983181D01*
X100860269Y-85088241D01*
X101034978Y-85160608D01*
X101220448Y-85197500D01*
X101409552Y-85197500D01*
X101595022Y-85160608D01*
X101769731Y-85088241D01*
X101887884Y-85009294D01*
X102032236Y-85149869D01*
X102220024Y-85271776D01*
X102443126Y-85351619D01*
X102618000Y-85225454D01*
X102618000Y-83834500D01*
X102872000Y-83834500D01*
X102872000Y-85225454D01*
X103046874Y-85351619D01*
X103269976Y-85271776D01*
X103457764Y-85149869D01*
X103618161Y-84993669D01*
X103745003Y-84809178D01*
X103833415Y-84603487D01*
X103880000Y-84384500D01*
X103880000Y-83834500D01*
X102872000Y-83834500D01*
X102618000Y-83834500D01*
X102598000Y-83834500D01*
X102598000Y-83580500D01*
X102618000Y-83580500D01*
X102618000Y-82189546D01*
X102872000Y-82189546D01*
X102872000Y-83580500D01*
X103880000Y-83580500D01*
X103880000Y-83030500D01*
X103833415Y-82811513D01*
X103745003Y-82605822D01*
X103618161Y-82421331D01*
X103457764Y-82265131D01*
X103269976Y-82143224D01*
X103046874Y-82063381D01*
X102872000Y-82189546D01*
X102618000Y-82189546D01*
X102443126Y-82063381D01*
X102220024Y-82143224D01*
X102032236Y-82265131D01*
X101871839Y-82421331D01*
X101744997Y-82605822D01*
X101656585Y-82811513D01*
X101610000Y-83030500D01*
X101610000Y-83320596D01*
X101595022Y-83314392D01*
X101409552Y-83277500D01*
X101220448Y-83277500D01*
X101034978Y-83314392D01*
X100860269Y-83386759D01*
X100703036Y-83491819D01*
X100569319Y-83625536D01*
X100464259Y-83782769D01*
X100391892Y-83957478D01*
X100355000Y-84142948D01*
X96495000Y-84142948D01*
X96458108Y-83957478D01*
X96385741Y-83782769D01*
X96280681Y-83625536D01*
X96146964Y-83491819D01*
X95989731Y-83386759D01*
X95815022Y-83314392D01*
X95629552Y-83277500D01*
X95440448Y-83277500D01*
X95254978Y-83314392D01*
X95240000Y-83320596D01*
X95240000Y-83030500D01*
X95193415Y-82811513D01*
X95105003Y-82605822D01*
X94978161Y-82421331D01*
X94817764Y-82265131D01*
X94629976Y-82143224D01*
X94406874Y-82063381D01*
X94232000Y-82189546D01*
X93978000Y-82189546D01*
X93803126Y-82063381D01*
X93580024Y-82143224D01*
X93392236Y-82265131D01*
X93231839Y-82421331D01*
X93104997Y-82605822D01*
X93016585Y-82811513D01*
X92970000Y-83030500D01*
X80899000Y-83030500D01*
X80899000Y-78933711D01*
X80940937Y-78891774D01*
X81054205Y-78722256D01*
X81132226Y-78533898D01*
X81172000Y-78333939D01*
X81172000Y-78130061D01*
X81132226Y-77930102D01*
X81054205Y-77741744D01*
X80940937Y-77572226D01*
X80796774Y-77428063D01*
X80627256Y-77314795D01*
X80438898Y-77236774D01*
X80238939Y-77197000D01*
X80035061Y-77197000D01*
X79835102Y-77236774D01*
X79646744Y-77314795D01*
X79477226Y-77428063D01*
X79333063Y-77572226D01*
X79219795Y-77741744D01*
X79141774Y-77930102D01*
X79102000Y-78130061D01*
X79102000Y-78333939D01*
X79141774Y-78533898D01*
X79219795Y-78722256D01*
X79333063Y-78891774D01*
X79375001Y-78933712D01*
X79375000Y-83704247D01*
X79327102Y-83713774D01*
X79138744Y-83791795D01*
X78969226Y-83905063D01*
X78825063Y-84049226D01*
X78711795Y-84218744D01*
X78633774Y-84407102D01*
X78594000Y-84607061D01*
X46697500Y-84607061D01*
X46697500Y-78731250D01*
X52218178Y-78731250D01*
X52218178Y-80731250D01*
X52230438Y-80855732D01*
X52266748Y-80975430D01*
X52325713Y-81085744D01*
X52405065Y-81182435D01*
X52501756Y-81261787D01*
X52612070Y-81320752D01*
X52731768Y-81357062D01*
X52856250Y-81369322D01*
X54856250Y-81369322D01*
X54980732Y-81357062D01*
X55100430Y-81320752D01*
X55210744Y-81261787D01*
X55307435Y-81182435D01*
X55386787Y-81085744D01*
X55442226Y-80982027D01*
X55496206Y-81131064D01*
X55785821Y-81271954D01*
X56097358Y-81353634D01*
X56418845Y-81372968D01*
X56737925Y-81329211D01*
X57042338Y-81224045D01*
X57216294Y-81131064D01*
X57312058Y-80866663D01*
X56356250Y-79910855D01*
X56342108Y-79924998D01*
X56162503Y-79745393D01*
X56176645Y-79731250D01*
X56535855Y-79731250D01*
X57491663Y-80687058D01*
X57521325Y-80676315D01*
X57586263Y-80773502D01*
X57813998Y-81001237D01*
X58081787Y-81180168D01*
X58379338Y-81303418D01*
X58695217Y-81366250D01*
X59017283Y-81366250D01*
X59333162Y-81303418D01*
X59630713Y-81180168D01*
X59898502Y-81001237D01*
X60126237Y-80773502D01*
X60305168Y-80505713D01*
X60428418Y-80208162D01*
X60491250Y-79892283D01*
X60491250Y-79570217D01*
X60428418Y-79254338D01*
X60305168Y-78956787D01*
X60126237Y-78688998D01*
X59898502Y-78461263D01*
X59630713Y-78282332D01*
X59333162Y-78159082D01*
X59017283Y-78096250D01*
X58695217Y-78096250D01*
X58379338Y-78159082D01*
X58081787Y-78282332D01*
X57813998Y-78461263D01*
X57586263Y-78688998D01*
X57521325Y-78786185D01*
X57491663Y-78775442D01*
X56535855Y-79731250D01*
X56176645Y-79731250D01*
X56162503Y-79717108D01*
X56342108Y-79537503D01*
X56356250Y-79551645D01*
X57312058Y-78595837D01*
X57216294Y-78331436D01*
X56926679Y-78190546D01*
X56615142Y-78108866D01*
X56293655Y-78089532D01*
X55974575Y-78133289D01*
X55670162Y-78238455D01*
X55496206Y-78331436D01*
X55442226Y-78480473D01*
X55386787Y-78376756D01*
X55307435Y-78280065D01*
X55210744Y-78200713D01*
X55100430Y-78141748D01*
X54980732Y-78105438D01*
X54856250Y-78093178D01*
X52856250Y-78093178D01*
X52731768Y-78105438D01*
X52612070Y-78141748D01*
X52501756Y-78200713D01*
X52405065Y-78280065D01*
X52325713Y-78376756D01*
X52266748Y-78487070D01*
X52230438Y-78606768D01*
X52218178Y-78731250D01*
X46697500Y-78731250D01*
X46697500Y-70631250D01*
X49118178Y-70631250D01*
X49118178Y-73831250D01*
X49130438Y-73955732D01*
X49166748Y-74075430D01*
X49225713Y-74185744D01*
X49305065Y-74282435D01*
X49401756Y-74361787D01*
X49512070Y-74420752D01*
X49631768Y-74457062D01*
X49756250Y-74469322D01*
X51756250Y-74469322D01*
X51880732Y-74457062D01*
X52000430Y-74420752D01*
X52110744Y-74361787D01*
X52207435Y-74282435D01*
X52286787Y-74185744D01*
X52345752Y-74075430D01*
X52382062Y-73955732D01*
X52394322Y-73831250D01*
X52394322Y-70631250D01*
X60318178Y-70631250D01*
X60318178Y-73831250D01*
X60330438Y-73955732D01*
X60366748Y-74075430D01*
X60425713Y-74185744D01*
X60505065Y-74282435D01*
X60601756Y-74361787D01*
X60712070Y-74420752D01*
X60831768Y-74457062D01*
X60956250Y-74469322D01*
X62956250Y-74469322D01*
X63080732Y-74457062D01*
X63200430Y-74420752D01*
X63310744Y-74361787D01*
X63407435Y-74282435D01*
X63486787Y-74185744D01*
X63545752Y-74075430D01*
X63582062Y-73955732D01*
X63594322Y-73831250D01*
X63594322Y-70631250D01*
X63582062Y-70506768D01*
X63545752Y-70387070D01*
X63486787Y-70276756D01*
X63407435Y-70180065D01*
X63310744Y-70100713D01*
X63200430Y-70041748D01*
X63080732Y-70005438D01*
X62956250Y-69993178D01*
X60956250Y-69993178D01*
X60831768Y-70005438D01*
X60712070Y-70041748D01*
X60601756Y-70100713D01*
X60505065Y-70180065D01*
X60425713Y-70276756D01*
X60366748Y-70387070D01*
X60330438Y-70506768D01*
X60318178Y-70631250D01*
X52394322Y-70631250D01*
X52382062Y-70506768D01*
X52345752Y-70387070D01*
X52286787Y-70276756D01*
X52207435Y-70180065D01*
X52110744Y-70100713D01*
X52000430Y-70041748D01*
X51880732Y-70005438D01*
X51756250Y-69993178D01*
X49756250Y-69993178D01*
X49631768Y-70005438D01*
X49512070Y-70041748D01*
X49401756Y-70100713D01*
X49305065Y-70180065D01*
X49225713Y-70276756D01*
X49166748Y-70387070D01*
X49130438Y-70506768D01*
X49118178Y-70631250D01*
X46697500Y-70631250D01*
X46697500Y-65070217D01*
X52221250Y-65070217D01*
X52221250Y-65392283D01*
X52284082Y-65708162D01*
X52407332Y-66005713D01*
X52586263Y-66273502D01*
X52813998Y-66501237D01*
X53081787Y-66680168D01*
X53379338Y-66803418D01*
X53590236Y-66845368D01*
X53405363Y-67030241D01*
X53248320Y-67265273D01*
X53140147Y-67526426D01*
X53085000Y-67803665D01*
X53085000Y-68086335D01*
X53140147Y-68363574D01*
X53248320Y-68624727D01*
X53405363Y-68859759D01*
X53605241Y-69059637D01*
X53840273Y-69216680D01*
X54101426Y-69324853D01*
X54378665Y-69380000D01*
X54661335Y-69380000D01*
X54938574Y-69324853D01*
X55199727Y-69216680D01*
X55434759Y-69059637D01*
X55634637Y-68859759D01*
X55791680Y-68624727D01*
X55899853Y-68363574D01*
X55955000Y-68086335D01*
X55955000Y-67803665D01*
X55899853Y-67526426D01*
X55791680Y-67265273D01*
X55711317Y-67145000D01*
X60881928Y-67145000D01*
X60881928Y-68745000D01*
X60894188Y-68869482D01*
X60930498Y-68989180D01*
X60989463Y-69099494D01*
X61068815Y-69196185D01*
X61165506Y-69275537D01*
X61275820Y-69334502D01*
X61395518Y-69370812D01*
X61520000Y-69383072D01*
X63120000Y-69383072D01*
X63244482Y-69370812D01*
X63364180Y-69334502D01*
X63474494Y-69275537D01*
X63571185Y-69196185D01*
X63650537Y-69099494D01*
X63709502Y-68989180D01*
X63745812Y-68869482D01*
X63758072Y-68745000D01*
X63758072Y-67145000D01*
X63745812Y-67020518D01*
X63709502Y-66900820D01*
X63650537Y-66790506D01*
X63571185Y-66693815D01*
X63474494Y-66614463D01*
X63364180Y-66555498D01*
X63244482Y-66519188D01*
X63120000Y-66506928D01*
X61520000Y-66506928D01*
X61395518Y-66519188D01*
X61275820Y-66555498D01*
X61165506Y-66614463D01*
X61068815Y-66693815D01*
X60989463Y-66790506D01*
X60930498Y-66900820D01*
X60894188Y-67020518D01*
X60881928Y-67145000D01*
X55711317Y-67145000D01*
X55634637Y-67030241D01*
X55434759Y-66830363D01*
X55199727Y-66673320D01*
X54938574Y-66565147D01*
X54833989Y-66544343D01*
X54898502Y-66501237D01*
X55126237Y-66273502D01*
X55305168Y-66005713D01*
X55428418Y-65708162D01*
X55491250Y-65392283D01*
X55491250Y-65070217D01*
X57221250Y-65070217D01*
X57221250Y-65392283D01*
X57284082Y-65708162D01*
X57407332Y-66005713D01*
X57586263Y-66273502D01*
X57813998Y-66501237D01*
X58081787Y-66680168D01*
X58379338Y-66803418D01*
X58695217Y-66866250D01*
X59017283Y-66866250D01*
X59333162Y-66803418D01*
X59630713Y-66680168D01*
X59898502Y-66501237D01*
X60126237Y-66273502D01*
X60305168Y-66005713D01*
X60428418Y-65708162D01*
X60491250Y-65392283D01*
X60491250Y-65070217D01*
X60428418Y-64754338D01*
X60305168Y-64456787D01*
X60126237Y-64188998D01*
X59898502Y-63961263D01*
X59630713Y-63782332D01*
X59333162Y-63659082D01*
X59017283Y-63596250D01*
X58695217Y-63596250D01*
X58379338Y-63659082D01*
X58081787Y-63782332D01*
X57813998Y-63961263D01*
X57586263Y-64188998D01*
X57407332Y-64456787D01*
X57284082Y-64754338D01*
X57221250Y-65070217D01*
X55491250Y-65070217D01*
X55428418Y-64754338D01*
X55305168Y-64456787D01*
X55126237Y-64188998D01*
X54898502Y-63961263D01*
X54630713Y-63782332D01*
X54333162Y-63659082D01*
X54017283Y-63596250D01*
X53695217Y-63596250D01*
X53379338Y-63659082D01*
X53081787Y-63782332D01*
X52813998Y-63961263D01*
X52586263Y-64188998D01*
X52407332Y-64456787D01*
X52284082Y-64754338D01*
X52221250Y-65070217D01*
X46697500Y-65070217D01*
X46697500Y-61239061D01*
X79356000Y-61239061D01*
X79356000Y-61442939D01*
X79395774Y-61642898D01*
X79473795Y-61831256D01*
X79587063Y-62000774D01*
X79731226Y-62144937D01*
X79900744Y-62258205D01*
X80089102Y-62336226D01*
X80289061Y-62376000D01*
X80492939Y-62376000D01*
X80692898Y-62336226D01*
X80881256Y-62258205D01*
X81050774Y-62144937D01*
X81092711Y-62103000D01*
X83782577Y-62103000D01*
X83820000Y-62106686D01*
X83857423Y-62103000D01*
X83857426Y-62103000D01*
X83969378Y-62091974D01*
X84113015Y-62048402D01*
X84245392Y-61977645D01*
X84361422Y-61882422D01*
X84385284Y-61853346D01*
X87253352Y-58985279D01*
X87282422Y-58961422D01*
X87354659Y-58873401D01*
X87377645Y-58845393D01*
X87415465Y-58774636D01*
X87448402Y-58713015D01*
X87491974Y-58569378D01*
X87503000Y-58457426D01*
X87503000Y-58457423D01*
X87506686Y-58420000D01*
X87503000Y-58382577D01*
X87503000Y-57075000D01*
X101749428Y-57075000D01*
X101749428Y-58675000D01*
X101761688Y-58799482D01*
X101797998Y-58919180D01*
X101856963Y-59029494D01*
X101936315Y-59126185D01*
X102033006Y-59205537D01*
X102143320Y-59264502D01*
X102263018Y-59300812D01*
X102387500Y-59313072D01*
X103987500Y-59313072D01*
X104111982Y-59300812D01*
X104231680Y-59264502D01*
X104341994Y-59205537D01*
X104438685Y-59126185D01*
X104518037Y-59029494D01*
X104577002Y-58919180D01*
X104613312Y-58799482D01*
X104625572Y-58675000D01*
X104625572Y-57075000D01*
X104613312Y-56950518D01*
X104577002Y-56830820D01*
X104518037Y-56720506D01*
X104438685Y-56623815D01*
X104341994Y-56544463D01*
X104231680Y-56485498D01*
X104111982Y-56449188D01*
X103987500Y-56436928D01*
X102387500Y-56436928D01*
X102263018Y-56449188D01*
X102143320Y-56485498D01*
X102033006Y-56544463D01*
X101936315Y-56623815D01*
X101856963Y-56720506D01*
X101797998Y-56830820D01*
X101761688Y-56950518D01*
X101749428Y-57075000D01*
X87503000Y-57075000D01*
X87503000Y-56957630D01*
X88307631Y-56153000D01*
X88366939Y-56153000D01*
X88566898Y-56113226D01*
X88755256Y-56035205D01*
X88924774Y-55921937D01*
X89068937Y-55777774D01*
X89182205Y-55608256D01*
X89260226Y-55419898D01*
X89300000Y-55219939D01*
X89300000Y-55016061D01*
X89260226Y-54816102D01*
X89182205Y-54627744D01*
X89068937Y-54458226D01*
X88924774Y-54314063D01*
X88755256Y-54200795D01*
X88566898Y-54122774D01*
X88366939Y-54083000D01*
X88163061Y-54083000D01*
X87963102Y-54122774D01*
X87774744Y-54200795D01*
X87605226Y-54314063D01*
X87461063Y-54458226D01*
X87347795Y-54627744D01*
X87269774Y-54816102D01*
X87230000Y-55016061D01*
X87230000Y-55075369D01*
X86228654Y-56076716D01*
X86199578Y-56100578D01*
X86156557Y-56153000D01*
X86104355Y-56216608D01*
X86091731Y-56240226D01*
X86033598Y-56348986D01*
X85990026Y-56492623D01*
X85979000Y-56604574D01*
X85975314Y-56642000D01*
X85979000Y-56679424D01*
X85979001Y-58104368D01*
X85575572Y-58507797D01*
X85575572Y-57075000D01*
X85563312Y-56950518D01*
X85527002Y-56830820D01*
X85468037Y-56720506D01*
X85388685Y-56623815D01*
X85291994Y-56544463D01*
X85181680Y-56485498D01*
X85061982Y-56449188D01*
X84937500Y-56436928D01*
X83337500Y-56436928D01*
X83213018Y-56449188D01*
X83093320Y-56485498D01*
X82983006Y-56544463D01*
X82886315Y-56623815D01*
X82806963Y-56720506D01*
X82747998Y-56830820D01*
X82711688Y-56950518D01*
X82699428Y-57075000D01*
X82699428Y-58675000D01*
X82711688Y-58799482D01*
X82747998Y-58919180D01*
X82806963Y-59029494D01*
X82886315Y-59126185D01*
X82983006Y-59205537D01*
X83093320Y-59264502D01*
X83213018Y-59300812D01*
X83337500Y-59313072D01*
X84770297Y-59313072D01*
X83504370Y-60579000D01*
X81092711Y-60579000D01*
X81050774Y-60537063D01*
X80881256Y-60423795D01*
X80692898Y-60345774D01*
X80492939Y-60306000D01*
X80289061Y-60306000D01*
X80089102Y-60345774D01*
X79900744Y-60423795D01*
X79731226Y-60537063D01*
X79587063Y-60681226D01*
X79473795Y-60850744D01*
X79395774Y-61039102D01*
X79356000Y-61239061D01*
X46697500Y-61239061D01*
X46697500Y-57075000D01*
X63585928Y-57075000D01*
X63585928Y-58675000D01*
X63598188Y-58799482D01*
X63634498Y-58919180D01*
X63693463Y-59029494D01*
X63772815Y-59126185D01*
X63869506Y-59205537D01*
X63979820Y-59264502D01*
X64099518Y-59300812D01*
X64224000Y-59313072D01*
X65824000Y-59313072D01*
X65948482Y-59300812D01*
X66068180Y-59264502D01*
X66178494Y-59205537D01*
X66275185Y-59126185D01*
X66354537Y-59029494D01*
X66413502Y-58919180D01*
X66449812Y-58799482D01*
X66462072Y-58675000D01*
X66462072Y-57075000D01*
X66449812Y-56950518D01*
X66413502Y-56830820D01*
X66354537Y-56720506D01*
X66275185Y-56623815D01*
X66178494Y-56544463D01*
X66068180Y-56485498D01*
X65948482Y-56449188D01*
X65824000Y-56436928D01*
X64224000Y-56436928D01*
X64099518Y-56449188D01*
X63979820Y-56485498D01*
X63869506Y-56544463D01*
X63772815Y-56623815D01*
X63693463Y-56720506D01*
X63634498Y-56830820D01*
X63598188Y-56950518D01*
X63585928Y-57075000D01*
X46697500Y-57075000D01*
X46697500Y-55143061D01*
X69704000Y-55143061D01*
X69704000Y-55346939D01*
X69743774Y-55546898D01*
X69821795Y-55735256D01*
X69935063Y-55904774D01*
X70079226Y-56048937D01*
X70248744Y-56162205D01*
X70437102Y-56240226D01*
X70637061Y-56280000D01*
X70696370Y-56280000D01*
X72625000Y-58208631D01*
X72625000Y-58267939D01*
X72664774Y-58467898D01*
X72742795Y-58656256D01*
X72856063Y-58825774D01*
X73000226Y-58969937D01*
X73169744Y-59083205D01*
X73358102Y-59161226D01*
X73558061Y-59201000D01*
X73761939Y-59201000D01*
X73961898Y-59161226D01*
X74150256Y-59083205D01*
X74319774Y-58969937D01*
X74463937Y-58825774D01*
X74577205Y-58656256D01*
X74655226Y-58467898D01*
X74695000Y-58267939D01*
X74695000Y-58064061D01*
X74655226Y-57864102D01*
X74577205Y-57675744D01*
X74463937Y-57506226D01*
X74319774Y-57362063D01*
X74150256Y-57248795D01*
X73961898Y-57170774D01*
X73761939Y-57131000D01*
X73702631Y-57131000D01*
X71774000Y-55202370D01*
X71774000Y-55143061D01*
X71734226Y-54943102D01*
X71656205Y-54754744D01*
X71542937Y-54585226D01*
X71398774Y-54441063D01*
X71229256Y-54327795D01*
X71040898Y-54249774D01*
X70840939Y-54210000D01*
X70637061Y-54210000D01*
X70437102Y-54249774D01*
X70248744Y-54327795D01*
X70079226Y-54441063D01*
X69935063Y-54585226D01*
X69821795Y-54754744D01*
X69743774Y-54943102D01*
X69704000Y-55143061D01*
X46697500Y-55143061D01*
X46697500Y-52238778D01*
X50560000Y-52238778D01*
X50560000Y-52536222D01*
X50618029Y-52827951D01*
X50731856Y-53102753D01*
X50897107Y-53350069D01*
X51107431Y-53560393D01*
X51354747Y-53725644D01*
X51629549Y-53839471D01*
X51921278Y-53897500D01*
X52218722Y-53897500D01*
X52510451Y-53839471D01*
X52785253Y-53725644D01*
X53032569Y-53560393D01*
X53242893Y-53350069D01*
X53408144Y-53102753D01*
X53521971Y-52827951D01*
X53580000Y-52536222D01*
X53580000Y-52238778D01*
X53529023Y-51982500D01*
X53550279Y-51982500D01*
X53962756Y-51900453D01*
X54351302Y-51739512D01*
X54657708Y-51534779D01*
X54622127Y-51620678D01*
X54521100Y-52128576D01*
X54521100Y-52646424D01*
X54622127Y-53154322D01*
X54820299Y-53632751D01*
X55108000Y-54063326D01*
X55474174Y-54429500D01*
X55904749Y-54717201D01*
X56383178Y-54915373D01*
X56891076Y-55016400D01*
X57408924Y-55016400D01*
X57916822Y-54915373D01*
X58395251Y-54717201D01*
X58825826Y-54429500D01*
X59192000Y-54063326D01*
X59479701Y-53632751D01*
X59677873Y-53154322D01*
X59778900Y-52646424D01*
X59778900Y-52238778D01*
X60720000Y-52238778D01*
X60720000Y-52536222D01*
X60778029Y-52827951D01*
X60891856Y-53102753D01*
X61057107Y-53350069D01*
X61267431Y-53560393D01*
X61514747Y-53725644D01*
X61789549Y-53839471D01*
X62081278Y-53897500D01*
X62378722Y-53897500D01*
X62670451Y-53839471D01*
X62945253Y-53725644D01*
X63192569Y-53560393D01*
X63402893Y-53350069D01*
X63568144Y-53102753D01*
X63681971Y-52827951D01*
X63740000Y-52536222D01*
X63740000Y-52238778D01*
X69610000Y-52238778D01*
X69610000Y-52536222D01*
X69668029Y-52827951D01*
X69781856Y-53102753D01*
X69947107Y-53350069D01*
X70157431Y-53560393D01*
X70404747Y-53725644D01*
X70679549Y-53839471D01*
X70971278Y-53897500D01*
X71268722Y-53897500D01*
X71560451Y-53839471D01*
X71835253Y-53725644D01*
X72082569Y-53560393D01*
X72292893Y-53350069D01*
X72458144Y-53102753D01*
X72571971Y-52827951D01*
X72630000Y-52536222D01*
X72630000Y-52238778D01*
X72579023Y-51982500D01*
X72600279Y-51982500D01*
X73012756Y-51900453D01*
X73401302Y-51739512D01*
X73707708Y-51534779D01*
X73672127Y-51620678D01*
X73571100Y-52128576D01*
X73571100Y-52646424D01*
X73672127Y-53154322D01*
X73870299Y-53632751D01*
X74158000Y-54063326D01*
X74524174Y-54429500D01*
X74954749Y-54717201D01*
X75433178Y-54915373D01*
X75941076Y-55016400D01*
X76458924Y-55016400D01*
X76966822Y-54915373D01*
X77445251Y-54717201D01*
X77875826Y-54429500D01*
X78242000Y-54063326D01*
X78529701Y-53632751D01*
X78727873Y-53154322D01*
X78828900Y-52646424D01*
X78828900Y-52238778D01*
X79770000Y-52238778D01*
X79770000Y-52536222D01*
X79828029Y-52827951D01*
X79941856Y-53102753D01*
X80107107Y-53350069D01*
X80317431Y-53560393D01*
X80564747Y-53725644D01*
X80839549Y-53839471D01*
X81131278Y-53897500D01*
X81428722Y-53897500D01*
X81720451Y-53839471D01*
X81995253Y-53725644D01*
X82242569Y-53560393D01*
X82452893Y-53350069D01*
X82618144Y-53102753D01*
X82731971Y-52827951D01*
X82790000Y-52536222D01*
X82790000Y-52238778D01*
X88660000Y-52238778D01*
X88660000Y-52536222D01*
X88718029Y-52827951D01*
X88831856Y-53102753D01*
X88997107Y-53350069D01*
X89207431Y-53560393D01*
X89454747Y-53725644D01*
X89729549Y-53839471D01*
X90021278Y-53897500D01*
X90318722Y-53897500D01*
X90610451Y-53839471D01*
X90885253Y-53725644D01*
X91132569Y-53560393D01*
X91342893Y-53350069D01*
X91508144Y-53102753D01*
X91621971Y-52827951D01*
X91680000Y-52536222D01*
X91680000Y-52238778D01*
X91629023Y-51982500D01*
X91650279Y-51982500D01*
X92062756Y-51900453D01*
X92451302Y-51739512D01*
X92757708Y-51534779D01*
X92722127Y-51620678D01*
X92621100Y-52128576D01*
X92621100Y-52646424D01*
X92722127Y-53154322D01*
X92920299Y-53632751D01*
X93208000Y-54063326D01*
X93574174Y-54429500D01*
X94004749Y-54717201D01*
X94483178Y-54915373D01*
X94991076Y-55016400D01*
X95508924Y-55016400D01*
X96016822Y-54915373D01*
X96495251Y-54717201D01*
X96925826Y-54429500D01*
X97292000Y-54063326D01*
X97579701Y-53632751D01*
X97777873Y-53154322D01*
X97878900Y-52646424D01*
X97878900Y-52238778D01*
X98820000Y-52238778D01*
X98820000Y-52536222D01*
X98878029Y-52827951D01*
X98991856Y-53102753D01*
X99157107Y-53350069D01*
X99367431Y-53560393D01*
X99614747Y-53725644D01*
X99889549Y-53839471D01*
X100181278Y-53897500D01*
X100478722Y-53897500D01*
X100770451Y-53839471D01*
X101045253Y-53725644D01*
X101292569Y-53560393D01*
X101502893Y-53350069D01*
X101668144Y-53102753D01*
X101781971Y-52827951D01*
X101840000Y-52536222D01*
X101840000Y-52238778D01*
X101781971Y-51947049D01*
X101668144Y-51672247D01*
X101502893Y-51424931D01*
X101292569Y-51214607D01*
X101045253Y-51049356D01*
X100770451Y-50935529D01*
X100478722Y-50877500D01*
X100181278Y-50877500D01*
X99889549Y-50935529D01*
X99614747Y-51049356D01*
X99367431Y-51214607D01*
X99157107Y-51424931D01*
X98991856Y-51672247D01*
X98878029Y-51947049D01*
X98820000Y-52238778D01*
X97878900Y-52238778D01*
X97878900Y-52128576D01*
X97777873Y-51620678D01*
X97579701Y-51142249D01*
X97292000Y-50711674D01*
X96925826Y-50345500D01*
X96495251Y-50057799D01*
X96195566Y-49933665D01*
X101752500Y-49933665D01*
X101752500Y-50216335D01*
X101807647Y-50493574D01*
X101915820Y-50754727D01*
X102072863Y-50989759D01*
X102272741Y-51189637D01*
X102507773Y-51346680D01*
X102768926Y-51454853D01*
X103046165Y-51510000D01*
X103328835Y-51510000D01*
X103606074Y-51454853D01*
X103867227Y-51346680D01*
X104102259Y-51189637D01*
X104302137Y-50989759D01*
X104459180Y-50754727D01*
X104567353Y-50493574D01*
X104622500Y-50216335D01*
X104622500Y-49933665D01*
X104567353Y-49656426D01*
X104459180Y-49395273D01*
X104302137Y-49160241D01*
X104102259Y-48960363D01*
X103867227Y-48803320D01*
X103606074Y-48695147D01*
X103328835Y-48640000D01*
X103046165Y-48640000D01*
X102768926Y-48695147D01*
X102507773Y-48803320D01*
X102272741Y-48960363D01*
X102072863Y-49160241D01*
X101915820Y-49395273D01*
X101807647Y-49656426D01*
X101752500Y-49933665D01*
X96195566Y-49933665D01*
X96016822Y-49859627D01*
X95508924Y-49758600D01*
X94991076Y-49758600D01*
X94483178Y-49859627D01*
X94004749Y-50057799D01*
X93574174Y-50345500D01*
X93503763Y-50415911D01*
X93575000Y-50057779D01*
X93575000Y-49637221D01*
X93492953Y-49224744D01*
X93332012Y-48836198D01*
X93098363Y-48486517D01*
X92800983Y-48189137D01*
X92451302Y-47955488D01*
X92062756Y-47794547D01*
X91650279Y-47712500D01*
X91229721Y-47712500D01*
X90817244Y-47794547D01*
X90428698Y-47955488D01*
X90079017Y-48189137D01*
X89781637Y-48486517D01*
X89547988Y-48836198D01*
X89387047Y-49224744D01*
X89305000Y-49637221D01*
X89305000Y-50057779D01*
X89387047Y-50470256D01*
X89547988Y-50858802D01*
X89627499Y-50977799D01*
X89454747Y-51049356D01*
X89207431Y-51214607D01*
X88997107Y-51424931D01*
X88831856Y-51672247D01*
X88718029Y-51947049D01*
X88660000Y-52238778D01*
X82790000Y-52238778D01*
X82731971Y-51947049D01*
X82618144Y-51672247D01*
X82452893Y-51424931D01*
X82242569Y-51214607D01*
X81995253Y-51049356D01*
X81720451Y-50935529D01*
X81428722Y-50877500D01*
X81131278Y-50877500D01*
X80839549Y-50935529D01*
X80564747Y-51049356D01*
X80317431Y-51214607D01*
X80107107Y-51424931D01*
X79941856Y-51672247D01*
X79828029Y-51947049D01*
X79770000Y-52238778D01*
X78828900Y-52238778D01*
X78828900Y-52128576D01*
X78727873Y-51620678D01*
X78529701Y-51142249D01*
X78242000Y-50711674D01*
X77875826Y-50345500D01*
X77445251Y-50057799D01*
X77145566Y-49933665D01*
X82702500Y-49933665D01*
X82702500Y-50216335D01*
X82757647Y-50493574D01*
X82865820Y-50754727D01*
X83022863Y-50989759D01*
X83222741Y-51189637D01*
X83457773Y-51346680D01*
X83718926Y-51454853D01*
X83996165Y-51510000D01*
X84278835Y-51510000D01*
X84556074Y-51454853D01*
X84817227Y-51346680D01*
X85052259Y-51189637D01*
X85252137Y-50989759D01*
X85409180Y-50754727D01*
X85517353Y-50493574D01*
X85572500Y-50216335D01*
X85572500Y-49933665D01*
X85517353Y-49656426D01*
X85409180Y-49395273D01*
X85252137Y-49160241D01*
X85052259Y-48960363D01*
X84817227Y-48803320D01*
X84556074Y-48695147D01*
X84278835Y-48640000D01*
X83996165Y-48640000D01*
X83718926Y-48695147D01*
X83457773Y-48803320D01*
X83222741Y-48960363D01*
X83022863Y-49160241D01*
X82865820Y-49395273D01*
X82757647Y-49656426D01*
X82702500Y-49933665D01*
X77145566Y-49933665D01*
X76966822Y-49859627D01*
X76458924Y-49758600D01*
X75941076Y-49758600D01*
X75433178Y-49859627D01*
X74954749Y-50057799D01*
X74524174Y-50345500D01*
X74453763Y-50415911D01*
X74525000Y-50057779D01*
X74525000Y-49637221D01*
X74442953Y-49224744D01*
X74282012Y-48836198D01*
X74048363Y-48486517D01*
X73750983Y-48189137D01*
X73401302Y-47955488D01*
X73012756Y-47794547D01*
X72600279Y-47712500D01*
X72179721Y-47712500D01*
X71767244Y-47794547D01*
X71378698Y-47955488D01*
X71029017Y-48189137D01*
X70731637Y-48486517D01*
X70497988Y-48836198D01*
X70337047Y-49224744D01*
X70255000Y-49637221D01*
X70255000Y-50057779D01*
X70337047Y-50470256D01*
X70497988Y-50858802D01*
X70577499Y-50977799D01*
X70404747Y-51049356D01*
X70157431Y-51214607D01*
X69947107Y-51424931D01*
X69781856Y-51672247D01*
X69668029Y-51947049D01*
X69610000Y-52238778D01*
X63740000Y-52238778D01*
X63681971Y-51947049D01*
X63568144Y-51672247D01*
X63402893Y-51424931D01*
X63192569Y-51214607D01*
X62945253Y-51049356D01*
X62670451Y-50935529D01*
X62378722Y-50877500D01*
X62081278Y-50877500D01*
X61789549Y-50935529D01*
X61514747Y-51049356D01*
X61267431Y-51214607D01*
X61057107Y-51424931D01*
X60891856Y-51672247D01*
X60778029Y-51947049D01*
X60720000Y-52238778D01*
X59778900Y-52238778D01*
X59778900Y-52128576D01*
X59677873Y-51620678D01*
X59479701Y-51142249D01*
X59192000Y-50711674D01*
X58825826Y-50345500D01*
X58395251Y-50057799D01*
X58095566Y-49933665D01*
X63589000Y-49933665D01*
X63589000Y-50216335D01*
X63644147Y-50493574D01*
X63752320Y-50754727D01*
X63909363Y-50989759D01*
X64109241Y-51189637D01*
X64344273Y-51346680D01*
X64605426Y-51454853D01*
X64882665Y-51510000D01*
X65165335Y-51510000D01*
X65442574Y-51454853D01*
X65703727Y-51346680D01*
X65938759Y-51189637D01*
X66138637Y-50989759D01*
X66295680Y-50754727D01*
X66403853Y-50493574D01*
X66459000Y-50216335D01*
X66459000Y-49933665D01*
X66403853Y-49656426D01*
X66295680Y-49395273D01*
X66138637Y-49160241D01*
X65938759Y-48960363D01*
X65703727Y-48803320D01*
X65442574Y-48695147D01*
X65165335Y-48640000D01*
X64882665Y-48640000D01*
X64605426Y-48695147D01*
X64344273Y-48803320D01*
X64109241Y-48960363D01*
X63909363Y-49160241D01*
X63752320Y-49395273D01*
X63644147Y-49656426D01*
X63589000Y-49933665D01*
X58095566Y-49933665D01*
X57916822Y-49859627D01*
X57408924Y-49758600D01*
X56891076Y-49758600D01*
X56383178Y-49859627D01*
X55904749Y-50057799D01*
X55474174Y-50345500D01*
X55403763Y-50415911D01*
X55475000Y-50057779D01*
X55475000Y-49637221D01*
X55392953Y-49224744D01*
X55232012Y-48836198D01*
X54998363Y-48486517D01*
X54700983Y-48189137D01*
X54351302Y-47955488D01*
X53962756Y-47794547D01*
X53550279Y-47712500D01*
X53129721Y-47712500D01*
X52717244Y-47794547D01*
X52328698Y-47955488D01*
X51979017Y-48189137D01*
X51681637Y-48486517D01*
X51447988Y-48836198D01*
X51287047Y-49224744D01*
X51205000Y-49637221D01*
X51205000Y-50057779D01*
X51287047Y-50470256D01*
X51447988Y-50858802D01*
X51527499Y-50977799D01*
X51354747Y-51049356D01*
X51107431Y-51214607D01*
X50897107Y-51424931D01*
X50731856Y-51672247D01*
X50618029Y-51947049D01*
X50560000Y-52238778D01*
X46697500Y-52238778D01*
X46697500Y-47097221D01*
X57555000Y-47097221D01*
X57555000Y-47517779D01*
X57637047Y-47930256D01*
X57797988Y-48318802D01*
X58031637Y-48668483D01*
X58329017Y-48965863D01*
X58678698Y-49199512D01*
X59067244Y-49360453D01*
X59479721Y-49442500D01*
X59900279Y-49442500D01*
X60312756Y-49360453D01*
X60701302Y-49199512D01*
X61050983Y-48965863D01*
X61348363Y-48668483D01*
X61582012Y-48318802D01*
X61742953Y-47930256D01*
X61825000Y-47517779D01*
X61825000Y-47097221D01*
X76605000Y-47097221D01*
X76605000Y-47517779D01*
X76687047Y-47930256D01*
X76847988Y-48318802D01*
X77081637Y-48668483D01*
X77379017Y-48965863D01*
X77728698Y-49199512D01*
X78117244Y-49360453D01*
X78529721Y-49442500D01*
X78950279Y-49442500D01*
X79362756Y-49360453D01*
X79751302Y-49199512D01*
X80100983Y-48965863D01*
X80398363Y-48668483D01*
X80632012Y-48318802D01*
X80792953Y-47930256D01*
X80875000Y-47517779D01*
X80875000Y-47097221D01*
X95655000Y-47097221D01*
X95655000Y-47517779D01*
X95737047Y-47930256D01*
X95897988Y-48318802D01*
X96131637Y-48668483D01*
X96429017Y-48965863D01*
X96778698Y-49199512D01*
X97167244Y-49360453D01*
X97579721Y-49442500D01*
X98000279Y-49442500D01*
X98412756Y-49360453D01*
X98801302Y-49199512D01*
X99150983Y-48965863D01*
X99448363Y-48668483D01*
X99682012Y-48318802D01*
X99842953Y-47930256D01*
X99925000Y-47517779D01*
X99925000Y-47097221D01*
X99842953Y-46684744D01*
X99682012Y-46296198D01*
X99448363Y-45946517D01*
X99150983Y-45649137D01*
X98801302Y-45415488D01*
X98412756Y-45254547D01*
X98000279Y-45172500D01*
X97579721Y-45172500D01*
X97167244Y-45254547D01*
X96778698Y-45415488D01*
X96429017Y-45649137D01*
X96131637Y-45946517D01*
X95897988Y-46296198D01*
X95737047Y-46684744D01*
X95655000Y-47097221D01*
X80875000Y-47097221D01*
X80792953Y-46684744D01*
X80632012Y-46296198D01*
X80398363Y-45946517D01*
X80100983Y-45649137D01*
X79751302Y-45415488D01*
X79362756Y-45254547D01*
X78950279Y-45172500D01*
X78529721Y-45172500D01*
X78117244Y-45254547D01*
X77728698Y-45415488D01*
X77379017Y-45649137D01*
X77081637Y-45946517D01*
X76847988Y-46296198D01*
X76687047Y-46684744D01*
X76605000Y-47097221D01*
X61825000Y-47097221D01*
X61742953Y-46684744D01*
X61582012Y-46296198D01*
X61348363Y-45946517D01*
X61050983Y-45649137D01*
X60701302Y-45415488D01*
X60312756Y-45254547D01*
X59900279Y-45172500D01*
X59479721Y-45172500D01*
X59067244Y-45254547D01*
X58678698Y-45415488D01*
X58329017Y-45649137D01*
X58031637Y-45946517D01*
X57797988Y-46296198D01*
X57637047Y-46684744D01*
X57555000Y-47097221D01*
X46697500Y-47097221D01*
X46697500Y-38025000D01*
X63585928Y-38025000D01*
X63585928Y-39625000D01*
X63598188Y-39749482D01*
X63634498Y-39869180D01*
X63693463Y-39979494D01*
X63772815Y-40076185D01*
X63869506Y-40155537D01*
X63979820Y-40214502D01*
X64099518Y-40250812D01*
X64224000Y-40263072D01*
X65824000Y-40263072D01*
X65948482Y-40250812D01*
X66068180Y-40214502D01*
X66178494Y-40155537D01*
X66275185Y-40076185D01*
X66354537Y-39979494D01*
X66413502Y-39869180D01*
X66449812Y-39749482D01*
X66462072Y-39625000D01*
X66462072Y-38025000D01*
X66449812Y-37900518D01*
X66413502Y-37780820D01*
X66354537Y-37670506D01*
X66275185Y-37573815D01*
X66178494Y-37494463D01*
X66068180Y-37435498D01*
X65948482Y-37399188D01*
X65824000Y-37386928D01*
X64224000Y-37386928D01*
X64099518Y-37399188D01*
X63979820Y-37435498D01*
X63869506Y-37494463D01*
X63772815Y-37573815D01*
X63693463Y-37670506D01*
X63634498Y-37780820D01*
X63598188Y-37900518D01*
X63585928Y-38025000D01*
X46697500Y-38025000D01*
X46697500Y-36093061D01*
X68053000Y-36093061D01*
X68053000Y-36296939D01*
X68092774Y-36496898D01*
X68170795Y-36685256D01*
X68284063Y-36854774D01*
X68326000Y-36896711D01*
X68326001Y-44256288D01*
X68284063Y-44298226D01*
X68170795Y-44467744D01*
X68092774Y-44656102D01*
X68053000Y-44856061D01*
X68053000Y-45059939D01*
X68092774Y-45259898D01*
X68170795Y-45448256D01*
X68284063Y-45617774D01*
X68428226Y-45761937D01*
X68597744Y-45875205D01*
X68786102Y-45953226D01*
X68986061Y-45993000D01*
X69189939Y-45993000D01*
X69389898Y-45953226D01*
X69578256Y-45875205D01*
X69747774Y-45761937D01*
X69891937Y-45617774D01*
X70005205Y-45448256D01*
X70083226Y-45259898D01*
X70123000Y-45059939D01*
X70123000Y-44856061D01*
X70083226Y-44656102D01*
X70005205Y-44467744D01*
X69891937Y-44298226D01*
X69850000Y-44256289D01*
X69850000Y-38025000D01*
X82699428Y-38025000D01*
X82699428Y-39625000D01*
X82711688Y-39749482D01*
X82747998Y-39869180D01*
X82806963Y-39979494D01*
X82886315Y-40076185D01*
X82983006Y-40155537D01*
X83093320Y-40214502D01*
X83213018Y-40250812D01*
X83337500Y-40263072D01*
X84937500Y-40263072D01*
X85061982Y-40250812D01*
X85181680Y-40214502D01*
X85291994Y-40155537D01*
X85388685Y-40076185D01*
X85468037Y-39979494D01*
X85527002Y-39869180D01*
X85563312Y-39749482D01*
X85575572Y-39625000D01*
X85575572Y-38025000D01*
X85563312Y-37900518D01*
X85527002Y-37780820D01*
X85468037Y-37670506D01*
X85388685Y-37573815D01*
X85291994Y-37494463D01*
X85181680Y-37435498D01*
X85061982Y-37399188D01*
X84937500Y-37386928D01*
X83337500Y-37386928D01*
X83213018Y-37399188D01*
X83093320Y-37435498D01*
X82983006Y-37494463D01*
X82886315Y-37573815D01*
X82806963Y-37670506D01*
X82747998Y-37780820D01*
X82711688Y-37900518D01*
X82699428Y-38025000D01*
X69850000Y-38025000D01*
X69850000Y-36896711D01*
X69891937Y-36854774D01*
X70005205Y-36685256D01*
X70083226Y-36496898D01*
X70123000Y-36296939D01*
X70123000Y-36093061D01*
X87103000Y-36093061D01*
X87103000Y-36296939D01*
X87142774Y-36496898D01*
X87220795Y-36685256D01*
X87334063Y-36854774D01*
X87376000Y-36896711D01*
X87376001Y-44383288D01*
X87334063Y-44425226D01*
X87220795Y-44594744D01*
X87142774Y-44783102D01*
X87103000Y-44983061D01*
X87103000Y-45186939D01*
X87142774Y-45386898D01*
X87220795Y-45575256D01*
X87334063Y-45744774D01*
X87478226Y-45888937D01*
X87647744Y-46002205D01*
X87836102Y-46080226D01*
X88036061Y-46120000D01*
X88239939Y-46120000D01*
X88439898Y-46080226D01*
X88628256Y-46002205D01*
X88797774Y-45888937D01*
X88941937Y-45744774D01*
X89055205Y-45575256D01*
X89133226Y-45386898D01*
X89173000Y-45186939D01*
X89173000Y-44983061D01*
X89133226Y-44783102D01*
X89055205Y-44594744D01*
X88941937Y-44425226D01*
X88900000Y-44383289D01*
X88900000Y-38025000D01*
X101749428Y-38025000D01*
X101749428Y-39625000D01*
X101761688Y-39749482D01*
X101797998Y-39869180D01*
X101856963Y-39979494D01*
X101936315Y-40076185D01*
X102033006Y-40155537D01*
X102143320Y-40214502D01*
X102263018Y-40250812D01*
X102387500Y-40263072D01*
X103987500Y-40263072D01*
X104111982Y-40250812D01*
X104231680Y-40214502D01*
X104341994Y-40155537D01*
X104438685Y-40076185D01*
X104518037Y-39979494D01*
X104577002Y-39869180D01*
X104613312Y-39749482D01*
X104625572Y-39625000D01*
X104625572Y-38025000D01*
X104613312Y-37900518D01*
X104577002Y-37780820D01*
X104518037Y-37670506D01*
X104438685Y-37573815D01*
X104341994Y-37494463D01*
X104231680Y-37435498D01*
X104111982Y-37399188D01*
X103987500Y-37386928D01*
X102387500Y-37386928D01*
X102263018Y-37399188D01*
X102143320Y-37435498D01*
X102033006Y-37494463D01*
X101936315Y-37573815D01*
X101856963Y-37670506D01*
X101797998Y-37780820D01*
X101761688Y-37900518D01*
X101749428Y-38025000D01*
X88900000Y-38025000D01*
X88900000Y-36896711D01*
X88941937Y-36854774D01*
X89055205Y-36685256D01*
X89133226Y-36496898D01*
X89173000Y-36296939D01*
X89173000Y-36093061D01*
X89133226Y-35893102D01*
X89055205Y-35704744D01*
X88941937Y-35535226D01*
X88797774Y-35391063D01*
X88628256Y-35277795D01*
X88439898Y-35199774D01*
X88239939Y-35160000D01*
X88036061Y-35160000D01*
X87836102Y-35199774D01*
X87647744Y-35277795D01*
X87478226Y-35391063D01*
X87334063Y-35535226D01*
X87220795Y-35704744D01*
X87142774Y-35893102D01*
X87103000Y-36093061D01*
X70123000Y-36093061D01*
X70083226Y-35893102D01*
X70005205Y-35704744D01*
X69891937Y-35535226D01*
X69747774Y-35391063D01*
X69578256Y-35277795D01*
X69389898Y-35199774D01*
X69189939Y-35160000D01*
X68986061Y-35160000D01*
X68786102Y-35199774D01*
X68597744Y-35277795D01*
X68428226Y-35391063D01*
X68284063Y-35535226D01*
X68170795Y-35704744D01*
X68092774Y-35893102D01*
X68053000Y-36093061D01*
X46697500Y-36093061D01*
X46697500Y-33188778D01*
X50560000Y-33188778D01*
X50560000Y-33486222D01*
X50618029Y-33777951D01*
X50731856Y-34052753D01*
X50897107Y-34300069D01*
X51107431Y-34510393D01*
X51354747Y-34675644D01*
X51629549Y-34789471D01*
X51921278Y-34847500D01*
X52218722Y-34847500D01*
X52510451Y-34789471D01*
X52785253Y-34675644D01*
X53032569Y-34510393D01*
X53242893Y-34300069D01*
X53408144Y-34052753D01*
X53521971Y-33777951D01*
X53580000Y-33486222D01*
X53580000Y-33188778D01*
X53529023Y-32932500D01*
X53550279Y-32932500D01*
X53962756Y-32850453D01*
X54351302Y-32689512D01*
X54657708Y-32484779D01*
X54622127Y-32570678D01*
X54521100Y-33078576D01*
X54521100Y-33596424D01*
X54622127Y-34104322D01*
X54820299Y-34582751D01*
X55108000Y-35013326D01*
X55474174Y-35379500D01*
X55904749Y-35667201D01*
X56383178Y-35865373D01*
X56891076Y-35966400D01*
X57408924Y-35966400D01*
X57916822Y-35865373D01*
X58395251Y-35667201D01*
X58825826Y-35379500D01*
X59192000Y-35013326D01*
X59479701Y-34582751D01*
X59677873Y-34104322D01*
X59778900Y-33596424D01*
X59778900Y-33188778D01*
X60720000Y-33188778D01*
X60720000Y-33486222D01*
X60778029Y-33777951D01*
X60891856Y-34052753D01*
X61057107Y-34300069D01*
X61267431Y-34510393D01*
X61514747Y-34675644D01*
X61789549Y-34789471D01*
X62081278Y-34847500D01*
X62378722Y-34847500D01*
X62670451Y-34789471D01*
X62945253Y-34675644D01*
X63192569Y-34510393D01*
X63402893Y-34300069D01*
X63568144Y-34052753D01*
X63681971Y-33777951D01*
X63740000Y-33486222D01*
X63740000Y-33188778D01*
X69610000Y-33188778D01*
X69610000Y-33486222D01*
X69668029Y-33777951D01*
X69781856Y-34052753D01*
X69947107Y-34300069D01*
X70157431Y-34510393D01*
X70404747Y-34675644D01*
X70679549Y-34789471D01*
X70971278Y-34847500D01*
X71268722Y-34847500D01*
X71560451Y-34789471D01*
X71835253Y-34675644D01*
X72082569Y-34510393D01*
X72292893Y-34300069D01*
X72458144Y-34052753D01*
X72571971Y-33777951D01*
X72630000Y-33486222D01*
X72630000Y-33188778D01*
X72579023Y-32932500D01*
X72600279Y-32932500D01*
X73012756Y-32850453D01*
X73401302Y-32689512D01*
X73707708Y-32484779D01*
X73672127Y-32570678D01*
X73571100Y-33078576D01*
X73571100Y-33596424D01*
X73672127Y-34104322D01*
X73870299Y-34582751D01*
X74158000Y-35013326D01*
X74524174Y-35379500D01*
X74954749Y-35667201D01*
X75433178Y-35865373D01*
X75941076Y-35966400D01*
X76458924Y-35966400D01*
X76966822Y-35865373D01*
X77445251Y-35667201D01*
X77875826Y-35379500D01*
X78242000Y-35013326D01*
X78529701Y-34582751D01*
X78727873Y-34104322D01*
X78828900Y-33596424D01*
X78828900Y-33188778D01*
X79770000Y-33188778D01*
X79770000Y-33486222D01*
X79828029Y-33777951D01*
X79941856Y-34052753D01*
X80107107Y-34300069D01*
X80317431Y-34510393D01*
X80564747Y-34675644D01*
X80839549Y-34789471D01*
X81131278Y-34847500D01*
X81428722Y-34847500D01*
X81720451Y-34789471D01*
X81995253Y-34675644D01*
X82242569Y-34510393D01*
X82452893Y-34300069D01*
X82618144Y-34052753D01*
X82731971Y-33777951D01*
X82790000Y-33486222D01*
X82790000Y-33188778D01*
X88660000Y-33188778D01*
X88660000Y-33486222D01*
X88718029Y-33777951D01*
X88831856Y-34052753D01*
X88997107Y-34300069D01*
X89207431Y-34510393D01*
X89454747Y-34675644D01*
X89729549Y-34789471D01*
X90021278Y-34847500D01*
X90318722Y-34847500D01*
X90610451Y-34789471D01*
X90885253Y-34675644D01*
X91132569Y-34510393D01*
X91342893Y-34300069D01*
X91508144Y-34052753D01*
X91621971Y-33777951D01*
X91680000Y-33486222D01*
X91680000Y-33188778D01*
X91629023Y-32932500D01*
X91650279Y-32932500D01*
X92062756Y-32850453D01*
X92451302Y-32689512D01*
X92757708Y-32484779D01*
X92722127Y-32570678D01*
X92621100Y-33078576D01*
X92621100Y-33596424D01*
X92722127Y-34104322D01*
X92920299Y-34582751D01*
X93208000Y-35013326D01*
X93574174Y-35379500D01*
X94004749Y-35667201D01*
X94483178Y-35865373D01*
X94991076Y-35966400D01*
X95508924Y-35966400D01*
X96016822Y-35865373D01*
X96495251Y-35667201D01*
X96925826Y-35379500D01*
X97292000Y-35013326D01*
X97579701Y-34582751D01*
X97777873Y-34104322D01*
X97878900Y-33596424D01*
X97878900Y-33188778D01*
X98820000Y-33188778D01*
X98820000Y-33486222D01*
X98878029Y-33777951D01*
X98991856Y-34052753D01*
X99157107Y-34300069D01*
X99367431Y-34510393D01*
X99614747Y-34675644D01*
X99889549Y-34789471D01*
X100181278Y-34847500D01*
X100478722Y-34847500D01*
X100770451Y-34789471D01*
X101045253Y-34675644D01*
X101292569Y-34510393D01*
X101502893Y-34300069D01*
X101668144Y-34052753D01*
X101781971Y-33777951D01*
X101840000Y-33486222D01*
X101840000Y-33188778D01*
X101781971Y-32897049D01*
X101668144Y-32622247D01*
X101502893Y-32374931D01*
X101292569Y-32164607D01*
X101045253Y-31999356D01*
X100770451Y-31885529D01*
X100478722Y-31827500D01*
X100181278Y-31827500D01*
X99889549Y-31885529D01*
X99614747Y-31999356D01*
X99367431Y-32164607D01*
X99157107Y-32374931D01*
X98991856Y-32622247D01*
X98878029Y-32897049D01*
X98820000Y-33188778D01*
X97878900Y-33188778D01*
X97878900Y-33078576D01*
X97777873Y-32570678D01*
X97579701Y-32092249D01*
X97292000Y-31661674D01*
X96925826Y-31295500D01*
X96495251Y-31007799D01*
X96195566Y-30883665D01*
X101752500Y-30883665D01*
X101752500Y-31166335D01*
X101807647Y-31443574D01*
X101915820Y-31704727D01*
X102072863Y-31939759D01*
X102272741Y-32139637D01*
X102507773Y-32296680D01*
X102768926Y-32404853D01*
X103046165Y-32460000D01*
X103328835Y-32460000D01*
X103606074Y-32404853D01*
X103867227Y-32296680D01*
X104102259Y-32139637D01*
X104302137Y-31939759D01*
X104459180Y-31704727D01*
X104567353Y-31443574D01*
X104622500Y-31166335D01*
X104622500Y-30883665D01*
X104567353Y-30606426D01*
X104459180Y-30345273D01*
X104302137Y-30110241D01*
X104102259Y-29910363D01*
X103867227Y-29753320D01*
X103606074Y-29645147D01*
X103328835Y-29590000D01*
X103046165Y-29590000D01*
X102768926Y-29645147D01*
X102507773Y-29753320D01*
X102272741Y-29910363D01*
X102072863Y-30110241D01*
X101915820Y-30345273D01*
X101807647Y-30606426D01*
X101752500Y-30883665D01*
X96195566Y-30883665D01*
X96016822Y-30809627D01*
X95508924Y-30708600D01*
X94991076Y-30708600D01*
X94483178Y-30809627D01*
X94004749Y-31007799D01*
X93574174Y-31295500D01*
X93503763Y-31365911D01*
X93575000Y-31007779D01*
X93575000Y-30587221D01*
X93492953Y-30174744D01*
X93332012Y-29786198D01*
X93098363Y-29436517D01*
X92800983Y-29139137D01*
X92451302Y-28905488D01*
X92062756Y-28744547D01*
X91650279Y-28662500D01*
X91229721Y-28662500D01*
X90817244Y-28744547D01*
X90428698Y-28905488D01*
X90079017Y-29139137D01*
X89781637Y-29436517D01*
X89547988Y-29786198D01*
X89387047Y-30174744D01*
X89305000Y-30587221D01*
X89305000Y-31007779D01*
X89387047Y-31420256D01*
X89547988Y-31808802D01*
X89627499Y-31927799D01*
X89454747Y-31999356D01*
X89207431Y-32164607D01*
X88997107Y-32374931D01*
X88831856Y-32622247D01*
X88718029Y-32897049D01*
X88660000Y-33188778D01*
X82790000Y-33188778D01*
X82731971Y-32897049D01*
X82618144Y-32622247D01*
X82452893Y-32374931D01*
X82242569Y-32164607D01*
X81995253Y-31999356D01*
X81720451Y-31885529D01*
X81428722Y-31827500D01*
X81131278Y-31827500D01*
X80839549Y-31885529D01*
X80564747Y-31999356D01*
X80317431Y-32164607D01*
X80107107Y-32374931D01*
X79941856Y-32622247D01*
X79828029Y-32897049D01*
X79770000Y-33188778D01*
X78828900Y-33188778D01*
X78828900Y-33078576D01*
X78727873Y-32570678D01*
X78529701Y-32092249D01*
X78242000Y-31661674D01*
X77875826Y-31295500D01*
X77445251Y-31007799D01*
X77145566Y-30883665D01*
X82702500Y-30883665D01*
X82702500Y-31166335D01*
X82757647Y-31443574D01*
X82865820Y-31704727D01*
X83022863Y-31939759D01*
X83222741Y-32139637D01*
X83457773Y-32296680D01*
X83718926Y-32404853D01*
X83996165Y-32460000D01*
X84278835Y-32460000D01*
X84556074Y-32404853D01*
X84817227Y-32296680D01*
X85052259Y-32139637D01*
X85252137Y-31939759D01*
X85409180Y-31704727D01*
X85517353Y-31443574D01*
X85572500Y-31166335D01*
X85572500Y-30883665D01*
X85517353Y-30606426D01*
X85409180Y-30345273D01*
X85252137Y-30110241D01*
X85052259Y-29910363D01*
X84817227Y-29753320D01*
X84556074Y-29645147D01*
X84278835Y-29590000D01*
X83996165Y-29590000D01*
X83718926Y-29645147D01*
X83457773Y-29753320D01*
X83222741Y-29910363D01*
X83022863Y-30110241D01*
X82865820Y-30345273D01*
X82757647Y-30606426D01*
X82702500Y-30883665D01*
X77145566Y-30883665D01*
X76966822Y-30809627D01*
X76458924Y-30708600D01*
X75941076Y-30708600D01*
X75433178Y-30809627D01*
X74954749Y-31007799D01*
X74524174Y-31295500D01*
X74453763Y-31365911D01*
X74525000Y-31007779D01*
X74525000Y-30587221D01*
X74442953Y-30174744D01*
X74282012Y-29786198D01*
X74048363Y-29436517D01*
X73750983Y-29139137D01*
X73401302Y-28905488D01*
X73012756Y-28744547D01*
X72600279Y-28662500D01*
X72179721Y-28662500D01*
X71767244Y-28744547D01*
X71378698Y-28905488D01*
X71029017Y-29139137D01*
X70731637Y-29436517D01*
X70497988Y-29786198D01*
X70337047Y-30174744D01*
X70255000Y-30587221D01*
X70255000Y-31007779D01*
X70337047Y-31420256D01*
X70497988Y-31808802D01*
X70577499Y-31927799D01*
X70404747Y-31999356D01*
X70157431Y-32164607D01*
X69947107Y-32374931D01*
X69781856Y-32622247D01*
X69668029Y-32897049D01*
X69610000Y-33188778D01*
X63740000Y-33188778D01*
X63681971Y-32897049D01*
X63568144Y-32622247D01*
X63402893Y-32374931D01*
X63192569Y-32164607D01*
X62945253Y-31999356D01*
X62670451Y-31885529D01*
X62378722Y-31827500D01*
X62081278Y-31827500D01*
X61789549Y-31885529D01*
X61514747Y-31999356D01*
X61267431Y-32164607D01*
X61057107Y-32374931D01*
X60891856Y-32622247D01*
X60778029Y-32897049D01*
X60720000Y-33188778D01*
X59778900Y-33188778D01*
X59778900Y-33078576D01*
X59677873Y-32570678D01*
X59479701Y-32092249D01*
X59192000Y-31661674D01*
X58825826Y-31295500D01*
X58395251Y-31007799D01*
X58095566Y-30883665D01*
X63589000Y-30883665D01*
X63589000Y-31166335D01*
X63644147Y-31443574D01*
X63752320Y-31704727D01*
X63909363Y-31939759D01*
X64109241Y-32139637D01*
X64344273Y-32296680D01*
X64605426Y-32404853D01*
X64882665Y-32460000D01*
X65165335Y-32460000D01*
X65442574Y-32404853D01*
X65703727Y-32296680D01*
X65938759Y-32139637D01*
X66138637Y-31939759D01*
X66295680Y-31704727D01*
X66403853Y-31443574D01*
X66459000Y-31166335D01*
X66459000Y-30883665D01*
X66403853Y-30606426D01*
X66295680Y-30345273D01*
X66138637Y-30110241D01*
X65938759Y-29910363D01*
X65703727Y-29753320D01*
X65442574Y-29645147D01*
X65165335Y-29590000D01*
X64882665Y-29590000D01*
X64605426Y-29645147D01*
X64344273Y-29753320D01*
X64109241Y-29910363D01*
X63909363Y-30110241D01*
X63752320Y-30345273D01*
X63644147Y-30606426D01*
X63589000Y-30883665D01*
X58095566Y-30883665D01*
X57916822Y-30809627D01*
X57408924Y-30708600D01*
X56891076Y-30708600D01*
X56383178Y-30809627D01*
X55904749Y-31007799D01*
X55474174Y-31295500D01*
X55403763Y-31365911D01*
X55475000Y-31007779D01*
X55475000Y-30587221D01*
X55392953Y-30174744D01*
X55232012Y-29786198D01*
X54998363Y-29436517D01*
X54700983Y-29139137D01*
X54351302Y-28905488D01*
X53962756Y-28744547D01*
X53550279Y-28662500D01*
X53129721Y-28662500D01*
X52717244Y-28744547D01*
X52328698Y-28905488D01*
X51979017Y-29139137D01*
X51681637Y-29436517D01*
X51447988Y-29786198D01*
X51287047Y-30174744D01*
X51205000Y-30587221D01*
X51205000Y-31007779D01*
X51287047Y-31420256D01*
X51447988Y-31808802D01*
X51527499Y-31927799D01*
X51354747Y-31999356D01*
X51107431Y-32164607D01*
X50897107Y-32374931D01*
X50731856Y-32622247D01*
X50618029Y-32897049D01*
X50560000Y-33188778D01*
X46697500Y-33188778D01*
X46697500Y-28047221D01*
X57555000Y-28047221D01*
X57555000Y-28467779D01*
X57637047Y-28880256D01*
X57797988Y-29268802D01*
X58031637Y-29618483D01*
X58329017Y-29915863D01*
X58678698Y-30149512D01*
X59067244Y-30310453D01*
X59479721Y-30392500D01*
X59900279Y-30392500D01*
X60312756Y-30310453D01*
X60701302Y-30149512D01*
X61050983Y-29915863D01*
X61348363Y-29618483D01*
X61582012Y-29268802D01*
X61742953Y-28880256D01*
X61825000Y-28467779D01*
X61825000Y-28047221D01*
X76605000Y-28047221D01*
X76605000Y-28467779D01*
X76687047Y-28880256D01*
X76847988Y-29268802D01*
X77081637Y-29618483D01*
X77379017Y-29915863D01*
X77728698Y-30149512D01*
X78117244Y-30310453D01*
X78529721Y-30392500D01*
X78950279Y-30392500D01*
X79362756Y-30310453D01*
X79751302Y-30149512D01*
X80100983Y-29915863D01*
X80398363Y-29618483D01*
X80632012Y-29268802D01*
X80792953Y-28880256D01*
X80875000Y-28467779D01*
X80875000Y-28047221D01*
X95655000Y-28047221D01*
X95655000Y-28467779D01*
X95737047Y-28880256D01*
X95897988Y-29268802D01*
X96131637Y-29618483D01*
X96429017Y-29915863D01*
X96778698Y-30149512D01*
X97167244Y-30310453D01*
X97579721Y-30392500D01*
X98000279Y-30392500D01*
X98412756Y-30310453D01*
X98801302Y-30149512D01*
X99150983Y-29915863D01*
X99448363Y-29618483D01*
X99682012Y-29268802D01*
X99842953Y-28880256D01*
X99925000Y-28467779D01*
X99925000Y-28047221D01*
X99842953Y-27634744D01*
X99682012Y-27246198D01*
X99448363Y-26896517D01*
X99150983Y-26599137D01*
X98801302Y-26365488D01*
X98412756Y-26204547D01*
X98000279Y-26122500D01*
X97579721Y-26122500D01*
X97167244Y-26204547D01*
X96778698Y-26365488D01*
X96429017Y-26599137D01*
X96131637Y-26896517D01*
X95897988Y-27246198D01*
X95737047Y-27634744D01*
X95655000Y-28047221D01*
X80875000Y-28047221D01*
X80792953Y-27634744D01*
X80632012Y-27246198D01*
X80398363Y-26896517D01*
X80100983Y-26599137D01*
X79751302Y-26365488D01*
X79362756Y-26204547D01*
X78950279Y-26122500D01*
X78529721Y-26122500D01*
X78117244Y-26204547D01*
X77728698Y-26365488D01*
X77379017Y-26599137D01*
X77081637Y-26896517D01*
X76847988Y-27246198D01*
X76687047Y-27634744D01*
X76605000Y-28047221D01*
X61825000Y-28047221D01*
X61742953Y-27634744D01*
X61582012Y-27246198D01*
X61348363Y-26896517D01*
X61050983Y-26599137D01*
X60701302Y-26365488D01*
X60312756Y-26204547D01*
X59900279Y-26122500D01*
X59479721Y-26122500D01*
X59067244Y-26204547D01*
X58678698Y-26365488D01*
X58329017Y-26599137D01*
X58031637Y-26896517D01*
X57797988Y-27246198D01*
X57637047Y-27634744D01*
X57555000Y-28047221D01*
X46697500Y-28047221D01*
X46697500Y-23844779D01*
X46718269Y-23632962D01*
X46770410Y-23460263D01*
X46855102Y-23300982D01*
X46969119Y-23161181D01*
X47108117Y-23046192D01*
X47266805Y-22960390D01*
X47439135Y-22907045D01*
X47648880Y-22885000D01*
X104742721Y-22885000D01*
X104954538Y-22905769D01*
G37*
%TD.AperFunction*%
%TD*%
M02*
