M48
; DRILL file {KiCad (5.1.8)-1} date 11/20/20 23:41:07
; FORMAT={-:-/ absolute / inch / decimal}
; #@! TF.CreationDate,2020-11-20T23:41:07-06:00
; #@! TF.GenerationSoftware,Kicad,Pcbnew,(5.1.8)-1
; #@! TF.FileFunction,Plated,1,2,PTH
FMAT,2
INCH
T1C0.0157
T2C0.0236
T3C0.0276
T4C0.0394
T5C0.0591
%
G90
G05
T1
X2.72Y-1.425
X2.72Y-1.77
X2.785Y-2.175
X2.9Y-2.29
X3.135Y-3.335
X3.155Y-3.08
X3.165Y-2.415
X3.47Y-1.425
X3.47Y-1.775
X3.475Y-2.17
T3
X2.1465Y-2.675
X2.4535Y-2.675
X3.3125Y-1.9715
X3.3125Y-2.2785
X4.0625Y-1.9715
X4.0625Y-2.2785
X3.3125Y-1.2215
X3.3125Y-1.5285
X2.56Y-1.9715
X2.56Y-2.2785
X4.0625Y-1.2215
X4.0625Y-1.5285
X2.56Y-1.2215
X2.56Y-1.5285
T4
X2.1203Y-2.5682
X2.1203Y-3.139
X2.2188Y-3.139
X2.3172Y-2.5682
X2.3172Y-3.139
T2
G00X3.7049Y-3.3172
M15
G01X3.7049Y-3.2739
M16
G05
G00X3.7049Y-3.4719
M15
G01X3.7049Y-3.4483
M16
G05
G00X4.0451Y-3.3172
M15
G01X4.0451Y-3.2739
M16
G05
G00X4.0451Y-3.4719
M15
G01X4.0451Y-3.4483
M16
G05
T5
G00X1.9983Y-2.8693
M15
G01X1.9983Y-2.8182
M16
G05
G00X2.4392Y-2.8693
M15
G01X2.4392Y-2.8182
M16
G05
T0
M30
