%TF.GenerationSoftware,KiCad,Pcbnew,(5.1.8)-1*%
%TF.CreationDate,2020-11-20T23:41:01-06:00*%
%TF.ProjectId,testpcb,74657374-7063-4622-9e6b-696361645f70,0*%
%TF.SameCoordinates,Original*%
%TF.FileFunction,Legend,Bot*%
%TF.FilePolarity,Positive*%
%FSLAX46Y46*%
G04 Gerber Fmt 4.6, Leading zero omitted, Abs format (unit mm)*
G04 Created by KiCad (PCBNEW (5.1.8)-1) date 2020-11-20 23:41:01*
%MOMM*%
%LPD*%
G01*
G04 APERTURE LIST*
%ADD10C,0.150000*%
%ADD11C,0.120000*%
%ADD12C,0.200000*%
G04 APERTURE END LIST*
D10*
%TO.C,U1*%
X82137000Y-66139000D02*
X83412000Y-66139000D01*
X71787000Y-65564000D02*
X72462000Y-65564000D01*
X71787000Y-75914000D02*
X72462000Y-75914000D01*
X82137000Y-75914000D02*
X81462000Y-75914000D01*
X82137000Y-65564000D02*
X81462000Y-65564000D01*
X82137000Y-75914000D02*
X82137000Y-75239000D01*
X71787000Y-75914000D02*
X71787000Y-75239000D01*
X71787000Y-65564000D02*
X71787000Y-66239000D01*
X82137000Y-65564000D02*
X82137000Y-66139000D01*
D11*
%TO.C,Y1*%
X86797987Y-79715060D02*
X89131440Y-82048513D01*
X89131440Y-82048513D02*
X86303013Y-84876940D01*
%TO.C,C1*%
X83306043Y-85107490D02*
X83675510Y-85476957D01*
X84345490Y-84068043D02*
X84714957Y-84437510D01*
%TO.C,C2*%
X89361990Y-79051543D02*
X89731457Y-79421010D01*
X88322543Y-80090990D02*
X88692010Y-80460457D01*
%TO.C,C3*%
X84863000Y-65031252D02*
X84863000Y-64508748D01*
X86333000Y-65031252D02*
X86333000Y-64508748D01*
%TO.C,C4*%
X67698252Y-62892000D02*
X67175748Y-62892000D01*
X67698252Y-64362000D02*
X67175748Y-64362000D01*
%TO.C,C5*%
X85147543Y-76373010D02*
X85517010Y-76003543D01*
X86186990Y-77412457D02*
X86556457Y-77042990D01*
%TO.C,C6*%
X68206252Y-75211000D02*
X67683748Y-75211000D01*
X68206252Y-76681000D02*
X67683748Y-76681000D01*
%TO.C,C7*%
X82479248Y-62193500D02*
X83001752Y-62193500D01*
X82479248Y-63663500D02*
X83001752Y-63663500D01*
%TO.C,C8*%
X87241748Y-72363000D02*
X87764252Y-72363000D01*
X87241748Y-70893000D02*
X87764252Y-70893000D01*
D12*
%TO.C,D1*%
X66224000Y-37200000D02*
X63824000Y-37200000D01*
X66224000Y-37375000D02*
X63824000Y-37375000D01*
X66224000Y-37550000D02*
X63824000Y-37550000D01*
X63824000Y-37950000D02*
X66224000Y-37950000D01*
X66224000Y-37725000D02*
X63824000Y-37725000D01*
X66224000Y-37850000D02*
X63824000Y-37850000D01*
X66224000Y-37925000D02*
X66224000Y-32125000D01*
X66224000Y-32125000D02*
X63824000Y-32125000D01*
X63824000Y-32125000D02*
X63824000Y-37925000D01*
%TO.C,D2*%
X63824000Y-51175000D02*
X63824000Y-56975000D01*
X66224000Y-51175000D02*
X63824000Y-51175000D01*
X66224000Y-56975000D02*
X66224000Y-51175000D01*
X66224000Y-56900000D02*
X63824000Y-56900000D01*
X66224000Y-56775000D02*
X63824000Y-56775000D01*
X63824000Y-57000000D02*
X66224000Y-57000000D01*
X66224000Y-56600000D02*
X63824000Y-56600000D01*
X66224000Y-56425000D02*
X63824000Y-56425000D01*
X66224000Y-56250000D02*
X63824000Y-56250000D01*
%TO.C,D3*%
X85337500Y-37200000D02*
X82937500Y-37200000D01*
X85337500Y-37375000D02*
X82937500Y-37375000D01*
X85337500Y-37550000D02*
X82937500Y-37550000D01*
X82937500Y-37950000D02*
X85337500Y-37950000D01*
X85337500Y-37725000D02*
X82937500Y-37725000D01*
X85337500Y-37850000D02*
X82937500Y-37850000D01*
X85337500Y-37925000D02*
X85337500Y-32125000D01*
X85337500Y-32125000D02*
X82937500Y-32125000D01*
X82937500Y-32125000D02*
X82937500Y-37925000D01*
%TO.C,D4*%
X82937500Y-51175000D02*
X82937500Y-56975000D01*
X85337500Y-51175000D02*
X82937500Y-51175000D01*
X85337500Y-56975000D02*
X85337500Y-51175000D01*
X85337500Y-56900000D02*
X82937500Y-56900000D01*
X85337500Y-56775000D02*
X82937500Y-56775000D01*
X82937500Y-57000000D02*
X85337500Y-57000000D01*
X85337500Y-56600000D02*
X82937500Y-56600000D01*
X85337500Y-56425000D02*
X82937500Y-56425000D01*
X85337500Y-56250000D02*
X82937500Y-56250000D01*
%TO.C,D5*%
X101987500Y-32125000D02*
X101987500Y-37925000D01*
X104387500Y-32125000D02*
X101987500Y-32125000D01*
X104387500Y-37925000D02*
X104387500Y-32125000D01*
X104387500Y-37850000D02*
X101987500Y-37850000D01*
X104387500Y-37725000D02*
X101987500Y-37725000D01*
X101987500Y-37950000D02*
X104387500Y-37950000D01*
X104387500Y-37550000D02*
X101987500Y-37550000D01*
X104387500Y-37375000D02*
X101987500Y-37375000D01*
X104387500Y-37200000D02*
X101987500Y-37200000D01*
%TO.C,D6*%
X101987500Y-51175000D02*
X101987500Y-56975000D01*
X104387500Y-51175000D02*
X101987500Y-51175000D01*
X104387500Y-56975000D02*
X104387500Y-51175000D01*
X104387500Y-56900000D02*
X101987500Y-56900000D01*
X104387500Y-56775000D02*
X101987500Y-56775000D01*
X101987500Y-57000000D02*
X104387500Y-57000000D01*
X104387500Y-56600000D02*
X101987500Y-56600000D01*
X104387500Y-56425000D02*
X101987500Y-56425000D01*
X104387500Y-56250000D02*
X101987500Y-56250000D01*
%TO.C,D7*%
X60695000Y-66745000D02*
X60695000Y-69145000D01*
X60870000Y-66745000D02*
X60870000Y-69145000D01*
X61045000Y-66745000D02*
X61045000Y-69145000D01*
X61445000Y-69145000D02*
X61445000Y-66745000D01*
X61220000Y-66745000D02*
X61220000Y-69145000D01*
X61345000Y-66745000D02*
X61345000Y-69145000D01*
X61420000Y-66745000D02*
X55620000Y-66745000D01*
X55620000Y-66745000D02*
X55620000Y-69145000D01*
X55620000Y-69145000D02*
X61420000Y-69145000D01*
D11*
%TO.C,R1*%
X75226000Y-84162737D02*
X75226000Y-82715263D01*
X77936000Y-84162737D02*
X77936000Y-82715263D01*
%TO.C,R2*%
X65316263Y-67649000D02*
X66763737Y-67649000D01*
X65316263Y-64939000D02*
X66763737Y-64939000D01*
%TO.C,R3*%
X100245000Y-71507513D02*
X100245000Y-72954987D01*
X102955000Y-71507513D02*
X102955000Y-72954987D01*
%TO.C,R4*%
X96605000Y-71507513D02*
X96605000Y-72954987D01*
X93895000Y-71507513D02*
X93895000Y-72954987D01*
%TO.C,R5*%
X98657500Y-66745013D02*
X98657500Y-68192487D01*
X101367500Y-66745013D02*
X101367500Y-68192487D01*
%TO.C,R6*%
X98192500Y-66745013D02*
X98192500Y-68192487D01*
X95482500Y-66745013D02*
X95482500Y-68192487D01*
%TO.C,SW1*%
X66949000Y-86697000D02*
X69449000Y-86697000D01*
X65449000Y-84947000D02*
X65449000Y-82947000D01*
X66949000Y-81197000D02*
X69449000Y-81197000D01*
X70949000Y-84947000D02*
X70949000Y-82947000D01*
X66499000Y-86247000D02*
X66949000Y-86697000D01*
X69899000Y-86247000D02*
X69449000Y-86697000D01*
X69899000Y-81647000D02*
X69449000Y-81197000D01*
X66499000Y-81647000D02*
X66949000Y-81197000D01*
%TO.C,U1*%
D10*
X77723904Y-62741380D02*
X77723904Y-63550904D01*
X77676285Y-63646142D01*
X77628666Y-63693761D01*
X77533428Y-63741380D01*
X77342952Y-63741380D01*
X77247714Y-63693761D01*
X77200095Y-63646142D01*
X77152476Y-63550904D01*
X77152476Y-62741380D01*
X76152476Y-63741380D02*
X76723904Y-63741380D01*
X76438190Y-63741380D02*
X76438190Y-62741380D01*
X76533428Y-62884238D01*
X76628666Y-62979476D01*
X76723904Y-63027095D01*
%TO.C,K6*%
X95988095Y-55887880D02*
X95988095Y-54887880D01*
X95416666Y-55887880D02*
X95845238Y-55316452D01*
X95416666Y-54887880D02*
X95988095Y-55459309D01*
X94559523Y-54887880D02*
X94750000Y-54887880D01*
X94845238Y-54935500D01*
X94892857Y-54983119D01*
X94988095Y-55125976D01*
X95035714Y-55316452D01*
X95035714Y-55697404D01*
X94988095Y-55792642D01*
X94940476Y-55840261D01*
X94845238Y-55887880D01*
X94654761Y-55887880D01*
X94559523Y-55840261D01*
X94511904Y-55792642D01*
X94464285Y-55697404D01*
X94464285Y-55459309D01*
X94511904Y-55364071D01*
X94559523Y-55316452D01*
X94654761Y-55268833D01*
X94845238Y-55268833D01*
X94940476Y-55316452D01*
X94988095Y-55364071D01*
X95035714Y-55459309D01*
%TO.C,K5*%
X95988095Y-36837880D02*
X95988095Y-35837880D01*
X95416666Y-36837880D02*
X95845238Y-36266452D01*
X95416666Y-35837880D02*
X95988095Y-36409309D01*
X94511904Y-35837880D02*
X94988095Y-35837880D01*
X95035714Y-36314071D01*
X94988095Y-36266452D01*
X94892857Y-36218833D01*
X94654761Y-36218833D01*
X94559523Y-36266452D01*
X94511904Y-36314071D01*
X94464285Y-36409309D01*
X94464285Y-36647404D01*
X94511904Y-36742642D01*
X94559523Y-36790261D01*
X94654761Y-36837880D01*
X94892857Y-36837880D01*
X94988095Y-36790261D01*
X95035714Y-36742642D01*
%TO.C,K4*%
X76938095Y-55887880D02*
X76938095Y-54887880D01*
X76366666Y-55887880D02*
X76795238Y-55316452D01*
X76366666Y-54887880D02*
X76938095Y-55459309D01*
X75509523Y-55221214D02*
X75509523Y-55887880D01*
X75747619Y-54840261D02*
X75985714Y-55554547D01*
X75366666Y-55554547D01*
%TO.C,K3*%
X76938095Y-36837880D02*
X76938095Y-35837880D01*
X76366666Y-36837880D02*
X76795238Y-36266452D01*
X76366666Y-35837880D02*
X76938095Y-36409309D01*
X76033333Y-35837880D02*
X75414285Y-35837880D01*
X75747619Y-36218833D01*
X75604761Y-36218833D01*
X75509523Y-36266452D01*
X75461904Y-36314071D01*
X75414285Y-36409309D01*
X75414285Y-36647404D01*
X75461904Y-36742642D01*
X75509523Y-36790261D01*
X75604761Y-36837880D01*
X75890476Y-36837880D01*
X75985714Y-36790261D01*
X76033333Y-36742642D01*
%TO.C,K2*%
X57888095Y-55887880D02*
X57888095Y-54887880D01*
X57316666Y-55887880D02*
X57745238Y-55316452D01*
X57316666Y-54887880D02*
X57888095Y-55459309D01*
X56935714Y-54983119D02*
X56888095Y-54935500D01*
X56792857Y-54887880D01*
X56554761Y-54887880D01*
X56459523Y-54935500D01*
X56411904Y-54983119D01*
X56364285Y-55078357D01*
X56364285Y-55173595D01*
X56411904Y-55316452D01*
X56983333Y-55887880D01*
X56364285Y-55887880D01*
%TO.C,K1*%
X57888095Y-36837880D02*
X57888095Y-35837880D01*
X57316666Y-36837880D02*
X57745238Y-36266452D01*
X57316666Y-35837880D02*
X57888095Y-36409309D01*
X56364285Y-36837880D02*
X56935714Y-36837880D01*
X56650000Y-36837880D02*
X56650000Y-35837880D01*
X56745238Y-35980738D01*
X56840476Y-36075976D01*
X56935714Y-36123595D01*
%TO.C,J1*%
X98758333Y-80689880D02*
X98758333Y-81404166D01*
X98805952Y-81547023D01*
X98901190Y-81642261D01*
X99044047Y-81689880D01*
X99139285Y-81689880D01*
X97758333Y-81689880D02*
X98329761Y-81689880D01*
X98044047Y-81689880D02*
X98044047Y-80689880D01*
X98139285Y-80832738D01*
X98234523Y-80927976D01*
X98329761Y-80975595D01*
%TO.C,Y1*%
X85137969Y-80210034D02*
X85474687Y-80546752D01*
X85003282Y-79603943D02*
X85137969Y-80210034D01*
X84531878Y-80075347D01*
X84632893Y-81388545D02*
X85036954Y-80984484D01*
X84834923Y-81186515D02*
X84127817Y-80479408D01*
X84296175Y-80513080D01*
X84430862Y-80513080D01*
X84531878Y-80479408D01*
%TO.C,C1*%
X82687873Y-86330828D02*
X82687873Y-86398171D01*
X82755217Y-86532858D01*
X82822561Y-86600202D01*
X82957248Y-86667545D01*
X83091935Y-86667545D01*
X83192950Y-86633874D01*
X83361309Y-86532858D01*
X83462324Y-86431843D01*
X83563339Y-86263484D01*
X83597011Y-86162469D01*
X83597011Y-86027782D01*
X83529667Y-85893095D01*
X83462324Y-85825751D01*
X83327637Y-85758408D01*
X83260293Y-85758408D01*
X81947095Y-85724736D02*
X82351156Y-86128797D01*
X82149125Y-85926767D02*
X82856232Y-85219660D01*
X82822561Y-85388019D01*
X82822561Y-85522706D01*
X82856232Y-85623721D01*
%TO.C,C2*%
X87704373Y-81314328D02*
X87704373Y-81381671D01*
X87771717Y-81516358D01*
X87839061Y-81583702D01*
X87973748Y-81651045D01*
X88108435Y-81651045D01*
X88209450Y-81617374D01*
X88377809Y-81516358D01*
X88478824Y-81415343D01*
X88579839Y-81246984D01*
X88613511Y-81145969D01*
X88613511Y-81011282D01*
X88546167Y-80876595D01*
X88478824Y-80809251D01*
X88344137Y-80741908D01*
X88276793Y-80741908D01*
X88007419Y-80472534D02*
X88007419Y-80405190D01*
X87973748Y-80304175D01*
X87805389Y-80135816D01*
X87704373Y-80102145D01*
X87637030Y-80102145D01*
X87536015Y-80135816D01*
X87468671Y-80203160D01*
X87401328Y-80337847D01*
X87401328Y-81145969D01*
X86963595Y-80708236D01*
%TO.C,C3*%
X87635142Y-64603333D02*
X87682761Y-64555714D01*
X87730380Y-64412857D01*
X87730380Y-64317619D01*
X87682761Y-64174761D01*
X87587523Y-64079523D01*
X87492285Y-64031904D01*
X87301809Y-63984285D01*
X87158952Y-63984285D01*
X86968476Y-64031904D01*
X86873238Y-64079523D01*
X86778000Y-64174761D01*
X86730380Y-64317619D01*
X86730380Y-64412857D01*
X86778000Y-64555714D01*
X86825619Y-64603333D01*
X86730380Y-64936666D02*
X86730380Y-65555714D01*
X87111333Y-65222380D01*
X87111333Y-65365238D01*
X87158952Y-65460476D01*
X87206571Y-65508095D01*
X87301809Y-65555714D01*
X87539904Y-65555714D01*
X87635142Y-65508095D01*
X87682761Y-65460476D01*
X87730380Y-65365238D01*
X87730380Y-65079523D01*
X87682761Y-64984285D01*
X87635142Y-64936666D01*
%TO.C,C4*%
X67603666Y-62304142D02*
X67651285Y-62351761D01*
X67794142Y-62399380D01*
X67889380Y-62399380D01*
X68032238Y-62351761D01*
X68127476Y-62256523D01*
X68175095Y-62161285D01*
X68222714Y-61970809D01*
X68222714Y-61827952D01*
X68175095Y-61637476D01*
X68127476Y-61542238D01*
X68032238Y-61447000D01*
X67889380Y-61399380D01*
X67794142Y-61399380D01*
X67651285Y-61447000D01*
X67603666Y-61494619D01*
X66746523Y-61732714D02*
X66746523Y-62399380D01*
X66984619Y-61351761D02*
X67222714Y-62066047D01*
X66603666Y-62066047D01*
%TO.C,C5*%
X87410328Y-78030626D02*
X87477671Y-78030626D01*
X87612358Y-77963282D01*
X87679702Y-77895939D01*
X87747045Y-77761251D01*
X87747045Y-77626564D01*
X87713374Y-77525549D01*
X87612358Y-77357190D01*
X87511343Y-77256175D01*
X87342984Y-77155160D01*
X87241969Y-77121488D01*
X87107282Y-77121488D01*
X86972595Y-77188832D01*
X86905251Y-77256175D01*
X86837908Y-77390862D01*
X86837908Y-77458206D01*
X86130801Y-78030626D02*
X86467519Y-77693908D01*
X86837908Y-77996954D01*
X86770564Y-77996954D01*
X86669549Y-78030626D01*
X86501190Y-78198984D01*
X86467519Y-78300000D01*
X86467519Y-78367343D01*
X86501190Y-78468358D01*
X86669549Y-78636717D01*
X86770564Y-78670389D01*
X86837908Y-78670389D01*
X86938923Y-78636717D01*
X87107282Y-78468358D01*
X87140954Y-78367343D01*
X87140954Y-78300000D01*
%TO.C,C6*%
X68111666Y-74623142D02*
X68159285Y-74670761D01*
X68302142Y-74718380D01*
X68397380Y-74718380D01*
X68540238Y-74670761D01*
X68635476Y-74575523D01*
X68683095Y-74480285D01*
X68730714Y-74289809D01*
X68730714Y-74146952D01*
X68683095Y-73956476D01*
X68635476Y-73861238D01*
X68540238Y-73766000D01*
X68397380Y-73718380D01*
X68302142Y-73718380D01*
X68159285Y-73766000D01*
X68111666Y-73813619D01*
X67254523Y-73718380D02*
X67445000Y-73718380D01*
X67540238Y-73766000D01*
X67587857Y-73813619D01*
X67683095Y-73956476D01*
X67730714Y-74146952D01*
X67730714Y-74527904D01*
X67683095Y-74623142D01*
X67635476Y-74670761D01*
X67540238Y-74718380D01*
X67349761Y-74718380D01*
X67254523Y-74670761D01*
X67206904Y-74623142D01*
X67159285Y-74527904D01*
X67159285Y-74289809D01*
X67206904Y-74194571D01*
X67254523Y-74146952D01*
X67349761Y-74099333D01*
X67540238Y-74099333D01*
X67635476Y-74146952D01*
X67683095Y-74194571D01*
X67730714Y-74289809D01*
%TO.C,C7*%
X82907166Y-64965642D02*
X82954785Y-65013261D01*
X83097642Y-65060880D01*
X83192880Y-65060880D01*
X83335738Y-65013261D01*
X83430976Y-64918023D01*
X83478595Y-64822785D01*
X83526214Y-64632309D01*
X83526214Y-64489452D01*
X83478595Y-64298976D01*
X83430976Y-64203738D01*
X83335738Y-64108500D01*
X83192880Y-64060880D01*
X83097642Y-64060880D01*
X82954785Y-64108500D01*
X82907166Y-64156119D01*
X82573833Y-64060880D02*
X81907166Y-64060880D01*
X82335738Y-65060880D01*
%TO.C,C8*%
X87669666Y-73665142D02*
X87717285Y-73712761D01*
X87860142Y-73760380D01*
X87955380Y-73760380D01*
X88098238Y-73712761D01*
X88193476Y-73617523D01*
X88241095Y-73522285D01*
X88288714Y-73331809D01*
X88288714Y-73188952D01*
X88241095Y-72998476D01*
X88193476Y-72903238D01*
X88098238Y-72808000D01*
X87955380Y-72760380D01*
X87860142Y-72760380D01*
X87717285Y-72808000D01*
X87669666Y-72855619D01*
X87098238Y-73188952D02*
X87193476Y-73141333D01*
X87241095Y-73093714D01*
X87288714Y-72998476D01*
X87288714Y-72950857D01*
X87241095Y-72855619D01*
X87193476Y-72808000D01*
X87098238Y-72760380D01*
X86907761Y-72760380D01*
X86812523Y-72808000D01*
X86764904Y-72855619D01*
X86717285Y-72950857D01*
X86717285Y-72998476D01*
X86764904Y-73093714D01*
X86812523Y-73141333D01*
X86907761Y-73188952D01*
X87098238Y-73188952D01*
X87193476Y-73236571D01*
X87241095Y-73284190D01*
X87288714Y-73379428D01*
X87288714Y-73569904D01*
X87241095Y-73665142D01*
X87193476Y-73712761D01*
X87098238Y-73760380D01*
X86907761Y-73760380D01*
X86812523Y-73712761D01*
X86764904Y-73665142D01*
X86717285Y-73569904D01*
X86717285Y-73379428D01*
X86764904Y-73284190D01*
X86812523Y-73236571D01*
X86907761Y-73188952D01*
%TO.C,D1*%
X63460904Y-34334523D02*
X62660904Y-34334523D01*
X62660904Y-34525000D01*
X62699000Y-34639285D01*
X62775190Y-34715476D01*
X62851380Y-34753571D01*
X63003761Y-34791666D01*
X63118047Y-34791666D01*
X63270428Y-34753571D01*
X63346619Y-34715476D01*
X63422809Y-34639285D01*
X63460904Y-34525000D01*
X63460904Y-34334523D01*
X63460904Y-35553571D02*
X63460904Y-35096428D01*
X63460904Y-35325000D02*
X62660904Y-35325000D01*
X62775190Y-35248809D01*
X62851380Y-35172619D01*
X62889476Y-35096428D01*
%TO.C,D2*%
X63460904Y-53384523D02*
X62660904Y-53384523D01*
X62660904Y-53575000D01*
X62699000Y-53689285D01*
X62775190Y-53765476D01*
X62851380Y-53803571D01*
X63003761Y-53841666D01*
X63118047Y-53841666D01*
X63270428Y-53803571D01*
X63346619Y-53765476D01*
X63422809Y-53689285D01*
X63460904Y-53575000D01*
X63460904Y-53384523D01*
X62737095Y-54146428D02*
X62699000Y-54184523D01*
X62660904Y-54260714D01*
X62660904Y-54451190D01*
X62699000Y-54527380D01*
X62737095Y-54565476D01*
X62813285Y-54603571D01*
X62889476Y-54603571D01*
X63003761Y-54565476D01*
X63460904Y-54108333D01*
X63460904Y-54603571D01*
%TO.C,D3*%
X82574404Y-34334523D02*
X81774404Y-34334523D01*
X81774404Y-34525000D01*
X81812500Y-34639285D01*
X81888690Y-34715476D01*
X81964880Y-34753571D01*
X82117261Y-34791666D01*
X82231547Y-34791666D01*
X82383928Y-34753571D01*
X82460119Y-34715476D01*
X82536309Y-34639285D01*
X82574404Y-34525000D01*
X82574404Y-34334523D01*
X81774404Y-35058333D02*
X81774404Y-35553571D01*
X82079166Y-35286904D01*
X82079166Y-35401190D01*
X82117261Y-35477380D01*
X82155357Y-35515476D01*
X82231547Y-35553571D01*
X82422023Y-35553571D01*
X82498214Y-35515476D01*
X82536309Y-35477380D01*
X82574404Y-35401190D01*
X82574404Y-35172619D01*
X82536309Y-35096428D01*
X82498214Y-35058333D01*
%TO.C,D4*%
X82574404Y-53384523D02*
X81774404Y-53384523D01*
X81774404Y-53575000D01*
X81812500Y-53689285D01*
X81888690Y-53765476D01*
X81964880Y-53803571D01*
X82117261Y-53841666D01*
X82231547Y-53841666D01*
X82383928Y-53803571D01*
X82460119Y-53765476D01*
X82536309Y-53689285D01*
X82574404Y-53575000D01*
X82574404Y-53384523D01*
X82041071Y-54527380D02*
X82574404Y-54527380D01*
X81736309Y-54336904D02*
X82307738Y-54146428D01*
X82307738Y-54641666D01*
%TO.C,D5*%
X101624404Y-34334523D02*
X100824404Y-34334523D01*
X100824404Y-34525000D01*
X100862500Y-34639285D01*
X100938690Y-34715476D01*
X101014880Y-34753571D01*
X101167261Y-34791666D01*
X101281547Y-34791666D01*
X101433928Y-34753571D01*
X101510119Y-34715476D01*
X101586309Y-34639285D01*
X101624404Y-34525000D01*
X101624404Y-34334523D01*
X100824404Y-35515476D02*
X100824404Y-35134523D01*
X101205357Y-35096428D01*
X101167261Y-35134523D01*
X101129166Y-35210714D01*
X101129166Y-35401190D01*
X101167261Y-35477380D01*
X101205357Y-35515476D01*
X101281547Y-35553571D01*
X101472023Y-35553571D01*
X101548214Y-35515476D01*
X101586309Y-35477380D01*
X101624404Y-35401190D01*
X101624404Y-35210714D01*
X101586309Y-35134523D01*
X101548214Y-35096428D01*
%TO.C,D6*%
X101624404Y-53384523D02*
X100824404Y-53384523D01*
X100824404Y-53575000D01*
X100862500Y-53689285D01*
X100938690Y-53765476D01*
X101014880Y-53803571D01*
X101167261Y-53841666D01*
X101281547Y-53841666D01*
X101433928Y-53803571D01*
X101510119Y-53765476D01*
X101586309Y-53689285D01*
X101624404Y-53575000D01*
X101624404Y-53384523D01*
X100824404Y-54527380D02*
X100824404Y-54375000D01*
X100862500Y-54298809D01*
X100900595Y-54260714D01*
X101014880Y-54184523D01*
X101167261Y-54146428D01*
X101472023Y-54146428D01*
X101548214Y-54184523D01*
X101586309Y-54222619D01*
X101624404Y-54298809D01*
X101624404Y-54451190D01*
X101586309Y-54527380D01*
X101548214Y-54565476D01*
X101472023Y-54603571D01*
X101281547Y-54603571D01*
X101205357Y-54565476D01*
X101167261Y-54527380D01*
X101129166Y-54451190D01*
X101129166Y-54298809D01*
X101167261Y-54222619D01*
X101205357Y-54184523D01*
X101281547Y-54146428D01*
%TO.C,D7*%
X59010476Y-70231904D02*
X59010476Y-69431904D01*
X58820000Y-69431904D01*
X58705714Y-69470000D01*
X58629523Y-69546190D01*
X58591428Y-69622380D01*
X58553333Y-69774761D01*
X58553333Y-69889047D01*
X58591428Y-70041428D01*
X58629523Y-70117619D01*
X58705714Y-70193809D01*
X58820000Y-70231904D01*
X59010476Y-70231904D01*
X58286666Y-69431904D02*
X57753333Y-69431904D01*
X58096190Y-70231904D01*
%TO.C,R1*%
X79313380Y-83272333D02*
X78837190Y-82939000D01*
X79313380Y-82700904D02*
X78313380Y-82700904D01*
X78313380Y-83081857D01*
X78361000Y-83177095D01*
X78408619Y-83224714D01*
X78503857Y-83272333D01*
X78646714Y-83272333D01*
X78741952Y-83224714D01*
X78789571Y-83177095D01*
X78837190Y-83081857D01*
X78837190Y-82700904D01*
X79313380Y-84224714D02*
X79313380Y-83653285D01*
X79313380Y-83939000D02*
X78313380Y-83939000D01*
X78456238Y-83843761D01*
X78551476Y-83748523D01*
X78599095Y-83653285D01*
%TO.C,R2*%
X66206666Y-69026380D02*
X66540000Y-68550190D01*
X66778095Y-69026380D02*
X66778095Y-68026380D01*
X66397142Y-68026380D01*
X66301904Y-68074000D01*
X66254285Y-68121619D01*
X66206666Y-68216857D01*
X66206666Y-68359714D01*
X66254285Y-68454952D01*
X66301904Y-68502571D01*
X66397142Y-68550190D01*
X66778095Y-68550190D01*
X65825714Y-68121619D02*
X65778095Y-68074000D01*
X65682857Y-68026380D01*
X65444761Y-68026380D01*
X65349523Y-68074000D01*
X65301904Y-68121619D01*
X65254285Y-68216857D01*
X65254285Y-68312095D01*
X65301904Y-68454952D01*
X65873333Y-69026380D01*
X65254285Y-69026380D01*
%TO.C,R3*%
X99772380Y-72064583D02*
X99296190Y-71731250D01*
X99772380Y-71493154D02*
X98772380Y-71493154D01*
X98772380Y-71874107D01*
X98820000Y-71969345D01*
X98867619Y-72016964D01*
X98962857Y-72064583D01*
X99105714Y-72064583D01*
X99200952Y-72016964D01*
X99248571Y-71969345D01*
X99296190Y-71874107D01*
X99296190Y-71493154D01*
X98772380Y-72397916D02*
X98772380Y-73016964D01*
X99153333Y-72683630D01*
X99153333Y-72826488D01*
X99200952Y-72921726D01*
X99248571Y-72969345D01*
X99343809Y-73016964D01*
X99581904Y-73016964D01*
X99677142Y-72969345D01*
X99724761Y-72921726D01*
X99772380Y-72826488D01*
X99772380Y-72540773D01*
X99724761Y-72445535D01*
X99677142Y-72397916D01*
%TO.C,R4*%
X93422380Y-72064583D02*
X92946190Y-71731250D01*
X93422380Y-71493154D02*
X92422380Y-71493154D01*
X92422380Y-71874107D01*
X92470000Y-71969345D01*
X92517619Y-72016964D01*
X92612857Y-72064583D01*
X92755714Y-72064583D01*
X92850952Y-72016964D01*
X92898571Y-71969345D01*
X92946190Y-71874107D01*
X92946190Y-71493154D01*
X92755714Y-72921726D02*
X93422380Y-72921726D01*
X92374761Y-72683630D02*
X93089047Y-72445535D01*
X93089047Y-73064583D01*
%TO.C,R5*%
X98184880Y-67302083D02*
X97708690Y-66968750D01*
X98184880Y-66730654D02*
X97184880Y-66730654D01*
X97184880Y-67111607D01*
X97232500Y-67206845D01*
X97280119Y-67254464D01*
X97375357Y-67302083D01*
X97518214Y-67302083D01*
X97613452Y-67254464D01*
X97661071Y-67206845D01*
X97708690Y-67111607D01*
X97708690Y-66730654D01*
X97184880Y-68206845D02*
X97184880Y-67730654D01*
X97661071Y-67683035D01*
X97613452Y-67730654D01*
X97565833Y-67825892D01*
X97565833Y-68063988D01*
X97613452Y-68159226D01*
X97661071Y-68206845D01*
X97756309Y-68254464D01*
X97994404Y-68254464D01*
X98089642Y-68206845D01*
X98137261Y-68159226D01*
X98184880Y-68063988D01*
X98184880Y-67825892D01*
X98137261Y-67730654D01*
X98089642Y-67683035D01*
%TO.C,R6*%
X95009880Y-67302083D02*
X94533690Y-66968750D01*
X95009880Y-66730654D02*
X94009880Y-66730654D01*
X94009880Y-67111607D01*
X94057500Y-67206845D01*
X94105119Y-67254464D01*
X94200357Y-67302083D01*
X94343214Y-67302083D01*
X94438452Y-67254464D01*
X94486071Y-67206845D01*
X94533690Y-67111607D01*
X94533690Y-66730654D01*
X94009880Y-68159226D02*
X94009880Y-67968750D01*
X94057500Y-67873511D01*
X94105119Y-67825892D01*
X94247976Y-67730654D01*
X94438452Y-67683035D01*
X94819404Y-67683035D01*
X94914642Y-67730654D01*
X94962261Y-67778273D01*
X95009880Y-67873511D01*
X95009880Y-68063988D01*
X94962261Y-68159226D01*
X94914642Y-68206845D01*
X94819404Y-68254464D01*
X94581309Y-68254464D01*
X94486071Y-68206845D01*
X94438452Y-68159226D01*
X94390833Y-68063988D01*
X94390833Y-67873511D01*
X94438452Y-67778273D01*
X94486071Y-67730654D01*
X94581309Y-67683035D01*
%TO.C,SW1*%
X69532333Y-88101761D02*
X69389476Y-88149380D01*
X69151380Y-88149380D01*
X69056142Y-88101761D01*
X69008523Y-88054142D01*
X68960904Y-87958904D01*
X68960904Y-87863666D01*
X69008523Y-87768428D01*
X69056142Y-87720809D01*
X69151380Y-87673190D01*
X69341857Y-87625571D01*
X69437095Y-87577952D01*
X69484714Y-87530333D01*
X69532333Y-87435095D01*
X69532333Y-87339857D01*
X69484714Y-87244619D01*
X69437095Y-87197000D01*
X69341857Y-87149380D01*
X69103761Y-87149380D01*
X68960904Y-87197000D01*
X68627571Y-87149380D02*
X68389476Y-88149380D01*
X68199000Y-87435095D01*
X68008523Y-88149380D01*
X67770428Y-87149380D01*
X66865666Y-88149380D02*
X67437095Y-88149380D01*
X67151380Y-88149380D02*
X67151380Y-87149380D01*
X67246619Y-87292238D01*
X67341857Y-87387476D01*
X67437095Y-87435095D01*
%TD*%
M02*
