%TF.GenerationSoftware,KiCad,Pcbnew,(5.1.8)-1*%
%TF.CreationDate,2020-11-20T23:41:01-06:00*%
%TF.ProjectId,testpcb,74657374-7063-4622-9e6b-696361645f70,0*%
%TF.SameCoordinates,Original*%
%TF.FileFunction,Soldermask,Bot*%
%TF.FilePolarity,Negative*%
%FSLAX46Y46*%
G04 Gerber Fmt 4.6, Leading zero omitted, Abs format (unit mm)*
G04 Created by KiCad (PCBNEW (5.1.8)-1) date 2020-11-20 23:41:01*
%MOMM*%
%LPD*%
G01*
G04 APERTURE LIST*
%ADD10R,1.500000X0.550000*%
%ADD11R,0.550000X1.500000*%
%ADD12R,2.550000X2.500000*%
%ADD13C,1.750000*%
%ADD14C,3.000000*%
%ADD15C,3.987800*%
%ADD16R,0.600000X1.450000*%
%ADD17R,0.300000X1.450000*%
%ADD18C,0.650000*%
%ADD19O,1.000000X2.100000*%
%ADD20O,1.000000X1.600000*%
%ADD21C,0.100000*%
%ADD22C,1.600000*%
%ADD23R,1.600000X1.600000*%
%ADD24R,1.200000X1.200000*%
%ADD25R,1.700000X1.000000*%
%ADD26R,2.000000X2.000000*%
%ADD27C,2.000000*%
%ADD28R,2.000000X3.200000*%
G04 APERTURE END LIST*
D10*
%TO.C,U1*%
X82662000Y-66739000D03*
X82662000Y-67539000D03*
X82662000Y-68339000D03*
X82662000Y-69139000D03*
X82662000Y-69939000D03*
X82662000Y-70739000D03*
X82662000Y-71539000D03*
X82662000Y-72339000D03*
X82662000Y-73139000D03*
X82662000Y-73939000D03*
X82662000Y-74739000D03*
D11*
X80962000Y-76439000D03*
X80162000Y-76439000D03*
X79362000Y-76439000D03*
X78562000Y-76439000D03*
X77762000Y-76439000D03*
X76962000Y-76439000D03*
X76162000Y-76439000D03*
X75362000Y-76439000D03*
X74562000Y-76439000D03*
X73762000Y-76439000D03*
X72962000Y-76439000D03*
D10*
X71262000Y-74739000D03*
X71262000Y-73939000D03*
X71262000Y-73139000D03*
X71262000Y-72339000D03*
X71262000Y-71539000D03*
X71262000Y-70739000D03*
X71262000Y-69939000D03*
X71262000Y-69139000D03*
X71262000Y-68339000D03*
X71262000Y-67539000D03*
X71262000Y-66739000D03*
D11*
X72962000Y-65039000D03*
X73762000Y-65039000D03*
X74562000Y-65039000D03*
X75362000Y-65039000D03*
X76162000Y-65039000D03*
X76962000Y-65039000D03*
X77762000Y-65039000D03*
X78562000Y-65039000D03*
X79362000Y-65039000D03*
X80162000Y-65039000D03*
X80962000Y-65039000D03*
%TD*%
D12*
%TO.C,K6*%
X101092000Y-47307500D03*
X88165000Y-49847500D03*
D13*
X100330000Y-52387500D03*
X90170000Y-52387500D03*
D14*
X91440000Y-49847500D03*
D15*
X95250000Y-52387500D03*
D14*
X97790000Y-47307500D03*
%TD*%
D12*
%TO.C,K5*%
X101092000Y-28257500D03*
X88165000Y-30797500D03*
D13*
X100330000Y-33337500D03*
X90170000Y-33337500D03*
D14*
X91440000Y-30797500D03*
D15*
X95250000Y-33337500D03*
D14*
X97790000Y-28257500D03*
%TD*%
D12*
%TO.C,K4*%
X82042000Y-47307500D03*
X69115000Y-49847500D03*
D13*
X81280000Y-52387500D03*
X71120000Y-52387500D03*
D14*
X72390000Y-49847500D03*
D15*
X76200000Y-52387500D03*
D14*
X78740000Y-47307500D03*
%TD*%
D12*
%TO.C,K3*%
X82042000Y-28257500D03*
X69115000Y-30797500D03*
D13*
X81280000Y-33337500D03*
X71120000Y-33337500D03*
D14*
X72390000Y-30797500D03*
D15*
X76200000Y-33337500D03*
D14*
X78740000Y-28257500D03*
%TD*%
D12*
%TO.C,K2*%
X62992000Y-47307500D03*
X50065000Y-49847500D03*
D13*
X62230000Y-52387500D03*
X52070000Y-52387500D03*
D14*
X53340000Y-49847500D03*
D15*
X57150000Y-52387500D03*
D14*
X59690000Y-47307500D03*
%TD*%
D12*
%TO.C,K1*%
X62992000Y-28257500D03*
X50065000Y-30797500D03*
D13*
X62230000Y-33337500D03*
X52070000Y-33337500D03*
D14*
X53340000Y-30797500D03*
D15*
X57150000Y-33337500D03*
D14*
X59690000Y-28257500D03*
%TD*%
D16*
%TO.C,J1*%
X95200000Y-82792500D03*
X101650000Y-82792500D03*
X95975000Y-82792500D03*
X100875000Y-82792500D03*
D17*
X100175000Y-82792500D03*
X96675000Y-82792500D03*
X99675000Y-82792500D03*
X97175000Y-82792500D03*
X99175000Y-82792500D03*
X97675000Y-82792500D03*
X98175000Y-82792500D03*
X98675000Y-82792500D03*
D18*
X95535000Y-84237500D03*
X101315000Y-84237500D03*
D19*
X102745000Y-83707500D03*
X94105000Y-83707500D03*
D20*
X102745000Y-87887500D03*
X94105000Y-87887500D03*
%TD*%
D21*
%TO.C,Y1*%
G36*
X86797988Y-79997903D02*
G01*
X87646516Y-80846431D01*
X86656566Y-81836381D01*
X85808038Y-80987853D01*
X86797988Y-79997903D01*
G37*
G36*
X85242353Y-81553538D02*
G01*
X86090881Y-82402066D01*
X85100931Y-83392016D01*
X84252403Y-82543488D01*
X85242353Y-81553538D01*
G37*
G36*
X86444434Y-82755619D02*
G01*
X87292962Y-83604147D01*
X86303012Y-84594097D01*
X85454484Y-83745569D01*
X86444434Y-82755619D01*
G37*
G36*
X88000069Y-81199984D02*
G01*
X88848597Y-82048512D01*
X87858647Y-83038462D01*
X87010119Y-82189934D01*
X88000069Y-81199984D01*
G37*
%TD*%
%TO.C,C1*%
G36*
G01*
X83992822Y-85426573D02*
X84664573Y-84754822D01*
G75*
G02*
X85018127Y-84754822I176777J-176777D01*
G01*
X85371680Y-85108375D01*
G75*
G02*
X85371680Y-85461929I-176777J-176777D01*
G01*
X84699929Y-86133680D01*
G75*
G02*
X84346375Y-86133680I-176777J176777D01*
G01*
X83992822Y-85780127D01*
G75*
G02*
X83992822Y-85426573I176777J176777D01*
G01*
G37*
G36*
G01*
X82649320Y-84083071D02*
X83321071Y-83411320D01*
G75*
G02*
X83674625Y-83411320I176777J-176777D01*
G01*
X84028178Y-83764873D01*
G75*
G02*
X84028178Y-84118427I-176777J-176777D01*
G01*
X83356427Y-84790178D01*
G75*
G02*
X83002873Y-84790178I-176777J176777D01*
G01*
X82649320Y-84436625D01*
G75*
G02*
X82649320Y-84083071I176777J176777D01*
G01*
G37*
%TD*%
%TO.C,C2*%
G36*
G01*
X87665820Y-79066571D02*
X88337571Y-78394820D01*
G75*
G02*
X88691125Y-78394820I176777J-176777D01*
G01*
X89044678Y-78748373D01*
G75*
G02*
X89044678Y-79101927I-176777J-176777D01*
G01*
X88372927Y-79773678D01*
G75*
G02*
X88019373Y-79773678I-176777J176777D01*
G01*
X87665820Y-79420125D01*
G75*
G02*
X87665820Y-79066571I176777J176777D01*
G01*
G37*
G36*
G01*
X89009322Y-80410073D02*
X89681073Y-79738322D01*
G75*
G02*
X90034627Y-79738322I176777J-176777D01*
G01*
X90388180Y-80091875D01*
G75*
G02*
X90388180Y-80445429I-176777J-176777D01*
G01*
X89716429Y-81117180D01*
G75*
G02*
X89362875Y-81117180I-176777J176777D01*
G01*
X89009322Y-80763627D01*
G75*
G02*
X89009322Y-80410073I176777J176777D01*
G01*
G37*
%TD*%
%TO.C,C3*%
G36*
G01*
X86073000Y-66220000D02*
X85123000Y-66220000D01*
G75*
G02*
X84873000Y-65970000I0J250000D01*
G01*
X84873000Y-65470000D01*
G75*
G02*
X85123000Y-65220000I250000J0D01*
G01*
X86073000Y-65220000D01*
G75*
G02*
X86323000Y-65470000I0J-250000D01*
G01*
X86323000Y-65970000D01*
G75*
G02*
X86073000Y-66220000I-250000J0D01*
G01*
G37*
G36*
G01*
X86073000Y-64320000D02*
X85123000Y-64320000D01*
G75*
G02*
X84873000Y-64070000I0J250000D01*
G01*
X84873000Y-63570000D01*
G75*
G02*
X85123000Y-63320000I250000J0D01*
G01*
X86073000Y-63320000D01*
G75*
G02*
X86323000Y-63570000I0J-250000D01*
G01*
X86323000Y-64070000D01*
G75*
G02*
X86073000Y-64320000I-250000J0D01*
G01*
G37*
%TD*%
%TO.C,C4*%
G36*
G01*
X66987000Y-63152000D02*
X66987000Y-64102000D01*
G75*
G02*
X66737000Y-64352000I-250000J0D01*
G01*
X66237000Y-64352000D01*
G75*
G02*
X65987000Y-64102000I0J250000D01*
G01*
X65987000Y-63152000D01*
G75*
G02*
X66237000Y-62902000I250000J0D01*
G01*
X66737000Y-62902000D01*
G75*
G02*
X66987000Y-63152000I0J-250000D01*
G01*
G37*
G36*
G01*
X68887000Y-63152000D02*
X68887000Y-64102000D01*
G75*
G02*
X68637000Y-64352000I-250000J0D01*
G01*
X68137000Y-64352000D01*
G75*
G02*
X67887000Y-64102000I0J250000D01*
G01*
X67887000Y-63152000D01*
G75*
G02*
X68137000Y-62902000I250000J0D01*
G01*
X68637000Y-62902000D01*
G75*
G02*
X68887000Y-63152000I0J-250000D01*
G01*
G37*
%TD*%
%TO.C,C5*%
G36*
G01*
X85162571Y-78069180D02*
X84490820Y-77397429D01*
G75*
G02*
X84490820Y-77043875I176777J176777D01*
G01*
X84844373Y-76690322D01*
G75*
G02*
X85197927Y-76690322I176777J-176777D01*
G01*
X85869678Y-77362073D01*
G75*
G02*
X85869678Y-77715627I-176777J-176777D01*
G01*
X85516125Y-78069180D01*
G75*
G02*
X85162571Y-78069180I-176777J176777D01*
G01*
G37*
G36*
G01*
X86506073Y-76725678D02*
X85834322Y-76053927D01*
G75*
G02*
X85834322Y-75700373I176777J176777D01*
G01*
X86187875Y-75346820D01*
G75*
G02*
X86541429Y-75346820I176777J-176777D01*
G01*
X87213180Y-76018571D01*
G75*
G02*
X87213180Y-76372125I-176777J-176777D01*
G01*
X86859627Y-76725678D01*
G75*
G02*
X86506073Y-76725678I-176777J176777D01*
G01*
G37*
%TD*%
%TO.C,C6*%
G36*
G01*
X67495000Y-75471000D02*
X67495000Y-76421000D01*
G75*
G02*
X67245000Y-76671000I-250000J0D01*
G01*
X66745000Y-76671000D01*
G75*
G02*
X66495000Y-76421000I0J250000D01*
G01*
X66495000Y-75471000D01*
G75*
G02*
X66745000Y-75221000I250000J0D01*
G01*
X67245000Y-75221000D01*
G75*
G02*
X67495000Y-75471000I0J-250000D01*
G01*
G37*
G36*
G01*
X69395000Y-75471000D02*
X69395000Y-76421000D01*
G75*
G02*
X69145000Y-76671000I-250000J0D01*
G01*
X68645000Y-76671000D01*
G75*
G02*
X68395000Y-76421000I0J250000D01*
G01*
X68395000Y-75471000D01*
G75*
G02*
X68645000Y-75221000I250000J0D01*
G01*
X69145000Y-75221000D01*
G75*
G02*
X69395000Y-75471000I0J-250000D01*
G01*
G37*
%TD*%
%TO.C,C7*%
G36*
G01*
X81290500Y-63403500D02*
X81290500Y-62453500D01*
G75*
G02*
X81540500Y-62203500I250000J0D01*
G01*
X82040500Y-62203500D01*
G75*
G02*
X82290500Y-62453500I0J-250000D01*
G01*
X82290500Y-63403500D01*
G75*
G02*
X82040500Y-63653500I-250000J0D01*
G01*
X81540500Y-63653500D01*
G75*
G02*
X81290500Y-63403500I0J250000D01*
G01*
G37*
G36*
G01*
X83190500Y-63403500D02*
X83190500Y-62453500D01*
G75*
G02*
X83440500Y-62203500I250000J0D01*
G01*
X83940500Y-62203500D01*
G75*
G02*
X84190500Y-62453500I0J-250000D01*
G01*
X84190500Y-63403500D01*
G75*
G02*
X83940500Y-63653500I-250000J0D01*
G01*
X83440500Y-63653500D01*
G75*
G02*
X83190500Y-63403500I0J250000D01*
G01*
G37*
%TD*%
%TO.C,C8*%
G36*
G01*
X87953000Y-72103000D02*
X87953000Y-71153000D01*
G75*
G02*
X88203000Y-70903000I250000J0D01*
G01*
X88703000Y-70903000D01*
G75*
G02*
X88953000Y-71153000I0J-250000D01*
G01*
X88953000Y-72103000D01*
G75*
G02*
X88703000Y-72353000I-250000J0D01*
G01*
X88203000Y-72353000D01*
G75*
G02*
X87953000Y-72103000I0J250000D01*
G01*
G37*
G36*
G01*
X86053000Y-72103000D02*
X86053000Y-71153000D01*
G75*
G02*
X86303000Y-70903000I250000J0D01*
G01*
X86803000Y-70903000D01*
G75*
G02*
X87053000Y-71153000I0J-250000D01*
G01*
X87053000Y-72103000D01*
G75*
G02*
X86803000Y-72353000I-250000J0D01*
G01*
X86303000Y-72353000D01*
G75*
G02*
X86053000Y-72103000I0J250000D01*
G01*
G37*
%TD*%
D22*
%TO.C,D1*%
X65024000Y-31025000D03*
D23*
X65024000Y-38825000D03*
D24*
X65024000Y-36500000D03*
X65024000Y-33350000D03*
%TD*%
%TO.C,D2*%
X65024000Y-52400000D03*
X65024000Y-55550000D03*
D23*
X65024000Y-57875000D03*
D22*
X65024000Y-50075000D03*
%TD*%
%TO.C,D3*%
X84137500Y-31025000D03*
D23*
X84137500Y-38825000D03*
D24*
X84137500Y-36500000D03*
X84137500Y-33350000D03*
%TD*%
%TO.C,D4*%
X84137500Y-52400000D03*
X84137500Y-55550000D03*
D23*
X84137500Y-57875000D03*
D22*
X84137500Y-50075000D03*
%TD*%
D24*
%TO.C,D5*%
X103187500Y-33350000D03*
X103187500Y-36500000D03*
D23*
X103187500Y-38825000D03*
D22*
X103187500Y-31025000D03*
%TD*%
D24*
%TO.C,D6*%
X103187500Y-52400000D03*
X103187500Y-55550000D03*
D23*
X103187500Y-57875000D03*
D22*
X103187500Y-50075000D03*
%TD*%
%TO.C,D7*%
X54520000Y-67945000D03*
D23*
X62320000Y-67945000D03*
D24*
X59995000Y-67945000D03*
X56845000Y-67945000D03*
%TD*%
%TO.C,R1*%
G36*
G01*
X77656003Y-85464000D02*
X75505997Y-85464000D01*
G75*
G02*
X75256000Y-85214003I0J249997D01*
G01*
X75256000Y-84588997D01*
G75*
G02*
X75505997Y-84339000I249997J0D01*
G01*
X77656003Y-84339000D01*
G75*
G02*
X77906000Y-84588997I0J-249997D01*
G01*
X77906000Y-85214003D01*
G75*
G02*
X77656003Y-85464000I-249997J0D01*
G01*
G37*
G36*
G01*
X77656003Y-82539000D02*
X75505997Y-82539000D01*
G75*
G02*
X75256000Y-82289003I0J249997D01*
G01*
X75256000Y-81663997D01*
G75*
G02*
X75505997Y-81414000I249997J0D01*
G01*
X77656003Y-81414000D01*
G75*
G02*
X77906000Y-81663997I0J-249997D01*
G01*
X77906000Y-82289003D01*
G75*
G02*
X77656003Y-82539000I-249997J0D01*
G01*
G37*
%TD*%
%TO.C,R2*%
G36*
G01*
X66940000Y-67369003D02*
X66940000Y-65218997D01*
G75*
G02*
X67189997Y-64969000I249997J0D01*
G01*
X67815003Y-64969000D01*
G75*
G02*
X68065000Y-65218997I0J-249997D01*
G01*
X68065000Y-67369003D01*
G75*
G02*
X67815003Y-67619000I-249997J0D01*
G01*
X67189997Y-67619000D01*
G75*
G02*
X66940000Y-67369003I0J249997D01*
G01*
G37*
G36*
G01*
X64015000Y-67369003D02*
X64015000Y-65218997D01*
G75*
G02*
X64264997Y-64969000I249997J0D01*
G01*
X64890003Y-64969000D01*
G75*
G02*
X65140000Y-65218997I0J-249997D01*
G01*
X65140000Y-67369003D01*
G75*
G02*
X64890003Y-67619000I-249997J0D01*
G01*
X64264997Y-67619000D01*
G75*
G02*
X64015000Y-67369003I0J249997D01*
G01*
G37*
%TD*%
%TO.C,R3*%
G36*
G01*
X100524997Y-73131250D02*
X102675003Y-73131250D01*
G75*
G02*
X102925000Y-73381247I0J-249997D01*
G01*
X102925000Y-74006253D01*
G75*
G02*
X102675003Y-74256250I-249997J0D01*
G01*
X100524997Y-74256250D01*
G75*
G02*
X100275000Y-74006253I0J249997D01*
G01*
X100275000Y-73381247D01*
G75*
G02*
X100524997Y-73131250I249997J0D01*
G01*
G37*
G36*
G01*
X100524997Y-70206250D02*
X102675003Y-70206250D01*
G75*
G02*
X102925000Y-70456247I0J-249997D01*
G01*
X102925000Y-71081253D01*
G75*
G02*
X102675003Y-71331250I-249997J0D01*
G01*
X100524997Y-71331250D01*
G75*
G02*
X100275000Y-71081253I0J249997D01*
G01*
X100275000Y-70456247D01*
G75*
G02*
X100524997Y-70206250I249997J0D01*
G01*
G37*
%TD*%
%TO.C,R4*%
G36*
G01*
X94174997Y-70206250D02*
X96325003Y-70206250D01*
G75*
G02*
X96575000Y-70456247I0J-249997D01*
G01*
X96575000Y-71081253D01*
G75*
G02*
X96325003Y-71331250I-249997J0D01*
G01*
X94174997Y-71331250D01*
G75*
G02*
X93925000Y-71081253I0J249997D01*
G01*
X93925000Y-70456247D01*
G75*
G02*
X94174997Y-70206250I249997J0D01*
G01*
G37*
G36*
G01*
X94174997Y-73131250D02*
X96325003Y-73131250D01*
G75*
G02*
X96575000Y-73381247I0J-249997D01*
G01*
X96575000Y-74006253D01*
G75*
G02*
X96325003Y-74256250I-249997J0D01*
G01*
X94174997Y-74256250D01*
G75*
G02*
X93925000Y-74006253I0J249997D01*
G01*
X93925000Y-73381247D01*
G75*
G02*
X94174997Y-73131250I249997J0D01*
G01*
G37*
%TD*%
%TO.C,R5*%
G36*
G01*
X98937497Y-68368750D02*
X101087503Y-68368750D01*
G75*
G02*
X101337500Y-68618747I0J-249997D01*
G01*
X101337500Y-69243753D01*
G75*
G02*
X101087503Y-69493750I-249997J0D01*
G01*
X98937497Y-69493750D01*
G75*
G02*
X98687500Y-69243753I0J249997D01*
G01*
X98687500Y-68618747D01*
G75*
G02*
X98937497Y-68368750I249997J0D01*
G01*
G37*
G36*
G01*
X98937497Y-65443750D02*
X101087503Y-65443750D01*
G75*
G02*
X101337500Y-65693747I0J-249997D01*
G01*
X101337500Y-66318753D01*
G75*
G02*
X101087503Y-66568750I-249997J0D01*
G01*
X98937497Y-66568750D01*
G75*
G02*
X98687500Y-66318753I0J249997D01*
G01*
X98687500Y-65693747D01*
G75*
G02*
X98937497Y-65443750I249997J0D01*
G01*
G37*
%TD*%
%TO.C,R6*%
G36*
G01*
X95762497Y-65443750D02*
X97912503Y-65443750D01*
G75*
G02*
X98162500Y-65693747I0J-249997D01*
G01*
X98162500Y-66318753D01*
G75*
G02*
X97912503Y-66568750I-249997J0D01*
G01*
X95762497Y-66568750D01*
G75*
G02*
X95512500Y-66318753I0J249997D01*
G01*
X95512500Y-65693747D01*
G75*
G02*
X95762497Y-65443750I249997J0D01*
G01*
G37*
G36*
G01*
X95762497Y-68368750D02*
X97912503Y-68368750D01*
G75*
G02*
X98162500Y-68618747I0J-249997D01*
G01*
X98162500Y-69243753D01*
G75*
G02*
X97912503Y-69493750I-249997J0D01*
G01*
X95762497Y-69493750D01*
G75*
G02*
X95512500Y-69243753I0J249997D01*
G01*
X95512500Y-68618747D01*
G75*
G02*
X95762497Y-68368750I249997J0D01*
G01*
G37*
%TD*%
D25*
%TO.C,SW1*%
X65049000Y-85847000D03*
X71349000Y-85847000D03*
X65049000Y-82047000D03*
X71349000Y-82047000D03*
%TD*%
D26*
%TO.C,SW2*%
X53856250Y-79731250D03*
D27*
X56356250Y-79731250D03*
X58856250Y-79731250D03*
D28*
X50756250Y-72231250D03*
X61956250Y-72231250D03*
D27*
X53856250Y-65231250D03*
X58856250Y-65231250D03*
%TD*%
M02*
