%TF.GenerationSoftware,KiCad,Pcbnew,(5.1.8)-1*%
%TF.CreationDate,2020-11-20T23:41:01-06:00*%
%TF.ProjectId,testpcb,74657374-7063-4622-9e6b-696361645f70,0*%
%TF.SameCoordinates,Original*%
%TF.FileFunction,Legend,Top*%
%TF.FilePolarity,Positive*%
%FSLAX46Y46*%
G04 Gerber Fmt 4.6, Leading zero omitted, Abs format (unit mm)*
G04 Created by KiCad (PCBNEW (5.1.8)-1) date 2020-11-20 23:41:01*
%MOMM*%
%LPD*%
G01*
G04 APERTURE LIST*
%ADD10C,1.000000*%
%ADD11C,0.120000*%
%ADD12C,0.150000*%
G04 APERTURE END LIST*
D10*
X75248809Y-68802523D02*
X75248809Y-71659666D01*
X75058333Y-72231095D01*
X74677380Y-72612047D01*
X74105952Y-72802523D01*
X73725000Y-72802523D01*
X78486904Y-70707285D02*
X77153571Y-70707285D01*
X77153571Y-72802523D02*
X77153571Y-68802523D01*
X79058333Y-68802523D01*
X80582142Y-72421571D02*
X80772619Y-72612047D01*
X80582142Y-72802523D01*
X80391666Y-72612047D01*
X80582142Y-72421571D01*
X80582142Y-72802523D01*
X82486904Y-72802523D02*
X82486904Y-70135857D01*
X82486904Y-70516809D02*
X82677380Y-70326333D01*
X83058333Y-70135857D01*
X83629761Y-70135857D01*
X84010714Y-70326333D01*
X84201190Y-70707285D01*
X84201190Y-72802523D01*
X84201190Y-70707285D02*
X84391666Y-70326333D01*
X84772619Y-70135857D01*
X85344047Y-70135857D01*
X85725000Y-70326333D01*
X85915476Y-70707285D01*
X85915476Y-72802523D01*
X87820238Y-72802523D02*
X87820238Y-70135857D01*
X87820238Y-68802523D02*
X87629761Y-68993000D01*
X87820238Y-69183476D01*
X88010714Y-68993000D01*
X87820238Y-68802523D01*
X87820238Y-69183476D01*
X91439285Y-72612047D02*
X91058333Y-72802523D01*
X90296428Y-72802523D01*
X89915476Y-72612047D01*
X89725000Y-72421571D01*
X89534523Y-72040619D01*
X89534523Y-70897761D01*
X89725000Y-70516809D01*
X89915476Y-70326333D01*
X90296428Y-70135857D01*
X91058333Y-70135857D01*
X91439285Y-70326333D01*
X93153571Y-72802523D02*
X93153571Y-70135857D01*
X93153571Y-70897761D02*
X93344047Y-70516809D01*
X93534523Y-70326333D01*
X93915476Y-70135857D01*
X94296428Y-70135857D01*
X96201190Y-72802523D02*
X95820238Y-72612047D01*
X95629761Y-72421571D01*
X95439285Y-72040619D01*
X95439285Y-70897761D01*
X95629761Y-70516809D01*
X95820238Y-70326333D01*
X96201190Y-70135857D01*
X96772619Y-70135857D01*
X97153571Y-70326333D01*
X97344047Y-70516809D01*
X97534523Y-70897761D01*
X97534523Y-72040619D01*
X97344047Y-72421571D01*
X97153571Y-72612047D01*
X96772619Y-72802523D01*
X96201190Y-72802523D01*
D11*
%TO.C,SW2*%
X56356250Y-72731250D02*
X56356250Y-71731250D01*
X55856250Y-72231250D02*
X56856250Y-72231250D01*
X59856250Y-66131250D02*
X62256250Y-66131250D01*
X55056250Y-66131250D02*
X57656250Y-66131250D01*
X50456250Y-66131250D02*
X52856250Y-66131250D01*
X52256250Y-79431250D02*
X52556250Y-79731250D01*
X52256250Y-80031250D02*
X52256250Y-79431250D01*
X52556250Y-79731250D02*
X52256250Y-80031250D01*
X50456250Y-78331250D02*
X62256250Y-78331250D01*
X50456250Y-74231250D02*
X50456250Y-78331250D01*
X62256250Y-74231250D02*
X62256250Y-78331250D01*
X62256250Y-66131250D02*
X62256250Y-70231250D01*
X50456250Y-70231250D02*
X50456250Y-66131250D01*
X59356250Y-72231250D02*
G75*
G03*
X59356250Y-72231250I-3000000J0D01*
G01*
D12*
X49561011Y-78264583D02*
X49608630Y-78121726D01*
X49608630Y-77883630D01*
X49561011Y-77788392D01*
X49513392Y-77740773D01*
X49418154Y-77693154D01*
X49322916Y-77693154D01*
X49227678Y-77740773D01*
X49180059Y-77788392D01*
X49132440Y-77883630D01*
X49084821Y-78074107D01*
X49037202Y-78169345D01*
X48989583Y-78216964D01*
X48894345Y-78264583D01*
X48799107Y-78264583D01*
X48703869Y-78216964D01*
X48656250Y-78169345D01*
X48608630Y-78074107D01*
X48608630Y-77836011D01*
X48656250Y-77693154D01*
X48608630Y-77359821D02*
X49608630Y-77121726D01*
X48894345Y-76931250D01*
X49608630Y-76740773D01*
X48608630Y-76502678D01*
X48703869Y-76169345D02*
X48656250Y-76121726D01*
X48608630Y-76026488D01*
X48608630Y-75788392D01*
X48656250Y-75693154D01*
X48703869Y-75645535D01*
X48799107Y-75597916D01*
X48894345Y-75597916D01*
X49037202Y-75645535D01*
X49608630Y-76216964D01*
X49608630Y-75597916D01*
%TD*%
M02*
