M48
; DRILL file {KiCad (5.1.8)-1} date 11/20/20 23:41:07
; FORMAT={-:-/ absolute / inch / decimal}
; #@! TF.CreationDate,2020-11-20T23:41:07-06:00
; #@! TF.GenerationSoftware,Kicad,Pcbnew,(5.1.8)-1
; #@! TF.FileFunction,NonPlated,1,2,NPTH
FMAT,2
INCH
T1C0.0256
T2C0.0689
T3C0.1181
T4C0.1570
%
G90
G05
T1
X3.7612Y-3.3164
X3.9888Y-3.3164
T2
X3.55Y-1.3125
X3.95Y-1.3125
X2.8Y-2.0625
X3.2Y-2.0625
X2.8Y-1.3125
X3.2Y-1.3125
X2.05Y-2.0625
X2.45Y-2.0625
X2.05Y-1.3125
X2.45Y-1.3125
X3.55Y-2.0625
X3.95Y-2.0625
T3
X3.6Y-1.2125
X3.85Y-1.1125
X2.85Y-1.9625
X3.1Y-1.8625
X2.85Y-1.2125
X3.1Y-1.1125
X2.1Y-1.9625
X2.35Y-1.8625
X2.1Y-1.2125
X2.35Y-1.1125
X3.6Y-1.9625
X3.85Y-1.8625
T4
X3.0Y-2.0625
X3.0Y-1.3125
X2.25Y-2.0625
X2.25Y-1.3125
X3.75Y-2.0625
X3.75Y-1.3125
T0
M30
