%TF.GenerationSoftware,KiCad,Pcbnew,(5.1.8)-1*%
%TF.CreationDate,2020-11-20T23:41:01-06:00*%
%TF.ProjectId,testpcb,74657374-7063-4622-9e6b-696361645f70,0*%
%TF.SameCoordinates,Original*%
%TF.FileFunction,Soldermask,Top*%
%TF.FilePolarity,Negative*%
%FSLAX46Y46*%
G04 Gerber Fmt 4.6, Leading zero omitted, Abs format (unit mm)*
G04 Created by KiCad (PCBNEW (5.1.8)-1) date 2020-11-20 23:41:01*
%MOMM*%
%LPD*%
G01*
G04 APERTURE LIST*
%ADD10C,1.750000*%
%ADD11C,3.000000*%
%ADD12C,3.987800*%
%ADD13C,0.650000*%
%ADD14O,1.000000X2.100000*%
%ADD15O,1.000000X1.600000*%
%ADD16C,1.600000*%
%ADD17R,1.600000X1.600000*%
%ADD18R,2.000000X2.000000*%
%ADD19C,2.000000*%
%ADD20R,2.000000X3.200000*%
G04 APERTURE END LIST*
D10*
%TO.C,K6*%
X100330000Y-52387500D03*
X90170000Y-52387500D03*
D11*
X91440000Y-49847500D03*
D12*
X95250000Y-52387500D03*
D11*
X97790000Y-47307500D03*
%TD*%
D10*
%TO.C,K5*%
X100330000Y-33337500D03*
X90170000Y-33337500D03*
D11*
X91440000Y-30797500D03*
D12*
X95250000Y-33337500D03*
D11*
X97790000Y-28257500D03*
%TD*%
D10*
%TO.C,K4*%
X81280000Y-52387500D03*
X71120000Y-52387500D03*
D11*
X72390000Y-49847500D03*
D12*
X76200000Y-52387500D03*
D11*
X78740000Y-47307500D03*
%TD*%
D10*
%TO.C,K3*%
X81280000Y-33337500D03*
X71120000Y-33337500D03*
D11*
X72390000Y-30797500D03*
D12*
X76200000Y-33337500D03*
D11*
X78740000Y-28257500D03*
%TD*%
D10*
%TO.C,K2*%
X62230000Y-52387500D03*
X52070000Y-52387500D03*
D11*
X53340000Y-49847500D03*
D12*
X57150000Y-52387500D03*
D11*
X59690000Y-47307500D03*
%TD*%
D10*
%TO.C,K1*%
X62230000Y-33337500D03*
X52070000Y-33337500D03*
D11*
X53340000Y-30797500D03*
D12*
X57150000Y-33337500D03*
D11*
X59690000Y-28257500D03*
%TD*%
D13*
%TO.C,J1*%
X95535000Y-84237500D03*
X101315000Y-84237500D03*
D14*
X102745000Y-83707500D03*
X94105000Y-83707500D03*
D15*
X102745000Y-87887500D03*
X94105000Y-87887500D03*
%TD*%
D16*
%TO.C,D1*%
X65024000Y-31025000D03*
D17*
X65024000Y-38825000D03*
%TD*%
%TO.C,D2*%
X65024000Y-57875000D03*
D16*
X65024000Y-50075000D03*
%TD*%
%TO.C,D3*%
X84137500Y-31025000D03*
D17*
X84137500Y-38825000D03*
%TD*%
%TO.C,D4*%
X84137500Y-57875000D03*
D16*
X84137500Y-50075000D03*
%TD*%
D17*
%TO.C,D5*%
X103187500Y-38825000D03*
D16*
X103187500Y-31025000D03*
%TD*%
D17*
%TO.C,D6*%
X103187500Y-57875000D03*
D16*
X103187500Y-50075000D03*
%TD*%
%TO.C,D7*%
X54520000Y-67945000D03*
D17*
X62320000Y-67945000D03*
%TD*%
D18*
%TO.C,SW2*%
X53856250Y-79731250D03*
D19*
X56356250Y-79731250D03*
X58856250Y-79731250D03*
D20*
X50756250Y-72231250D03*
X61956250Y-72231250D03*
D19*
X53856250Y-65231250D03*
X58856250Y-65231250D03*
%TD*%
M02*
